<?xml version="1.0" encoding="UTF-8"?>
<svg width="20px" height="20px" viewBox="0 0 20 20" version="1.1" xmlns="http://www.w3.org/2000/svg" xmlns:xlink="http://www.w3.org/1999/xlink">
    <title>6378FA5E-6FEF-4585-8189-EE122E2F7C56</title>
    <g id="V2" stroke="none" stroke-width="1" fill="none" fill-rule="evenodd">
        <g id="Case-Study-1---Extra-Wide---12col" transform="translate(-355.000000, -1268.000000)" fill="#FFFFFF" fill-rule="nonzero">
            <g id="Section-1" transform="translate(355.000000, 0.000000)">
                <g id="icon-outside-link" transform="translate(0.000000, 1268.000000)">
                    <path d="M8.5,3 C8.92676549,3 9.27272727,3.34596178 9.27272727,3.77272727 C9.27272727,4.19949276 8.92676549,4.54545455 8.5,4.54545455 L8.5,4.54545455 L2.31818182,4.54545455 C1.89141633,4.54545455 1.54545455,4.89141633 1.54545455,5.31818182 L1.54545455,5.31818182 L1.54545455,17.6818182 C1.54545455,18.1085837 1.89141633,18.4545455 2.31818182,18.4545455 L2.31818182,18.4545455 L14.6818182,18.4545455 C15.1085837,18.4545455 15.4545455,18.1085837 15.4545455,17.6818182 L15.4545455,17.6818182 L15.4545455,11.5 C15.4545455,11.0732345 15.8005072,10.7272727 16.2272727,10.7272727 C16.6540382,10.7272727 17,11.0732345 17,11.5 L17,11.5 L17,17.6818182 C17,18.9621146 15.9621146,20 14.6818182,20 L14.6818182,20 L2.31818182,20 C1.03788535,20 0,18.9621146 0,17.6818182 L0,17.6818182 L0,5.31818182 C0,4.03788535 1.03788535,3 2.31818182,3 L2.31818182,3 Z M19.2209649,4.54747351e-13 C19.4275498,4.54747351e-13 19.6256447,0.0822003153 19.7715376,0.22846243 C19.9177997,0.374355261 20,0.572450176 20,0.779035084 C20,0.985619993 19.9177997,1.18371491 19.7715376,1.32960774 L7.3292177,13.7719276 C7.13251704,13.9686283 6.84581957,14.0454486 6.57712147,13.9734512 C6.30842337,13.9014537 6.09854626,13.6915766 6.02654882,13.4228785 C5.95455138,13.1541804 6.03137173,12.867483 6.22807239,12.6707823 L18.6703923,0.22846243 C18.8162851,0.0822003153 19.01438,4.54747351e-13 19.2209649,4.54747351e-13 Z" id="Combined-Shape"></path>
                    <path d="M11,0.75 C11,0.335786438 11.3357864,0 11.75,0 L19.25,0 C19.6642136,0 20,0.335786438 20,0.75 L20,8.25 C20,8.66421356 19.6642136,9 19.25,9 C18.8357864,9 18.5,8.66421356 18.5,8.25 L18.5,1.5 L11.75,1.5 C11.3357864,1.5 11,1.16421356 11,0.75 Z" id="Path"></path>
                </g>
            </g>
        </g>
    </g>
</svg>