<?xml version="1.0" encoding="UTF-8"?>
<svg width="56px" height="56px" viewBox="0 0 56 56" version="1.1" xmlns="http://www.w3.org/2000/svg" xmlns:xlink="http://www.w3.org/1999/xlink">
    <title>4C3DFAB2-5815-4565-A83D-6DB44049F337</title>
    <g id="V2" stroke="none" stroke-width="1" fill="none" fill-rule="evenodd">
        <g id="Case-Study-1---Extra-Wide---12col" transform="translate(-260.000000, -10293.000000)" fill="#FFFFFF" fill-rule="nonzero">
            <g id="Social-Links" transform="translate(164.000000, 10293.000000)">
                <g id="icon-/-1" transform="translate(96.000000, 0.000000)">
                    <g id="Group" transform="translate(4.000000, 4.000000)">
                        <rect id="Rectangle" x="12.952381" y="18.2857143" width="3.04761905" height="15.2380952"></rect>
                        <rect id="Rectangle" x="12.952381" y="11.4285714" width="3.04761905" height="3.04761905"></rect>
                        <path d="M23.6190476,27.8095238 L23.6190476,25.9047619 C23.6190476,23.5809524 25.4857143,21.7142857 27.8095238,21.7142857 C30.1333333,21.7142857 32,23.5809524 32,25.9047619 L32,33.5238095 L35.047619,33.5238095 L35.047619,25.9047619 C35.047619,21.9047619 31.8095238,18.6666667 27.8095238,18.6666667 C26.247619,18.6666667 24.8,19.1619048 23.6190476,20 L23.6190476,18.2857143 L20.5714286,18.2857143 L20.5714286,25.9047619 L20.5714286,27.8095238 L20.5714286,33.5238095 L23.6190476,33.5238095 L23.6190476,27.8095238 Z" id="Path"></path>
                        <path d="M48,0 L0,0 L0,48 L48,48 L48,0 Z M44.952381,44.952381 L3.04761905,44.952381 L3.04761905,3.04761905 L44.952381,3.04761905 L44.952381,44.952381 Z" id="Shape"></path>
                    </g>
                </g>
            </g>
        </g>
    </g>
</svg>