<?xml version="1.0" encoding="UTF-8"?>
<svg width="56px" height="56px" viewBox="0 0 56 56" version="1.1" xmlns="http://www.w3.org/2000/svg" xmlns:xlink="http://www.w3.org/1999/xlink">
    <title>80EA2D9E-529E-46FC-9D33-EF426D6E189A</title>
    <g id="V2" stroke="none" stroke-width="1" fill="none" fill-rule="evenodd">
        <g id="Case-Study-1---Extra-Wide---12col" transform="translate(-164.000000, -10293.000000)" fill="#FFFFFF" fill-rule="nonzero">
            <g id="Social-Links" transform="translate(164.000000, 10293.000000)">
                <g id="Group" transform="translate(8.000000, 3.000000)">
                    <polygon id="Path" points="0 50 40 50 40 12.6984127 40 9.52380952 30.4 9.52380952 30.4 0 27.2 0 0 0 0 22.2222222 3.2 22.2222222 3.2 3.17460317 27.2 3.17460317 27.2 12.6984127 36.8 12.6984127 36.8 46.8253968 0 46.8253968"></polygon>
                    <path d="M4.6,36.9047619 C7.12,36.9047619 9.2,34.8412698 9.2,32.3412698 C9.2,29.8412698 7.12,27.7777778 4.6,27.7777778 L0,27.7777778 L0,41.2698413 L3.2,41.2698413 L3.2,36.9047619 L4.6,36.9047619 Z M3.2,30.952381 L4.6,30.952381 C5.36,30.952381 6,31.5873016 6,32.3412698 C6,33.0952381 5.36,33.7301587 4.6,33.7301587 L3.2,33.7301587 L3.2,30.952381 Z" id="Shape"></path>
                    <polygon id="Path" points="33.6 30.952381 33.6 27.7777778 25.6 27.7777778 25.6 41.2698413 28.8 41.2698413 28.8 36.9047619 31.2 36.9047619 31.2 33.7301587 28.8 33.7301587 28.8 30.952381"></polygon>
                    <path d="M22.4,34.5238095 C22.4,30.7936508 19.36,27.7777778 15.6,27.7777778 L12.4,27.7777778 L12.4,41.2698413 L15.6,41.2698413 C19.36,41.2698413 22.4,38.2539683 22.4,34.5238095 Z M15.6,38.0952381 L15.6,30.952381 C17.6,30.952381 19.2,32.5396825 19.2,34.5238095 C19.2,36.5079365 17.6,38.0952381 15.6,38.0952381 Z" id="Shape"></path>
                </g>
            </g>
        </g>
    </g>
</svg>