<svg xmlns="http://www.w3.org/2000/svg" viewBox="0 0 264 16" width="264" height="16">
	<style>
		tspan { white-space:pre }
		.shp0 { fill: #f25b3e } 
		.shp1 { opacity: 0.4;fill: #274c95 } 
	</style>
	<path id="&lt;Path&gt;" class="shp0" d="M263.81 14.63C262.31 14.63 261.68 13.39 261.08 12.19C260.64 11.3 260.08 10.21 259.36 10.21C258.63 10.21 258.08 11.3 257.64 12.19C257.03 13.39 256.41 14.63 254.91 14.63C253.41 14.63 252.78 13.39 252.18 12.19C251.74 11.3 251.19 10.21 250.46 10.21C249.73 10.21 249.18 11.3 248.74 12.19C248.13 13.39 247.51 14.63 246.01 14.63C244.51 14.63 243.89 13.39 243.28 12.19C242.84 11.3 242.29 10.21 241.56 10.21C240.84 10.21 240.29 11.3 239.84 12.19C239.24 13.39 238.62 14.63 237.12 14.63C235.62 14.63 234.99 13.39 234.39 12.19C233.95 11.3 233.39 10.21 232.67 10.21C231.94 10.21 231.39 11.3 230.95 12.19C230.34 13.39 229.72 14.63 228.22 14.63C226.72 14.63 226.1 13.39 225.5 12.19C225.05 11.3 224.5 10.21 223.77 10.21C223.05 10.21 222.5 11.3 222.05 12.19C221.45 13.39 220.83 14.63 219.33 14.63C217.83 14.63 217.2 13.39 216.6 12.19C216.16 11.3 215.6 10.21 214.88 10.21C214.15 10.21 213.6 11.3 213.16 12.19C212.56 13.39 211.93 14.63 210.43 14.63C208.93 14.63 208.31 13.39 207.71 12.19C207.26 11.3 206.71 10.21 205.99 10.21C205.26 10.21 204.71 11.3 204.27 12.19C203.66 13.39 203.04 14.63 201.54 14.63C200.04 14.63 199.42 13.39 198.81 12.19C198.37 11.3 197.82 10.21 197.09 10.21C196.37 10.21 195.82 11.3 195.37 12.19C194.77 13.39 194.15 14.63 192.65 14.63C191.15 14.63 190.52 13.39 189.92 12.19C189.48 11.3 188.93 10.21 188.2 10.21C187.48 10.21 186.92 11.3 186.48 12.19C185.88 13.39 185.25 14.63 183.76 14.63C182.26 14.63 181.63 13.39 181.03 12.19C180.59 11.3 180.03 10.21 179.31 10.21L179.31 9.54C180.81 9.54 181.43 10.78 182.04 11.99C182.48 12.87 183.03 13.97 183.76 13.97C184.48 13.97 185.03 12.87 185.48 11.99C186.08 10.78 186.7 9.54 188.2 9.54C189.7 9.54 190.32 10.78 190.93 11.99C191.37 12.87 191.92 13.97 192.65 13.97C193.37 13.97 193.92 12.87 194.37 11.99C194.97 10.78 195.59 9.54 197.09 9.54C198.59 9.54 199.22 10.78 199.82 11.99C200.26 12.87 200.81 13.97 201.54 13.97C202.26 13.97 202.82 12.87 203.26 11.99C203.86 10.78 204.49 9.54 205.99 9.54C207.48 9.54 208.11 10.78 208.71 11.99C209.16 12.87 209.71 13.97 210.43 13.97C211.16 13.97 211.71 12.87 212.15 11.99C212.76 10.78 213.38 9.54 214.88 9.54C216.38 9.54 217 10.78 217.61 11.99C218.05 12.87 218.6 13.97 219.33 13.97C220.05 13.97 220.6 12.87 221.05 11.99C221.65 10.78 222.28 9.54 223.77 9.54C225.27 9.54 225.9 10.78 226.5 11.99C226.94 12.87 227.5 13.97 228.22 13.97C228.95 13.97 229.5 12.87 229.94 11.99C230.55 10.78 231.17 9.54 232.67 9.54C234.17 9.54 234.79 10.78 235.4 11.99C235.84 12.87 236.39 13.97 237.12 13.97C237.84 13.97 238.39 12.87 238.84 11.99C239.44 10.78 240.07 9.54 241.56 9.54C243.06 9.54 243.69 10.78 244.29 11.99C244.73 12.87 245.29 13.97 246.01 13.97C246.74 13.97 247.29 12.87 247.73 11.99C248.34 10.78 248.96 9.54 250.46 9.54C251.96 9.54 252.58 10.78 253.19 11.99C253.63 12.87 254.18 13.97 254.91 13.97C255.63 13.97 256.19 12.87 256.63 11.99C257.23 10.78 257.86 9.54 259.36 9.54C260.86 9.54 261.48 10.78 262.09 11.99C262.53 12.87 263.08 13.97 263.81 13.97L263.81 14.63Z" />
	<path id="&lt;Path&gt;" class="shp1" d="M14.33 15.28L0 15.28L0 0.94L14.33 0.94L14.33 15.28Z" />
</svg>