<svg xmlns="http://www.w3.org/2000/svg" viewBox="0 0 51 43" width="51" height="43">
	<style>
		tspan { white-space:pre }
		.shp0 { fill: #cad5ec } 
		.shp1 { fill: #f25b3e } 
		.shp2 { fill: #2866b2 } 
	</style>
	<g id="&lt;Group&gt;">
		<g id="&lt;Group&gt;" style="opacity: 0.341">
			<path id="&lt;Path&gt;" class="shp0" d="M21.49 -0.06C33.23 -0.06 42.75 9.46 42.75 21.2C42.75 23.46 42.39 25.65 41.74 27.7L50.23 40.01L38.07 34.5C34.17 39.35 28.2 42.46 21.49 42.46C9.75 42.46 0.23 32.94 0.23 21.2C0.23 9.46 9.75 -0.06 21.49 -0.06Z" />
		</g>
		<g id="&lt;Group&gt;">
			<g id="&lt;Group&gt;">
				<g id="&lt;Group&gt;">
					<g id="&lt;Group&gt;">
						<g id="&lt;Group&gt;">
							<path id="&lt;Compound Path&gt;" fill-rule="evenodd" class="shp1" d="M19.01 20.19C18.56 20.19 18.19 19.82 18.19 19.37C18.19 18.92 18.56 18.56 19.01 18.56C19.46 18.56 19.82 18.92 19.82 19.37C19.82 19.82 19.46 20.19 19.01 20.19ZM19.01 19.33C18.98 19.33 18.96 19.35 18.96 19.37C18.96 19.42 19.05 19.42 19.05 19.37C19.05 19.35 19.03 19.33 19.01 19.33Z" />
						</g>
					</g>
				</g>
				<g id="&lt;Group&gt;">
					<g id="&lt;Group&gt;">
						<g id="&lt;Group&gt;">
							<path id="&lt;Compound Path&gt;" fill-rule="evenodd" class="shp1" d="M22.9 20.19C22.45 20.19 22.09 19.82 22.09 19.37C22.09 18.92 22.45 18.56 22.9 18.56C23.35 18.56 23.72 18.92 23.72 19.37C23.72 19.82 23.35 20.19 22.9 20.19ZM22.9 19.33C22.88 19.33 22.86 19.35 22.86 19.37C22.86 19.42 22.95 19.42 22.95 19.37C22.95 19.35 22.93 19.33 22.9 19.33Z" />
						</g>
					</g>
				</g>
				<g id="&lt;Group&gt;">
					<g id="&lt;Group&gt;">
						<g id="&lt;Group&gt;">
							<path id="&lt;Compound Path&gt;" fill-rule="evenodd" class="shp1" d="M26.8 20.19C26.35 20.19 25.98 19.82 25.98 19.37C25.98 18.92 26.35 18.56 26.8 18.56C27.25 18.56 27.62 18.92 27.62 19.37C27.62 19.82 27.25 20.19 26.8 20.19ZM26.8 19.33C26.78 19.33 26.75 19.35 26.75 19.37C26.75 19.42 26.85 19.42 26.85 19.37C26.85 19.35 26.83 19.33 26.8 19.33Z" />
						</g>
					</g>
				</g>
			</g>
			<g id="&lt;Group&gt;">
				<path id="&lt;Compound Path&gt;" fill-rule="evenodd" class="shp2" d="M16.48 34.16L16.48 27.55L15.54 27.55C13.76 27.55 12.3 26.1 12.3 24.32L12.3 14.48C12.3 12.7 13.76 11.25 15.54 11.25L30.27 11.25C32.06 11.25 33.51 12.7 33.51 14.48L33.51 24.32C33.51 26.1 32.06 27.55 30.27 27.55L22.17 27.55L16.48 34.16ZM15.54 12.11C14.23 12.11 13.17 13.17 13.17 14.48L13.17 24.32C13.17 25.63 14.23 26.69 15.54 26.69L17.34 26.69L17.34 31.83L21.77 26.69L30.27 26.69C31.58 26.69 32.65 25.63 32.65 24.32L32.65 14.48C32.65 13.17 31.58 12.11 30.27 12.11L15.54 12.11Z" />
			</g>
		</g>
	</g>
</svg>