<svg xmlns="http://www.w3.org/2000/svg" viewBox="0 0 38 45" width="38" height="45">
	<style>
		tspan { white-space:pre }
		.shp0 { fill: #3b6ab0 } 
		.shp1 { fill: #fcfcfc } 
		.shp2 { fill: #f9fafb } 
		.shp3 { fill: #f7776a } 
		.shp4 { fill: #fbfdfd } 
		.shp5 { fill: #fafcfc } 
		.shp6 { fill: #fcfefe } 
		.shp7 { fill: #f5faf9 } 
		.shp8 { fill: #5a84a2 } 
		.shp9 { fill: #dce5f3 } 
		.shp10 { fill: #4d7899 } 
	</style>
	<g id="&lt;Group&gt;">
		<path id="&lt;Path&gt;" class="shp0" d="M19.33 18.05C19.08 17.86 19.3 17.52 19.09 17.33C19.17 17.06 19.24 16.79 19.32 16.53C19.37 16.64 19.42 16.75 19.47 16.86C19.35 17.24 19.29 17.64 19.33 18.05Z" />
		<g id="&lt;Group&gt;">
			<path id="&lt;Path&gt;" class="shp0" d="M35.73 36.93C35.21 37.62 35.27 38.01 35.95 38.49C36.17 38.65 36.39 38.81 36.57 39C36.71 39.14 37.05 39.21 36.9 39.48C36.79 39.68 36.5 39.59 36.29 39.57C36 39.54 35.72 39.42 35.43 39.38C34.65 39.28 34.25 39.74 34.49 40.48C34.71 41.17 34.98 41.84 35.25 42.56C34.9 42.64 34.76 42.33 34.56 42.16C34.29 41.92 34.02 41.67 33.74 41.43C33.43 41.15 33.14 40.99 32.71 41.29C32.27 41.59 32.42 41.89 32.56 42.24C32.49 42.3 32.43 42.29 32.37 42.24C31.77 41.62 30.76 41.94 30.47 42.85C30.28 43.45 30.12 44.06 29.92 44.77C29.6 44.21 29.47 43.72 29.39 43.22C29.3 42.65 29.02 42.3 28.43 42.37C28.01 42.42 27.48 41.79 27.16 42.54C27.09 42.6 27.01 42.59 26.95 42.52C27.04 42.28 27.14 42.05 26.81 41.91C26.3 41.7 25.78 41.51 25.27 41.87C24.91 42.11 24.57 42.39 24.03 42.52C24.2 42.07 24.32 41.66 24.5 41.28C24.75 40.76 24.52 40.39 24.21 40.01C23.9 39.65 23.54 39.8 23.19 39.91C22.62 40.1 22.06 40.3 21.3 40.56C21.71 40.02 22.16 40.05 22.51 39.89C22.97 39.68 23.53 39.61 23.51 38.9C23.49 38.17 22.96 38.08 22.42 37.96C21.77 37.81 21.13 37.63 20.37 37.44C20.87 37.07 21.35 37.01 21.8 36.88C22.72 36.61 23.25 35.65 22.98 34.76C22.94 34.61 22.83 34.52 22.69 34.45C21.96 34.1 21.63 33.32 20.88 32.92C21.32 32.61 21.61 32.91 21.91 32.96C22.22 33.02 22.52 33.16 22.83 33.23C23.23 33.33 23.53 33.14 23.77 32.82C24.13 32.36 23.83 32 23.63 31.62L23.63 31.6C24.55 31.95 25.45 31.1 25.34 29.97C25.3 29.59 25.17 29.21 25.06 28.83C25 28.58 24.92 28.33 25.04 27.93C25.48 28.47 25.85 28.94 26.25 29.4C26.57 29.76 26.88 30.24 27.47 29.91C28.01 29.6 27.72 29.09 27.67 28.65C27.65 28.47 27.47 28.31 27.61 28.07C27.98 28.25 27.92 28.6 28 28.88C28.1 29.21 27.82 29.77 28.48 29.74C29.08 29.72 29.63 29.57 29.7 28.83C29.77 28.17 30.12 27.6 30.42 26.98C30.48 27.6 30.55 28.22 30.6 28.83C30.64 29.29 30.78 29.7 31.16 29.99C31.84 30.53 32.3 30.38 32.49 29.53C32.55 29.27 32.54 28.98 33.02 28.95C32.92 29.24 32.83 29.5 32.73 29.75C32.59 30.14 32.39 30.54 32.87 30.86C33.31 31.16 33.67 31.07 34.05 30.72C34.41 30.39 34.83 30.13 35.31 29.77C35.22 30.44 34.89 30.91 34.69 31.42C34.33 32.33 34.52 32.85 35.43 33.22C35.66 33.31 35.76 33.33 35.63 33.6C35.38 34.13 35.71 34.25 36.15 34.25C36.79 34.25 37.42 34.25 38.12 34.41C37.55 34.67 36.97 34.92 36.4 35.19C35.67 35.54 35.57 35.83 35.86 36.66C35.95 36.82 35.8 36.86 35.73 36.93Z" />
			<path id="&lt;Path&gt;" class="shp0" d="M35.73 36.93C35.77 36.84 35.82 36.75 35.86 36.66C36.34 36.66 36.81 36.66 37.28 36.66C36.8 37.1 36.24 36.87 35.73 36.93Z" />
			<path id="&lt;Path&gt;" class="shp0" d="M23.63 31.6L23.63 31.62C23.15 31.53 23.01 31.05 22.69 30.77C23.2 30.82 23.47 31.15 23.63 31.6Z" />
			<path id="&lt;Path&gt;" class="shp0" d="M32.37 42.24C32.43 42.24 32.5 42.24 32.56 42.24C32.68 42.44 32.92 42.55 32.96 42.85C32.5 42.87 32.45 42.54 32.37 42.24Z" />
			<path id="&lt;Path&gt;" class="shp0" d="M26.95 42.52C27.02 42.53 27.09 42.54 27.16 42.54C27.13 42.78 27.06 43 26.8 43.09C26.68 42.85 26.79 42.68 26.95 42.52Z" />
			<path id="&lt;Path&gt;" class="shp1" d="M29.67 40C28.09 40.02 27.16 39.14 26.3 38.18C26.2 38.07 26.13 37.92 26.26 37.78C26.43 37.59 26.58 37.72 26.7 37.82C28.15 38.99 29.67 38.72 31.22 38.08C31.5 37.96 31.83 37.71 32.09 38.02C32.38 38.36 32.17 38.72 31.94 39.02C31.33 39.83 30.42 39.92 29.67 40Z" />
			<path id="&lt;Path&gt;" class="shp1" d="M27.44 36.35C26.46 36.33 25.42 34.73 25.79 33.92C25.92 33.64 26.11 33.64 26.33 33.77C27 34.13 27.56 34.64 28.11 35.17C28.34 35.38 28.31 35.65 28.16 35.91C27.99 36.2 27.74 36.38 27.44 36.35Z" />
			<path id="&lt;Path&gt;" class="shp2" d="M33 34.9C33.09 35.65 32.59 35.97 32.02 36.25C31.47 36.51 31.16 36.14 30.83 35.81C30.53 35.51 30.56 35.26 30.94 35.06C31.43 34.8 31.93 34.54 32.35 34.17C32.76 33.82 32.96 33.99 33 34.46C33.02 34.61 33 34.75 33 34.9Z" />
		</g>
		<g id="&lt;Group&gt;">
			<g id="&lt;Group&gt;">
				<path id="&lt;Path&gt;" class="shp3" d="M2.44 19.9C3.1 20.24 3.62 20.56 4.09 20.95C4.49 21.28 4.88 21.28 5.31 21.01C5.74 20.74 5.66 20.36 5.55 19.97C5.41 19.47 5.22 18.99 5.36 18.34C5.72 18.77 6.11 19.11 6.35 19.54C6.82 20.37 7.46 20.13 8.14 19.96C8.83 19.78 8.7 19.24 8.71 18.77C8.73 17.94 8.73 17.11 9.06 16.27C9.31 17.25 9.58 18.22 9.8 19.2C9.95 19.91 10.41 20.23 11.06 20.35C11.61 20.46 12.07 20.34 12.45 19.88C12.89 19.34 13.28 18.74 14.02 18.3C13.98 19.12 13.9 19.83 13.7 20.52C13.32 21.87 14.03 22.95 15.44 23.05C16.31 23.11 17.2 23.06 18.19 23.06C17.64 23.69 16.97 23.93 16.34 24.2C15.74 24.44 15.54 24.85 15.54 25.45C15.54 25.94 15.55 26.42 15.38 26.9C15.24 27.29 15.44 27.54 15.78 27.74C16.28 28.03 16.88 28.16 17.31 28.6C16.96 28.82 16.64 28.82 16.28 28.72C15.5 28.5 14.98 28.77 14.47 29.44C13.83 30.29 13.81 30.98 14.48 31.78C14.8 32.18 15.01 32.66 15.27 33.11C15.34 33.23 15.46 33.38 15.33 33.5C15.15 33.67 15.04 33.48 14.91 33.38C14.51 33.04 14.11 32.72 13.71 32.4C12.75 31.64 11.72 31.86 10.7 32.23C10.36 32.35 10.46 32.68 10.52 32.93C10.69 33.6 10.88 34.26 11.04 34.93C11.1 35.14 11.18 35.44 10.92 35.51C10.61 35.59 10.66 35.24 10.61 35.06C10.41 34.4 10.23 33.74 10.03 33.08C9.89 32.61 9.59 32.37 9.07 32.32C8.54 32.28 8.33 32.52 8.14 32.95C7.91 33.49 7.64 34.01 7.53 34.6C7.49 34.86 7.38 35.1 7.02 35.41C7.23 34.32 6.75 33.45 6.91 32.52C6.93 32.42 6.94 32.31 6.9 32.23C6.72 31.82 5.11 31.33 4.73 31.59C4.29 31.89 3.8 32.12 3.4 32.5C3.19 32.71 2.95 32.88 2.58 32.89C2.59 32.34 3.01 32.05 3.29 31.67C4.08 30.61 3.75 29.04 2.6 28.71C2.03 28.55 1.51 28.28 0.95 28.14C0.61 28.05 0.31 27.9 -0.1 27.61C0.62 27.44 1.21 27.3 1.81 27.16C2.2 27.07 2.7 27.14 2.79 26.58C2.89 25.97 2.82 25.42 2.25 25.01C1.44 24.43 0.67 23.81 -0.09 23.14C0.73 23.02 1.45 23.33 2.19 23.52C2.6 23.63 3 23.82 3.35 23.44C3.68 23.09 3.47 22.69 3.35 22.33C3.08 21.57 2.78 20.82 2.44 19.9Z" />
			</g>
			<path id="&lt;Path&gt;" class="shp4" d="M6.79 27.66C6.74 27.94 6.72 28.33 6.77 28.72C6.8 28.9 6.78 29.07 6.59 29.16C6.41 29.24 6.23 29.19 6.11 29.06C5.3 28.21 4.67 27.27 4.69 26.03C4.69 25.85 4.78 25.61 4.97 25.74C5.5 26.12 6.2 26.24 6.61 26.79C6.78 27.01 6.83 27.28 6.79 27.66Z" />
			<path id="&lt;Path&gt;" class="shp5" d="M10.33 29.01C10.15 29.4 10.16 29.94 9.52 29.94C9.07 29.94 8.52 30.13 8.21 29.74C7.92 29.38 8.27 28.95 8.39 28.57C8.44 28.4 8.51 28.25 8.58 28.09C8.98 27.08 9.1 27.03 10.05 27.49C10.17 27.59 10.18 27.72 10.17 27.86C10.17 27.93 10.17 28.01 10.15 28.08C10.07 28.3 10.17 28.4 10.39 28.42C10.51 28.63 10.53 28.83 10.33 29.01Z" />
			<path id="&lt;Path&gt;" class="shp6" d="M10.33 29.01C10.33 28.79 10.41 28.56 10.22 28.38C10.06 28.26 10.06 28.08 10.05 27.91C10.05 27.77 10.05 27.63 10.05 27.49C10.33 26.81 11.01 26.91 11.54 26.75C11.86 26.65 12.32 26.34 12.55 26.63C12.79 26.95 12.42 27.35 12.26 27.7C12.01 28.25 11.6 28.67 11.17 29.07C10.87 29.35 10.58 29.43 10.33 29.01Z" />
			<path id="&lt;Path&gt;" class="shp4" d="M6.76 25.37C6.14 25.33 5.62 25.15 5.41 24.52C5.23 24 5.28 23.51 5.73 23.12C6.02 22.86 6.27 22.8 6.5 23.19C6.77 23.65 7.07 24.09 7.53 24.41C7.72 24.54 7.77 24.72 7.67 24.92C7.48 25.29 7.12 25.36 6.76 25.37Z" />
			<path id="&lt;Path&gt;" class="shp5" d="M10.97 25.69C10.66 25.69 10.4 25.59 10.18 25.37C9.67 24.86 9.73 24.61 10.4 24.37C10.95 24.17 11.49 23.94 12.03 23.7C12.56 23.47 12.74 23.59 12.69 24.16C12.62 24.97 11.8 25.7 10.97 25.69Z" />
			<path id="&lt;Path&gt;" class="shp7" d="M7.1 27.9C7.18 27.58 6.93 27.2 7.28 26.99C7.61 26.8 7.95 26.97 8.26 27.11C8.48 27.21 8.58 27.36 8.45 27.63C8.22 28.12 8.04 28.62 7.85 29.13C7.79 29.3 7.7 29.44 7.49 29.41C7.28 29.38 7.24 29.21 7.22 29.03C7.18 28.65 7.14 28.26 7.1 27.9Z" />
		</g>
		<g id="&lt;Group&gt;">
			<path id="&lt;Path&gt;" class="shp0" d="M15.71 13.63C15.72 13.59 15.73 13.54 15.74 13.5C15.9 13.07 16.63 13.03 16.56 12.54C16.46 11.82 16.03 11.18 15.88 10.45C15.82 10.13 15.29 10.2 14.87 9.92C15.81 10.09 15.93 9.62 15.99 8.96C16.04 8.32 16.42 7.76 16.78 7.24C17.11 6.77 17.06 6.39 16.65 6.02C16.01 5.44 15.4 4.83 14.59 4.5C14.2 4.34 13.87 4.09 14.05 3.6C14.18 3.23 14.51 3.11 14.89 3.17C15.33 3.24 15.76 3.37 15.67 3.94C15.49 5.12 16.61 5.38 17.15 6.04C17.34 6.27 17.68 6.02 17.84 5.8C18.34 5.14 19.04 4.8 19.79 4.56C20.38 4.37 20.46 4.02 20.25 3.49C19.98 2.8 19.88 2.04 19.15 1.58C18.85 1.39 18.76 0.95 19.09 0.6C19.34 0.33 19.64 0.14 19.99 0.39C20.32 0.64 20.61 0.89 20.36 1.43C19.88 2.48 20.59 4.02 21.67 4.39C22.59 4.7 23.53 4.85 24.59 4.34C24.18 5.05 24.56 5.31 25.02 5.64C25.47 5.96 25.82 6.43 26.19 6.86C26.48 7.2 26.82 7.39 27.28 7.25C27.43 7.18 27.47 7.26 27.45 7.39C26.9 7.51 26.73 7.77 27.01 8.32C27.39 9.08 27.33 9.89 27.13 10.7C27 11.21 26.69 11.7 26.99 12.25C27.05 12.37 26.99 12.45 26.88 12.45C26.34 12.44 26.25 12.91 26 13.22C25.77 13.5 25.52 13.79 25.23 14.01C24.12 14.88 24.12 14.87 23.97 16.12C23.95 16.13 23.92 16.14 23.9 16.13C23.59 15.86 23.89 15.2 23.36 15.12C22.99 15.07 22.59 15.22 22.21 15.29C21.72 15.38 21.23 15.4 20.75 15.27C20.18 15.12 19.91 15.39 19.82 15.89C19.76 16.24 19.61 16.54 19.47 16.86C19.19 16.85 19.3 16.67 19.32 16.53C19.34 16.04 19.83 15.58 19.63 15.13C19.43 14.72 18.79 14.83 18.4 14.57C18.04 14.32 17.65 14.11 17.38 13.74C16.84 12.98 16.74 12.97 16.01 13.54C15.94 13.6 15.86 13.63 15.78 13.67C15.76 13.66 15.73 13.65 15.71 13.63Z" />
			<path id="&lt;Path&gt;" class="shp0" d="M28.06 13.17C28.32 13.23 28.48 13.09 28.61 12.9C29 12.36 29.37 12.58 29.7 12.94C30.17 13.46 29.83 13.95 29.59 14.43C29.42 14.75 29.2 15.03 28.78 14.93C28.25 14.8 28.03 14.44 28.04 13.9C28.04 13.71 27.95 13.52 27.9 13.33C27.86 13.19 27.91 13.13 28.06 13.17Z" />
			<path id="&lt;Path&gt;" class="shp0" d="M28.64 6.83C28.92 6.6 29.19 6.34 29.54 6.21C29.93 6.07 30.36 5.98 30.59 6.39C30.82 6.81 30.98 7.3 30.61 7.76C30.41 8 30.13 8.11 29.82 8.07C29.49 8.03 29.3 7.78 29.26 7.48C29.21 7.08 29.06 6.89 28.65 7.01C28.61 6.97 28.6 6.93 28.61 6.89C28.62 6.85 28.63 6.83 28.64 6.83Z" />
			<path id="&lt;Path&gt;" class="shp0" d="M25.39 3.44C25.48 3.09 25.43 2.78 25.24 2.48C24.95 2.02 25.16 1.63 25.56 1.43C26.06 1.18 26.48 1.37 26.81 1.85C27.08 2.27 27.11 2.63 26.67 2.91C26.32 3.13 25.93 3.29 25.56 3.47C25.49 3.51 25.44 3.5 25.39 3.44Z" />
			<path id="&lt;Path&gt;" class="shp0" d="M14.18 9.65C13.74 9.61 13.3 9.54 12.87 9.71C12.55 9.84 12.3 9.75 12.1 9.49C11.89 9.2 11.7 8.91 11.94 8.55C12.12 8.27 12.3 7.94 12.69 7.93C13.01 7.92 13.26 8.06 13.3 8.42C13.38 8.95 13.68 9.31 14.17 9.51C14.22 9.54 14.23 9.57 14.22 9.6C14.21 9.63 14.19 9.65 14.18 9.65Z" />
			<path id="&lt;Path&gt;" class="shp0" d="M24.03 16.24C24.22 16.91 24.45 17.43 25.2 17.59C25.51 17.66 25.6 17.99 25.45 18.31C25.25 18.73 24.95 18.99 24.47 18.92C24.06 18.87 23.74 18.56 23.81 18.19C23.93 17.55 24 16.93 24.03 16.24Z" />
			<path id="&lt;Path&gt;" class="shp0" d="M19.33 18.05C19.61 18.47 19.49 18.77 19.05 18.98C18.65 19.16 18.38 18.99 18.19 18.66C17.95 18.24 18.17 17.98 18.55 17.8C18.77 17.69 18.95 17.54 19.09 17.33C19.46 17.47 19.14 17.84 19.33 18.05Z" />
			<path id="&lt;Path&gt;" class="shp0" d="M15.71 13.63C15.74 13.63 15.76 13.65 15.78 13.67C15.55 14.07 15.21 14.38 15.11 14.86C15.05 15.17 14.74 15.31 14.4 15.21C14.11 15.12 13.97 14.91 14.02 14.59C14.07 14.27 14.19 14 14.58 14.05C15.04 14.12 15.35 13.81 15.71 13.63Z" />
			<path id="&lt;Path&gt;" class="shp0" d="M28.64 6.83C28.64 6.89 28.65 6.95 28.65 7.01C28.28 7.22 27.86 7.3 27.45 7.39C27.39 7.35 27.34 7.3 27.28 7.25C27.73 7.11 28.19 6.97 28.64 6.83Z" />
			<path id="&lt;Path&gt;" class="shp8" d="M28.06 13.17C28 13.22 27.95 13.28 27.9 13.33C27.65 13.12 27.4 12.9 27.03 12.59C27.6 12.61 27.82 12.9 28.06 13.17Z" />
			<path id="&lt;Path&gt;" class="shp9" d="M25.39 3.44C25.45 3.45 25.5 3.46 25.56 3.47C25.32 3.72 25.09 3.97 24.86 4.22C24.91 3.84 25.12 3.61 25.39 3.44Z" />
			<path id="&lt;Path&gt;" class="shp10" d="M14.18 9.65C14.17 9.6 14.17 9.56 14.17 9.51C14.39 9.56 14.62 9.57 14.88 9.86C14.55 9.83 14.34 9.85 14.18 9.65Z" />
			<path id="&lt;Path&gt;" class="shp4" d="M17.99 8.1C17.98 7.68 18.11 7.33 18.49 7.09C18.78 6.91 19.01 6.89 19.2 7.26C19.44 7.72 19.77 8.11 20.17 8.44C20.56 8.75 20.49 9.05 20.11 9.25C19.64 9.5 19.11 9.54 18.63 9.26C18.19 9.01 17.98 8.61 17.99 8.1Z" />
			<path id="&lt;Path&gt;" class="shp5" d="M25.39 8.06C25.38 8.76 24.8 9.43 24.06 9.67C23.46 9.87 23 9.7 22.64 9.2C22.39 8.85 22.37 8.58 22.89 8.49C23.57 8.36 24.18 8.04 24.78 7.7C25.23 7.45 25.43 7.58 25.39 8.06Z" />
		</g>
	</g>
</svg>