<svg xmlns="http://www.w3.org/2000/svg" viewBox="0 0 30 30" width="30" height="30">
	<style>
		tspan { white-space:pre }
		.shp0 { fill: none;stroke: #ffffff;stroke-width: 0.75 } 
		.shp1 { fill: #ffffff } 
	</style>
	<g id="&lt;Group&gt;">
		<path id="Blue 1 " class="shp0" d="M27.29 28.92C28.13 28.92 28.81 28.24 28.81 27.4L28.81 2.91C28.81 2.07 28.13 1.39 27.29 1.39L2.8 1.39C1.96 1.39 1.28 2.07 1.28 2.91L1.28 27.4C1.28 28.24 1.96 28.92 2.8 28.92L27.29 28.92Z" />
		<path id="f 1 " class="shp1" d="M20.27 28.92L20.27 18.26L23.85 18.26L24.39 14.1L20.27 14.1L20.27 11.45C20.27 10.25 20.61 9.43 22.33 9.43L24.53 9.43L24.53 5.71C24.15 5.66 22.85 5.55 21.33 5.55C18.15 5.55 15.98 7.48 15.98 11.04L15.98 14.1L12.4 14.1L12.4 18.26L15.98 18.26L15.98 28.92L20.27 28.92Z" />
	</g>
</svg>