<svg xmlns="http://www.w3.org/2000/svg" viewBox="0 0 23 24" width="23" height="24">
	<defs>
		<linearGradient id="grd1" gradientUnits="userSpaceOnUse"  x1="0.033" y1="-0.463" x2="22.721" y2="-0.463">
			<stop offset="0.857" stop-color="#57cada"  />
			<stop offset="1" stop-color="#5ad1e4"  />
		</linearGradient>
	</defs>
	<style>
		tspan { white-space:pre }
		.shp0 { fill: url(#grd1) } 
		.shp1 { fill: #46a8dc } 
		.shp2 { fill: #fefefe } 
		.shp3 { fill: #f7776a } 
	</style>
	<g id="&lt;Group&gt;">
		<path id="&lt;Path&gt;" class="shp0" d="M22.72 12.34C22.72 12.67 22.69 13 22.65 13.34C22.53 14.25 22.31 15.13 21.98 15.99C21.48 17.29 20.76 18.47 19.82 19.51C18.43 21.05 16.74 22.13 14.76 22.76C13.95 23.02 13.12 23.18 12.27 23.24C10.39 23.38 8.59 23.09 6.86 22.35C6.8 22.32 6.75 22.32 6.68 22.34C4.94 22.81 3.2 23.28 1.46 23.75C1.05 23.86 0.68 23.77 0.38 23.48C0.07 23.17 -0.02 22.8 0.09 22.38C0.52 20.76 0.95 19.15 1.39 17.53C1.41 17.45 1.4 17.39 1.36 17.31C0.74 16.17 0.33 14.95 0.13 13.66C-0.02 12.71 -0.05 11.76 0.05 10.81C0.27 8.54 1.1 6.51 2.54 4.74C4.25 2.65 6.43 1.33 9.07 0.77C9.88 0.59 10.69 0.52 11.51 0.54C14.11 0.58 16.44 1.4 18.47 3.03C20.49 4.65 21.81 6.74 22.43 9.26C22.58 9.88 22.67 10.51 22.71 11.15C22.72 11.25 22.73 11.36 22.72 11.46C22.7 11.56 22.72 11.66 22.72 11.75C22.73 11.92 22.72 12.09 22.72 12.25C22.71 12.28 22.71 12.31 22.72 12.34Z" />
		<path id="&lt;Path&gt;" class="shp1" d="M22.72 12.34C22.7 12.32 22.71 12.3 22.71 12.28C22.71 12.03 22.71 11.77 22.71 11.52C22.71 11.5 22.7 11.48 22.72 11.46C22.74 11.75 22.74 12.05 22.72 12.34Z" />
		<path id="&lt;Path&gt;" class="shp2" d="M2.34 21.5C2.37 21.35 2.41 21.22 2.44 21.09C2.77 19.87 3.09 18.65 3.42 17.43C3.48 17.22 3.44 17.03 3.33 16.84C2.79 15.97 2.4 15.02 2.17 14.02C1.99 13.23 1.9 12.43 1.94 11.62C2.05 8.97 3.07 6.74 5.01 4.95C6.35 3.71 7.93 2.94 9.72 2.62C10.42 2.49 11.12 2.45 11.83 2.49C13.98 2.6 15.89 3.35 17.52 4.76C19.08 6.11 20.1 7.8 20.57 9.82C20.76 10.66 20.83 11.52 20.78 12.38C20.65 14.72 19.78 16.75 18.15 18.44C16.81 19.84 15.18 20.74 13.28 21.14C12.55 21.3 11.81 21.36 11.07 21.33C9.72 21.29 8.44 20.98 7.23 20.38C7.05 20.3 6.87 20.28 6.68 20.33C5.26 20.71 3.85 21.1 2.43 21.48C2.41 21.48 2.38 21.49 2.34 21.5Z" />
		<g id="&lt;Group&gt;">
			<path id="&lt;Path&gt;" class="shp3" d="M11.3 14.72C10.99 14.72 10.69 14.72 10.39 14.72C10.35 14.72 10.31 14.73 10.31 14.67C10.3 14.21 10.29 13.76 10.38 13.31C10.49 12.77 10.75 12.32 11.12 11.93C11.45 11.58 11.82 11.28 12.19 10.98C12.42 10.78 12.65 10.59 12.87 10.37C13.49 9.77 13.46 8.84 12.81 8.28C12.51 8.01 12.15 7.88 11.75 7.84C11.33 7.8 10.93 7.83 10.54 8C10.03 8.22 9.7 8.6 9.49 9.1C9.41 9.28 9.35 9.47 9.3 9.67C9.29 9.72 9.28 9.74 9.22 9.73C8.6 9.65 7.98 9.57 7.35 9.5C7.29 9.49 7.29 9.47 7.29 9.41C7.39 7.91 8.6 6.63 10.14 6.29C11.16 6.07 12.17 6.11 13.16 6.45C13.98 6.74 14.62 7.27 15.06 8.02C15.63 8.99 15.61 10.22 14.73 11.2C14.27 11.71 13.75 12.16 13.22 12.61C13.05 12.75 12.88 12.92 12.72 13.08C12.45 13.35 12.33 13.67 12.31 14.04C12.29 14.24 12.29 14.44 12.29 14.64C12.29 14.7 12.27 14.72 12.21 14.72C11.91 14.72 11.6 14.72 11.3 14.72Z" />
		</g>
		<g id="&lt;Group&gt;">
			<path id="&lt;Path&gt;" class="shp3" d="M11.41 17.65C11.07 17.65 10.73 17.65 10.39 17.65C10.32 17.65 10.31 17.63 10.31 17.57C10.31 16.9 10.31 16.22 10.31 15.55C10.31 15.49 10.32 15.47 10.39 15.47C11.06 15.47 11.74 15.47 12.42 15.47C12.47 15.47 12.49 15.49 12.49 15.54C12.49 16.22 12.49 16.9 12.49 17.57C12.49 17.64 12.47 17.65 12.41 17.65C12.07 17.65 11.74 17.65 11.41 17.65Z" />
		</g>
	</g>
</svg>