<svg xmlns="http://www.w3.org/2000/svg" viewBox="0 0 21 23" width="21" height="23">
	<style>
		tspan { white-space:pre }
		.shp0 { fill: #f86047 } 
	</style>
	<path id="&lt;Compound Path&gt;" fill-rule="evenodd" class="shp0" d="M19.36 16.34C19.67 16.7 19.87 17.17 19.87 17.69C19.87 18.58 19.32 19.33 18.54 19.64C18.71 19.92 18.81 20.24 18.81 20.59C18.81 21.6 17.99 22.43 16.97 22.43L12.99 22.43C12.98 22.43 12.97 22.42 12.97 22.42C9.73 22.42 7.7 21.69 6.36 21.2C5.85 21.02 5.46 20.88 5.2 20.86L1.1 22.4C1.04 22.42 0.98 22.43 0.92 22.43C0.81 22.43 0.71 22.4 0.62 22.34C0.48 22.24 0.39 22.08 0.39 21.9L0.39 10.32C0.39 10.03 0.63 9.8 0.92 9.8L5.13 9.8C5.31 9.8 5.46 9.9 5.56 10.03C5.76 9.76 5.99 9.42 6.25 8.99C6.45 8.67 6.9 8.19 7.4 7.64C7.96 7.03 8.66 6.28 8.87 5.87C9.37 4.92 10.13 2.36 10.41 1.25C10.47 1.02 10.68 0.85 10.92 0.85L11.44 0.85C13.53 0.85 14.08 3.6 14.08 5.06C14.08 6.15 13.53 7.3 13.08 8.22C12.92 8.56 12.71 9.01 12.63 9.27L18.29 9.27C19.45 9.27 20.39 10.22 20.39 11.38C20.39 12.01 20.11 12.57 19.66 12.96C20.11 13.34 20.39 13.9 20.39 14.53C20.39 15.3 19.97 15.97 19.36 16.34ZM1.44 21.14L4.6 19.96L4.6 10.85L1.44 10.85L1.44 21.14ZM18.81 17.69C18.81 17.11 18.34 16.64 17.76 16.64L16.18 16.64C15.89 16.64 15.66 16.4 15.66 16.11C15.66 15.82 15.89 15.59 16.18 15.59L18.29 15.59C18.87 15.59 19.34 15.12 19.34 14.53C19.34 13.95 18.87 13.48 18.29 13.48L16.18 13.48C15.89 13.48 15.66 13.25 15.66 12.96C15.66 12.66 15.89 12.43 16.18 12.43L18.29 12.43C18.87 12.43 19.34 11.96 19.34 11.38C19.34 10.8 18.87 10.32 18.29 10.32L12.5 10.32C12.02 10.32 11.79 10.11 11.67 9.93C11.35 9.41 11.68 8.72 12.14 7.76C12.53 6.94 13.02 5.91 13.02 5.06C13.02 4.39 12.76 1.9 11.44 1.9L11.33 1.9C11.01 3.09 10.32 5.37 9.81 6.36C9.53 6.89 8.84 7.63 8.18 8.35C7.74 8.82 7.3 9.31 7.15 9.55C6.43 10.7 5.91 11.32 5.66 11.59L5.66 19.87C5.96 19.95 6.3 20.06 6.71 20.21C7.99 20.68 9.92 21.37 12.99 21.37C13 21.37 13.01 21.38 13.02 21.38L16.97 21.38C17.41 21.38 17.76 21.02 17.76 20.59C17.76 20.15 17.41 19.8 16.97 19.8L16.18 19.8C15.89 19.8 15.66 19.56 15.66 19.27C15.66 18.98 15.89 18.75 16.18 18.75L17.76 18.75C18.34 18.75 18.81 18.27 18.81 17.69Z" />
</svg>