<svg xmlns="http://www.w3.org/2000/svg" viewBox="0 0 14 19" width="14" height="19">
	<style>
		tspan { white-space:pre }
		.shp0 { fill: #ffffff } 
	</style>
	<g id="&lt;Group&gt;">
		<path id="&lt;Compound Path&gt;" fill-rule="evenodd" class="shp0" d="M13.23 7.45C13.23 12.37 7.08 18.22 6.82 18.46C6.74 18.53 6.65 18.57 6.56 18.57C6.47 18.57 6.38 18.53 6.31 18.46C6.05 18.22 -0.11 12.37 -0.11 7.45C-0.11 3.77 2.88 0.78 6.56 0.78C10.24 0.78 13.23 3.77 13.23 7.45ZM12.49 7.45C12.49 4.18 9.83 1.52 6.56 1.52C3.29 1.52 0.63 4.18 0.63 7.45C0.63 11.51 5.4 16.51 6.56 17.68C7.73 16.51 12.49 11.51 12.49 7.45Z" />
		<path id="&lt;Compound Path&gt;" fill-rule="evenodd" class="shp0" d="M10.27 7.45C10.27 9.49 8.6 11.15 6.56 11.15C4.52 11.15 2.86 9.49 2.86 7.45C2.86 5.41 4.52 3.74 6.56 3.74C8.6 3.74 10.27 5.41 10.27 7.45ZM9.53 7.45C9.53 5.81 8.2 4.48 6.56 4.48C4.93 4.48 3.6 5.81 3.6 7.45C3.6 9.08 4.93 10.41 6.56 10.41C8.2 10.41 9.53 9.08 9.53 7.45Z" />
	</g>
</svg>