<svg xmlns="http://www.w3.org/2000/svg" viewBox="0 0 114 96" width="114" height="96">
	<defs>
		<linearGradient id="grd1" gradientUnits="userSpaceOnUse"  x1="74.028" y1="4.872" x2="55.485" y2="4.872">
			<stop offset="0" stop-color="#ff828f"  />
			<stop offset="1" stop-color="#ffd5a8"  />
		</linearGradient>
		<linearGradient id="grd2" gradientUnits="userSpaceOnUse"  x1="46.609" y1="61.342" x2="28.98" y2="61.342">
			<stop offset="0" stop-color="#ff828f"  />
			<stop offset="1" stop-color="#ffd5a8"  />
		</linearGradient>
		<linearGradient id="grd3" gradientUnits="userSpaceOnUse"  x1="24.249" y1="49.313" x2="18.187" y2="49.313">
			<stop offset="0" stop-color="#ff828f"  />
			<stop offset="1" stop-color="#ffd5a8"  />
		</linearGradient>
		<linearGradient id="grd4" gradientUnits="userSpaceOnUse"  x1="59.859" y1="24.02" x2="54.284" y2="24.02">
			<stop offset="0.095" stop-color="#ff8d92"  />
			<stop offset="1" stop-color="#ff8790"  />
		</linearGradient>
		<linearGradient id="grd5" gradientUnits="userSpaceOnUse"  x1="67.462" y1="25.03" x2="54.981" y2="25.03">
			<stop offset="0.095" stop-color="#ff8d92"  />
			<stop offset="1" stop-color="#ff8790"  />
		</linearGradient>
		<linearGradient id="grd6" gradientUnits="userSpaceOnUse"  x1="55.607" y1="13.534" x2="52.075" y2="13.534">
			<stop offset="0.095" stop-color="#ff8d92"  />
			<stop offset="1" stop-color="#ff8790"  />
		</linearGradient>
	</defs>
	<style>
		tspan { white-space:pre }
		.shp0 { fill: #f25b3e } 
		.shp1 { fill: #274c95 } 
		.shp2 { fill: #98e2ed } 
		.shp3 { fill: #fffefe } 
		.shp4 { fill: url(#grd1) } 
		.shp5 { fill: #1b2641 } 
		.shp6 { fill: #5a8cba } 
		.shp7 { fill: url(#grd2) } 
		.shp8 { fill: url(#grd3) } 
		.shp9 { fill: none;stroke: #aadef4;stroke-width: 0.5 } 
		.shp10 { fill: none;stroke: #1b2641;stroke-width: 0.5 } 
		.shp11 { fill: url(#grd4) } 
		.shp12 { fill: url(#grd5) } 
		.shp13 { fill: #fc6fb4 } 
		.shp14 { fill: none;stroke: #1e243f;stroke-width: 0.5 } 
		.shp15 { fill: #1e243f } 
		.shp16 { fill: url(#grd6) } 
		.shp17 { fill: none;stroke: #274c95;stroke-width: 0.5 } 
		.shp18 { fill: none;stroke: #80c8eb;stroke-width: 0.5 } 
		.shp19 { opacity: 0.439;fill: none;stroke: #fc6fb4;stroke-width: 0.75 } 
	</style>
	<g id="Folder 1">
		<g id="&lt;Group&gt;" style="opacity: 0.18">
			<path id="&lt;Path&gt;" class="shp0" d="M-0.07 92.53L17.44 69.58C16.33 65.62 15.73 52.94 15.73 48.62C15.73 23.21 36.33 2.62 61.73 2.62C87.14 2.62 107.74 23.21 107.74 48.62C107.74 74.03 87.14 94.62 61.73 94.62C49.23 94.62 37.9 89.63 29.61 81.54C23.15 83.94 0.37 92.39 -0.07 92.53Z" />
		</g>
		<path id="&lt;Path&gt;" class="shp1" d="M85.03 45.07C84.37 16.17 79.28 1.25 69.77 0.3C65.86 -0.23 63.35 0.3 62.24 1.88C49.73 -3.09 43.35 9.82 43.13 40.63L85.03 45.07Z" />
		<path id="&lt;Path&gt;" class="shp2" d="M68.52 37.93C76.88 40.05 82.39 42.43 85.03 45.07C89 49.04 95.27 83.5 91.26 91.75C69.33 93.55 52.33 91.54 40.26 85.72C38.46 64.34 37.61 52.48 37.72 50.15C37.82 47.83 39.36 44.81 42.32 41.1C48.14 37.08 56.88 36.02 68.52 37.93Z" />
		<g id="&lt;Group&gt;">
			<path id="&lt;Path&gt;" class="shp3" d="M66.77 34.28L73.13 38.88C60.11 57.62 51.74 67.99 48.04 70C44.76 59.95 44.76 49.57 48.04 38.88L55.69 34.28L66.77 34.28Z" />
		</g>
		<path id="&lt;Path&gt;" class="shp4" d="M66.64 34.35L68.7 24.86C71.63 24.36 73.42 23.02 74.06 20.81C75.02 17.5 74.27 17.33 71.53 17.28C65.28 17.18 60.58 3.47 57.74 6.16C54.89 8.85 43.16 24.11 56.14 31.79L52.62 46.03L66.64 34.35Z" />
		<g id="&lt;Group&gt;">
			<path id="&lt;Path&gt;" class="shp5" d="M76.84 68.6C76.84 70.29 78.2 71.65 79.89 71.65C81.57 71.65 82.93 70.29 82.93 68.6C82.93 66.92 81.57 65.56 79.89 65.56C78.2 65.56 76.84 66.92 76.84 68.6Z" />
		</g>
		<g id="&lt;Group&gt;">
			<path id="&lt;Path&gt;" class="shp5" d="M59.2 64.65C59.2 66.34 60.56 67.7 62.24 67.7C63.93 67.7 65.29 66.34 65.29 64.65C65.29 62.97 63.93 61.61 62.24 61.61C60.56 61.61 59.2 62.97 59.2 64.65Z" />
		</g>
		<path id="&lt;Path&gt;" class="shp6" d="M38.14 40.15L16.55 48.2L30.73 83.23L45.85 77.83L45.85 70.64L38.14 40.15Z" />
		<path id="&lt;Path&gt;" class="shp7" d="M46.61 70.8C46.29 70.32 41.45 63.6 38.41 62.39C37.1 61.87 37.51 63.25 39.62 66.54C32.32 66.24 28.72 66.93 28.83 68.6C28.98 71.11 31.52 76.04 33.27 76.35C35.02 76.67 43.89 76.83 45.49 75.56L46.61 70.8Z" />
		<path id="&lt;Path&gt;" class="shp8" d="M18.19 57.3L23.11 50.31C25.86 58.04 26.39 63.12 24.7 65.56L20.09 66.83L18.19 57.3Z" />
		<g id="&lt;Group&gt;">
			<path id="&lt;Path&gt;" class="shp9" d="M70.74 42.26C62.83 50.66 58 55.22 56.24 55.92L51.51 47.24L45.97 51.9" />
		</g>
		<g id="&lt;Group&gt;">
			<path id="&lt;Path&gt;" class="shp9" d="M52.08 57.02C52.08 57.46 52.44 57.83 52.89 57.83C53.34 57.83 53.7 57.46 53.7 57.02C53.7 56.57 53.34 56.2 52.89 56.2C52.44 56.2 52.08 56.57 52.08 57.02Z" />
		</g>
		<g id="&lt;Group&gt;">
			<path id="&lt;Path&gt;" class="shp9" d="M50.7 63.12C50.7 63.57 51.06 63.93 51.51 63.93C51.96 63.93 52.32 63.57 52.32 63.12C52.32 62.67 51.96 62.3 51.51 62.3C51.06 62.3 50.7 62.67 50.7 63.12Z" />
		</g>
		<g id="&lt;Group&gt;">
			<path id="&lt;Path&gt;" class="shp9" d="M47.77 66.09L51.51 47.24" />
		</g>
		<g id="&lt;Group&gt;">
			<path id="&lt;Path&gt;" class="shp10" d="M80.48 65.56C82.39 54.26 80.52 48.77 74.87 49.09C66.4 49.57 64.13 57.91 63.42 61.84" />
		</g>
		<path id="&lt;Path&gt;" class="shp11" d="M60.26 24.91C56.78 24.5 54.64 24.87 53.84 26.03C52.64 27.77 55.5 29.46 58.68 27.87C60.79 26.81 61.32 25.83 60.26 24.91Z" />
		<path id="&lt;Path&gt;" class="shp12" d="M67.46 26.03C63.3 30.29 59.7 32.25 56.67 31.89L54.98 37.37C59.84 37.33 64 33.55 67.46 26.03Z" />
		<path id="&lt;Path&gt;" class="shp13" d="M69.77 21.7C69.83 19.55 70.71 18.44 72.42 18.36C74.98 18.24 72.12 18.66 71.59 19.3C71.06 19.93 72.77 19.06 72.18 19.66C71.59 20.25 70.17 20.28 69.77 21.7Z" />
		<g id="&lt;Group&gt;">
			<path id="&lt;Path&gt;" class="shp14" d="M56.47 15.64C56.47 17.66 58.11 19.29 60.12 19.29C62.14 19.29 63.78 17.66 63.78 15.64C63.78 13.63 62.14 11.99 60.12 11.99C58.11 11.99 56.47 13.63 56.47 15.64Z" />
		</g>
		<g id="&lt;Group&gt;">
			<path id="&lt;Path&gt;" class="shp14" d="M47.86 15.64C47.86 17.66 49.49 19.29 51.51 19.29C53.53 19.29 55.16 17.66 55.16 15.64C55.16 13.63 53.53 11.99 51.51 11.99C49.49 11.99 47.86 13.63 47.86 15.64Z" />
		</g>
		<g id="&lt;Group&gt;">
			<path id="&lt;Path&gt;" class="shp14" d="M69.77 18.34L63.78 15.64" />
		</g>
		<path id="&lt;Path&gt;" class="shp15" d="M52.16 15.49C52.16 16.17 52.49 16.72 52.89 16.72C53.29 16.72 53.61 16.17 53.61 15.49C53.61 14.82 53.29 14.27 52.89 14.27C52.49 14.27 52.16 14.82 52.16 15.49Z" />
		<path id="&lt;Path&gt;" class="shp15" d="M59.4 15.64C59.4 16.32 59.72 16.87 60.12 16.87C60.52 16.87 60.85 16.32 60.85 15.64C60.85 14.96 60.52 14.41 60.12 14.41C59.72 14.41 59.4 14.96 59.4 15.64Z" />
		<g id="&lt;Group&gt;">
			<path id="&lt;Path&gt;" class="shp14" d="M62.21 23.53C60.6 26.21 57.5 27.25 52.89 26.65" />
		</g>
		<path id="&lt;Path&gt;" class="shp16" d="M55.61 14.53L52.08 21.7L55.61 21.41L55.61 14.53Z" />
		<path id="&lt;Path&gt;" class="shp17" d="M87.89 42.26C84.93 25 82.09 14.46 79.37 10.64" />
		<path id="&lt;Path&gt;" class="shp17" d="M40.68 37.16C41.76 28.45 43.46 21.64 45.78 16.72" />
		<g id="&lt;Group&gt;">
			<path id="&lt;Path&gt;" class="shp10" d="M75.61 48.94C75.53 43.79 75.1 40.71 74.33 39.68" />
		</g>
		<g id="&lt;Group&gt;">
			<path id="&lt;Path&gt;" class="shp18" d="M72.18 74.55C71.51 66.33 77.17 53.15 77.37 52.45" />
		</g>
		<g id="&lt;Group&gt;">
			<path id="&lt;Path&gt;" class="shp18" d="M80.95 79.11C80.38 79.11 74.15 73.04 47.14 71.65C45.49 71.57 45.58 83.34 45.49 85.56C54.47 89.02 60.04 90.71 62.21 90.64" />
		</g>
		<g id="&lt;Group&gt;">
			<path id="&lt;Path&gt;" class="shp18" d="M65.29 70.64C65.24 70.85 58.89 74.3 54.34 68.6" />
		</g>
		<g id="&lt;Group&gt;">
			<path id="&lt;Path&gt;" class="shp19" d="M37.72 69.44L28.95 69.44" />
			<path id="&lt;Path&gt;" class="shp19" d="M36.45 71.86L29.75 71.86" />
			<path id="&lt;Path&gt;" class="shp19" d="M38.25 74.02L31.2 74.02" />
			<path id="&lt;Path&gt;" class="shp19" d="M20.89 57.83L24.31 54.28" />
			<path id="&lt;Path&gt;" class="shp19" d="M21.86 60.37L25.29 58.98" />
		</g>
		<g id="&lt;Group&gt;">
			<path id="&lt;Path&gt;" class="shp10" d="M31.79 42.26C32.06 41 31.86 40.14 31.2 39.68C30.5 39.2 25.75 40.65 22.94 41.56C21.89 41.91 21.45 43.15 22.04 44.08L23.11 45.75" />
		</g>
		<g id="&lt;Group&gt;">
			<g id="&lt;Group&gt;">
				<path id="&lt;Path&gt;" class="shp10" d="M99.63 88.02C99.63 91.78 102.68 94.83 106.44 94.83C110.2 94.83 113.25 91.78 113.25 88.02C113.25 84.26 110.2 81.21 106.44 81.21C102.68 81.21 99.63 84.26 99.63 88.02Z" />
			</g>
			<path id="&lt;Path&gt;" class="shp6" d="M101.75 86.55L104.97 86.55L104.97 83.33L107.91 83.33L107.91 86.55L111.13 86.55L111.13 89.49L107.91 89.49L107.91 92.72L104.97 92.72L104.97 89.49L101.75 89.49L101.75 86.55Z" />
		</g>
	</g>
</svg>