<svg xmlns="http://www.w3.org/2000/svg" viewBox="0 0 10 10" width="10" height="10">
	<style>
		tspan { white-space:pre }
		.shp0 { fill: none;stroke: #f25b3e;stroke-width: 0.5 } 
	</style>
	<g id="&lt;Group&gt;">
		<path id="&lt;Path&gt;" class="shp0" d="M8.97 8.12L8.8 8.29C8.79 8.3 8.01 9.12 6.7 9.15L6.63 9.15C5.39 9.15 4.1 8.47 2.77 7.13C1.42 5.76 0.74 4.43 0.78 3.17C0.81 1.88 1.6 1.13 1.62 1.12L1.78 0.95C2.19 0.54 2.86 0.54 3.27 0.95L3.99 1.67C4.41 2.08 4.41 2.75 3.99 3.16L3.83 3.32C3.73 3.42 3.62 3.5 3.5 3.55C3.45 3.61 3.4 3.68 3.38 3.78C3.3 4.06 3.41 4.59 4.3 5.47C4.98 6.16 5.59 6.47 6.08 6.39C6.24 6.37 6.36 6.31 6.46 6.24C6.5 6.18 6.54 6.13 6.59 6.08L6.75 5.91C6.95 5.72 7.22 5.61 7.5 5.61C7.78 5.61 8.05 5.72 8.24 5.91L8.97 6.63C9.38 7.05 9.38 7.71 8.97 8.12Z" />
	</g>
</svg>