<svg xmlns="http://www.w3.org/2000/svg" viewBox="0 0 7 10" width="7" height="10">
	<style>
		tspan { white-space:pre }
		.shp0 { fill: #f7776a } 
	</style>
	<path id="?	How common is to have symptoms" class="shp0" d="M4.09 6.38L4.09 6.68L1.71 6.68L1.71 6.35C1.71 5.99 1.78 5.68 1.92 5.4C2.07 5.12 2.37 4.76 2.84 4.33L3.26 3.95C3.51 3.72 3.69 3.5 3.81 3.3C3.93 3.1 3.99 2.9 3.99 2.7C3.99 2.39 3.88 2.15 3.67 1.98C3.46 1.8 3.16 1.71 2.79 1.71C2.43 1.71 2.05 1.79 1.63 1.94C1.22 2.08 0.79 2.3 0.34 2.59L0.34 0.52C0.87 0.34 1.36 0.2 1.8 0.11C2.24 0.02 2.66 -0.02 3.07 -0.02C4.14 -0.02 4.96 0.2 5.52 0.64C6.08 1.07 6.37 1.71 6.37 2.55C6.37 2.98 6.28 3.37 6.11 3.71C5.94 4.05 5.65 4.41 5.23 4.81L4.81 5.18C4.51 5.45 4.32 5.67 4.22 5.84C4.13 6 4.09 6.18 4.09 6.38ZM1.71 10L1.71 7.65L4.09 7.65L4.09 10L1.71 10Z" />
</svg>