<svg xmlns="http://www.w3.org/2000/svg" viewBox="0 0 16 17" width="16" height="17">
	<style>
		tspan { white-space:pre }
		.shp0 { fill: none;stroke: #ffffff } 
	</style>
	<g id="&lt;Group&gt;">
		<path id="&lt;Path&gt;" class="shp0" d="M14.77 14.07L14.49 14.35C14.46 14.38 13.16 15.76 10.92 15.81L10.81 15.81C8.72 15.81 6.52 14.66 4.28 12.39C1.98 10.06 0.84 7.79 0.89 5.66C0.95 3.46 2.29 2.2 2.32 2.17L2.6 1.9C3.29 1.2 4.43 1.2 5.12 1.9L6.35 3.12C7.04 3.82 7.04 4.95 6.35 5.65L6.07 5.92C5.9 6.09 5.71 6.21 5.5 6.3C5.42 6.4 5.34 6.53 5.3 6.69C5.18 7.17 5.35 8.06 6.86 9.57C8.02 10.74 9.04 11.26 9.88 11.13C10.15 11.09 10.36 10.98 10.52 10.87C10.59 10.77 10.66 10.68 10.74 10.6L11.02 10.32C11.36 9.98 11.81 9.8 12.28 9.8C12.76 9.8 13.21 9.98 13.55 10.32L14.77 11.54C15.47 12.24 15.47 13.37 14.77 14.07Z" />
	</g>
</svg>