<svg xmlns="http://www.w3.org/2000/svg" viewBox="0 0 200 175" width="200" height="175">
	<style>
		tspan { white-space:pre }
		.shp0 { opacity: 0.6;fill: #274c95 } 
		.shp1 { fill: none;stroke: #274c95;stroke-width: 0.5 } 
		.shp2 { fill: #a9ddf4 } 
		.shp3 { fill: #f25b3e } 
	</style>
	<path id="&lt;Path&gt;" class="shp0" d="M112 30.94L118 30.94L118 24.94L123.5 24.94L123.5 30.94L129.5 30.94L129.5 36.44L123.5 36.44L123.5 42.44L118 42.44L118 36.44L112 36.44L112 30.94Z" />
	<path id="&lt;Path&gt;" class="shp1" d="M190.75 83.97C190.75 86.41 192.72 88.39 195.16 88.39C197.6 88.39 199.58 86.41 199.58 83.97C199.58 81.53 197.6 79.56 195.16 79.56C192.72 79.56 190.75 81.53 190.75 83.97Z" />
	<path id="&lt;Path&gt;" class="shp1" d="M1.32 5.02C1.32 7.46 3.3 9.44 5.74 9.44C8.18 9.44 10.16 7.46 10.16 5.02C10.16 2.58 8.18 0.61 5.74 0.61C3.3 0.61 1.32 2.58 1.32 5.02Z" />
	<path id="&lt;Path&gt;" class="shp1" d="M76.27 120.33C75.13 119.69 73.8 119.32 72.4 119.32C68 119.32 64.44 122.88 64.44 127.28C64.44 131.67 68 135.23 72.4 135.23C76.79 135.23 80.35 131.67 80.35 127.28C80.35 126.28 80.17 125.32 79.83 124.44" />
	<path id="&lt;Path&gt;" class="shp1" d="M168.47 127.28L168.47 167.44C168.47 170.83 165.69 173.61 162.3 173.61C158.91 173.61 156.13 170.83 156.13 167.44L156.13 128.28" />
	<path id="&lt;Path&gt;" class="shp1" d="M154.3 121.94L169.97 121.94L169.97 127.28L159.3 127.28" />
	<path id="&lt;Path&gt;" class="shp2" d="M166.56 143.78L166.56 168.26C166.56 170.53 164.7 172.39 162.43 172.39C160.16 172.39 158.3 170.53 158.3 168.26L158.3 143.78L166.56 143.78Z" />
	<path id="&lt;Path&gt;" class="shp1" d="M164.3 166.28L164.3 127.28L164.3 166.28Z" />
	<path id="&lt;Path&gt;" class="shp1" d="M193.66 127.28L193.66 167.44C193.66 170.83 190.89 173.61 187.5 173.61L187.5 173.61C184.1 173.61 181.33 170.83 181.33 167.44L181.33 128.28" />
	<path id="&lt;Path&gt;" class="shp1" d="M179.5 121.94L195.16 121.94L195.16 127.28L184.5 127.28" />
	<path id="&lt;Path&gt;" class="shp3" d="M191.75 143.78L191.75 168.26C191.75 170.53 189.89 172.39 187.62 172.39C185.35 172.39 183.5 170.53 183.5 168.26L183.5 143.78L191.75 143.78Z" />
	<path id="&lt;Path&gt;" class="shp1" d="M189.5 166.28L189.5 127.28L189.5 166.28Z" />
</svg>