<svg xmlns="http://www.w3.org/2000/svg" viewBox="0 0 82 18" width="82" height="18">
	<style>
		tspan { white-space:pre }
		.shp0 { fill: #37404e } 
		.shp1 { fill: #274c95 } 
		.shp2 { fill: #f25b3e } 
	</style>
	<g id="&lt;Group&gt;">
		<g id="&lt;Group&gt;">
			<path id="&lt;Compound Path&gt;" class="shp0" d="M20.87 2.93L20.87 11.83L20.09 11.83L14.37 4.61L14.37 11.83L13.43 11.83L13.43 2.93L14.21 2.93L19.94 10.16L19.94 2.93L20.87 2.93Z" />
			<path id="&lt;Compound Path&gt;" class="shp0" d="M23.77 2.93L24.71 2.93L24.71 11.02L29.7 11.02L29.7 11.83L23.77 11.83L23.77 2.93Z" />
			<path id="&lt;Compound Path&gt;" class="shp0" d="M31.26 2.93L32.2 2.93L32.2 11.83L31.26 11.83L31.26 2.93Z" />
			<path id="&lt;Compound Path&gt;" class="shp0" d="M42.54 2.93L42.54 11.83L41.76 11.83L36.04 4.61L36.04 11.83L35.1 11.83L35.1 2.93L35.88 2.93L41.61 10.16L41.61 2.93L42.54 2.93Z" />
			<path id="&lt;Compound Path&gt;" class="shp0" d="M51.73 11.02L51.73 11.83L45.44 11.83L45.44 2.93L51.54 2.93L51.54 3.75L46.38 3.75L46.38 6.91L50.98 6.91L50.98 7.71L46.38 7.71L46.38 11.02L51.73 11.02Z" />
		</g>
		<g id="&lt;Group&gt;">
			<g id="&lt;Group&gt;">
				<path id="&lt;Path&gt;" class="shp1" d="M76.98 4.38C76.42 4.1 75.78 3.96 75.05 3.96L72.62 3.96L72.62 10.81L75.05 10.81C75.78 10.81 76.42 10.67 76.98 10.39C77.54 10.11 77.97 9.71 78.26 9.19C78.56 8.67 78.71 8.07 78.71 7.38C78.71 6.7 78.56 6.1 78.26 5.58C77.97 5.06 77.54 4.66 76.98 4.38Z" />
				<path id="&lt;Compound Path&gt;" fill-rule="evenodd" class="shp1" d="M82.03 3.11L82.03 18.26L78.29 14.63L58.7 14.63C57 14.63 55.62 13.49 55.62 12.07L55.62 3.11C55.62 1.7 57 0.55 58.7 0.55L78.96 0.55C80.65 0.55 82.03 1.7 82.03 3.11ZM68.31 12.38L68.3 2.39L66.77 2.39L62.88 9.01L58.91 2.39L57.38 2.39L57.38 12.38L59.15 12.38L59.15 5.84L62.44 11.24L63.26 11.24L66.54 5.76L66.56 12.38L68.31 12.38ZM80.58 7.38C80.58 6.39 80.36 5.52 79.9 4.76C79.44 4.01 78.8 3.42 77.97 3.01C77.14 2.6 76.2 2.39 75.13 2.39L70.77 2.39L70.77 12.38L75.13 12.38C76.2 12.38 77.14 12.17 77.97 11.76C78.8 11.34 79.44 10.76 79.9 10C80.36 9.25 80.58 8.37 80.58 7.38Z" />
			</g>
		</g>
		<g id="&lt;Group&gt;">
			<g id="&lt;Group&gt;">
				<path id="&lt;Path&gt;" class="shp2" d="M7.63 6.94L6.03 6.94L6.03 5.34L5.14 5.34L5.14 6.94L3.54 6.94L3.54 7.83L5.14 7.83L5.14 9.42L6.03 9.42L6.03 7.83L7.63 7.83L7.63 6.94Z" />
				<path id="&lt;Compound Path&gt;" fill-rule="evenodd" class="shp2" d="M11.2 7.38C11.2 8.41 10.96 9.34 10.47 10.17C9.98 11 9.31 11.65 8.46 12.12C7.61 12.59 6.65 12.82 5.59 12.82C4.53 12.82 3.57 12.59 2.71 12.11C1.85 11.64 1.18 10.99 0.7 10.16C0.21 9.34 -0.03 8.41 -0.03 7.38C-0.03 6.35 0.21 5.43 0.7 4.6C1.18 3.78 1.85 3.13 2.71 2.65C3.57 2.18 4.53 1.94 5.59 1.94C6.65 1.94 7.61 2.18 8.46 2.65C9.31 3.11 9.98 3.76 10.47 4.59C10.96 5.43 11.2 6.35 11.2 7.38ZM8.83 5.49C8.51 4.93 8.07 4.49 7.5 4.17C6.93 3.85 6.3 3.7 5.59 3.7C4.89 3.7 4.25 3.85 3.68 4.17C3.11 4.49 2.66 4.93 2.33 5.49C2 6.06 1.84 6.69 1.84 7.38C1.84 8.08 2 8.71 2.33 9.27C2.66 9.84 3.11 10.28 3.68 10.59C4.25 10.91 4.89 11.07 5.59 11.07C6.3 11.07 6.93 10.91 7.5 10.59C8.07 10.28 8.51 9.84 8.83 9.27C9.16 8.71 9.32 8.08 9.32 7.38C9.32 6.69 9.16 6.06 8.83 5.49Z" />
			</g>
		</g>
	</g>
</svg>