<svg xmlns="http://www.w3.org/2000/svg" viewBox="0 0 18 45" width="18" height="45">
	<defs>
		<linearGradient id="grd1" gradientUnits="userSpaceOnUse"  x1="0.192" y1="3.567" x2="10.868" y2="3.567">
			<stop offset="0" stop-color="#eff4fb"  />
			<stop offset="1" stop-color="#ffffff"  />
		</linearGradient>
		<linearGradient id="grd2" gradientUnits="userSpaceOnUse"  x1="2.765" y1="33.541" x2="9.809" y2="33.541">
			<stop offset="0" stop-color="#eff4fb"  />
			<stop offset="1" stop-color="#ffffff"  />
		</linearGradient>
		<linearGradient id="grd3" gradientUnits="userSpaceOnUse"  x1="13.555" y1="-2.386" x2="32.783" y2="30.917">
			<stop offset="0" stop-color="#e1e6e7"  />
			<stop offset="0.531" stop-color="#a8b4b7"  />
			<stop offset="1" stop-color="#96a5a7"  />
		</linearGradient>
		<linearGradient id="grd4" gradientUnits="userSpaceOnUse"  x1="-0.369" y1="5.583" x2="18.858" y2="38.885">
			<stop offset="0" stop-color="#1d54ac"  />
			<stop offset="0.313" stop-color="#417bc2"  />
			<stop offset="1" stop-color="#1d54ac"  />
		</linearGradient>
		<linearGradient id="grd5" gradientUnits="userSpaceOnUse"  x1="6.469" y1="12.928" x2="8.961" y2="12.928">
			<stop offset="0" stop-color="#1d54ac"  />
			<stop offset="0.313" stop-color="#417bc2"  />
			<stop offset="1" stop-color="#1d54ac"  />
		</linearGradient>
		<linearGradient id="grd6" gradientUnits="userSpaceOnUse"  x1="6.469" y1="14.233" x2="7.774" y2="14.233">
			<stop offset="0" stop-color="#1d54ac"  />
			<stop offset="0.313" stop-color="#417bc2"  />
			<stop offset="1" stop-color="#1d54ac"  />
		</linearGradient>
		<linearGradient id="grd7" gradientUnits="userSpaceOnUse"  x1="6.469" y1="15.539" x2="7.774" y2="15.539">
			<stop offset="0" stop-color="#1d54ac"  />
			<stop offset="0.313" stop-color="#417bc2"  />
			<stop offset="1" stop-color="#1d54ac"  />
		</linearGradient>
		<linearGradient id="grd8" gradientUnits="userSpaceOnUse"  x1="6.468" y1="16.845" x2="7.775" y2="16.845">
			<stop offset="0" stop-color="#1d54ac"  />
			<stop offset="0.313" stop-color="#417bc2"  />
			<stop offset="1" stop-color="#1d54ac"  />
		</linearGradient>
		<linearGradient id="grd9" gradientUnits="userSpaceOnUse"  x1="6.468" y1="18.151" x2="7.774" y2="18.151">
			<stop offset="0" stop-color="#1d54ac"  />
			<stop offset="0.313" stop-color="#417bc2"  />
			<stop offset="1" stop-color="#1d54ac"  />
		</linearGradient>
		<linearGradient id="grd10" gradientUnits="userSpaceOnUse"  x1="6.469" y1="19.457" x2="8.961" y2="19.457">
			<stop offset="0" stop-color="#1d54ac"  />
			<stop offset="0.313" stop-color="#417bc2"  />
			<stop offset="1" stop-color="#1d54ac"  />
		</linearGradient>
		<linearGradient id="grd11" gradientUnits="userSpaceOnUse"  x1="6.468" y1="20.763" x2="7.774" y2="20.763">
			<stop offset="0" stop-color="#1d54ac"  />
			<stop offset="0.313" stop-color="#417bc2"  />
			<stop offset="1" stop-color="#1d54ac"  />
		</linearGradient>
		<linearGradient id="grd12" gradientUnits="userSpaceOnUse"  x1="6.469" y1="22.069" x2="7.774" y2="22.069">
			<stop offset="0" stop-color="#1d54ac"  />
			<stop offset="0.313" stop-color="#417bc2"  />
			<stop offset="1" stop-color="#1d54ac"  />
		</linearGradient>
		<linearGradient id="grd13" gradientUnits="userSpaceOnUse"  x1="6.469" y1="23.374" x2="7.774" y2="23.374">
			<stop offset="0" stop-color="#1d54ac"  />
			<stop offset="0.313" stop-color="#417bc2"  />
			<stop offset="1" stop-color="#1d54ac"  />
		</linearGradient>
		<linearGradient id="grd14" gradientUnits="userSpaceOnUse"  x1="6.468" y1="24.681" x2="7.775" y2="24.681">
			<stop offset="0" stop-color="#1d54ac"  />
			<stop offset="0.313" stop-color="#417bc2"  />
			<stop offset="1" stop-color="#1d54ac"  />
		</linearGradient>
		<linearGradient id="grd15" gradientUnits="userSpaceOnUse"  x1="6.469" y1="25.986" x2="8.96" y2="25.986">
			<stop offset="0" stop-color="#1d54ac"  />
			<stop offset="0.313" stop-color="#417bc2"  />
			<stop offset="1" stop-color="#1d54ac"  />
		</linearGradient>
		<linearGradient id="grd16" gradientUnits="userSpaceOnUse"  x1="2.099" y1="10.404" x2="4.591" y2="10.404">
			<stop offset="0" stop-color="#1d54ac"  />
			<stop offset="0.313" stop-color="#417bc2"  />
			<stop offset="1" stop-color="#1d54ac"  />
		</linearGradient>
		<linearGradient id="grd17" gradientUnits="userSpaceOnUse"  x1="3.285" y1="12.395" x2="4.591" y2="12.395">
			<stop offset="0" stop-color="#1d54ac"  />
			<stop offset="0.313" stop-color="#417bc2"  />
			<stop offset="1" stop-color="#1d54ac"  />
		</linearGradient>
		<linearGradient id="grd18" gradientUnits="userSpaceOnUse"  x1="3.285" y1="13.701" x2="4.591" y2="13.701">
			<stop offset="0" stop-color="#1d54ac"  />
			<stop offset="0.313" stop-color="#417bc2"  />
			<stop offset="1" stop-color="#1d54ac"  />
		</linearGradient>
		<linearGradient id="grd19" gradientUnits="userSpaceOnUse"  x1="3.285" y1="15.007" x2="4.591" y2="15.007">
			<stop offset="0" stop-color="#1d54ac"  />
			<stop offset="0.313" stop-color="#417bc2"  />
			<stop offset="1" stop-color="#1d54ac"  />
		</linearGradient>
		<linearGradient id="grd20" gradientUnits="userSpaceOnUse"  x1="3.285" y1="16.313" x2="4.591" y2="16.313">
			<stop offset="0" stop-color="#1d54ac"  />
			<stop offset="0.313" stop-color="#417bc2"  />
			<stop offset="1" stop-color="#1d54ac"  />
		</linearGradient>
		<linearGradient id="grd21" gradientUnits="userSpaceOnUse"  x1="2.099" y1="16.933" x2="4.591" y2="16.933">
			<stop offset="0" stop-color="#1d54ac"  />
			<stop offset="0.313" stop-color="#417bc2"  />
			<stop offset="1" stop-color="#1d54ac"  />
		</linearGradient>
		<linearGradient id="grd22" gradientUnits="userSpaceOnUse"  x1="3.285" y1="18.925" x2="4.591" y2="18.925">
			<stop offset="0" stop-color="#1d54ac"  />
			<stop offset="0.313" stop-color="#417bc2"  />
			<stop offset="1" stop-color="#1d54ac"  />
		</linearGradient>
		<linearGradient id="grd23" gradientUnits="userSpaceOnUse"  x1="3.285" y1="20.23" x2="4.591" y2="20.23">
			<stop offset="0" stop-color="#1d54ac"  />
			<stop offset="0.313" stop-color="#417bc2"  />
			<stop offset="1" stop-color="#1d54ac"  />
		</linearGradient>
		<linearGradient id="grd24" gradientUnits="userSpaceOnUse"  x1="3.285" y1="21.536" x2="4.591" y2="21.536">
			<stop offset="0" stop-color="#1d54ac"  />
			<stop offset="0.313" stop-color="#417bc2"  />
			<stop offset="1" stop-color="#1d54ac"  />
		</linearGradient>
		<linearGradient id="grd25" gradientUnits="userSpaceOnUse"  x1="3.285" y1="22.842" x2="4.591" y2="22.842">
			<stop offset="0" stop-color="#1d54ac"  />
			<stop offset="0.313" stop-color="#417bc2"  />
			<stop offset="1" stop-color="#1d54ac"  />
		</linearGradient>
		<linearGradient id="grd26" gradientUnits="userSpaceOnUse"  x1="2.099" y1="23.464" x2="4.591" y2="23.464">
			<stop offset="0" stop-color="#1d54ac"  />
			<stop offset="0.313" stop-color="#417bc2"  />
			<stop offset="1" stop-color="#1d54ac"  />
		</linearGradient>
	</defs>
	<style>
		tspan { white-space:pre }
		.shp0 { fill: url(#grd1) } 
		.shp1 { fill: url(#grd2) } 
		.shp2 { fill: url(#grd3) } 
		.shp3 { fill: url(#grd4) } 
		.shp4 { fill: #ff3a21 } 
		.shp5 { fill: #fa481d } 
		.shp6 { fill: url(#grd5) } 
		.shp7 { fill: url(#grd6) } 
		.shp8 { fill: url(#grd7) } 
		.shp9 { fill: url(#grd8) } 
		.shp10 { fill: url(#grd9) } 
		.shp11 { fill: url(#grd10) } 
		.shp12 { fill: url(#grd11) } 
		.shp13 { fill: url(#grd12) } 
		.shp14 { fill: url(#grd13) } 
		.shp15 { fill: url(#grd14) } 
		.shp16 { fill: url(#grd15) } 
		.shp17 { fill: url(#grd16) } 
		.shp18 { fill: url(#grd17) } 
		.shp19 { fill: url(#grd18) } 
		.shp20 { fill: url(#grd19) } 
		.shp21 { fill: url(#grd20) } 
		.shp22 { fill: url(#grd21) } 
		.shp23 { fill: url(#grd22) } 
		.shp24 { fill: url(#grd23) } 
		.shp25 { fill: url(#grd24) } 
		.shp26 { fill: url(#grd25) } 
		.shp27 { fill: url(#grd26) } 
	</style>
	<path id="&lt;Path&gt;" class="shp0" d="M10.87 32.59C10.87 29.31 10.87 22.72 10.87 12.82C10.87 10.96 9.54 8.66 7.92 7.73L3.14 4.96C2.33 4.5 1.59 4.45 1.06 4.76C0.52 5.07 0.19 5.73 0.19 6.66C0.19 16.73 0.19 23.32 0.19 26.42C0.19 28.68 1.65 31.51 2.76 34.53L9.81 38.11C10.28 35.8 10.87 33.92 10.87 32.59Z" />
	<path id="&lt;Path&gt;" class="shp1" d="M2.76 34.53C3.44 36.38 3.99 38.3 3.99 40.21C3.99 41.84 5.17 43.84 6.61 44.68C7.35 45.1 8.01 45.15 8.49 44.87C8.95 44.6 9.24 44.04 9.24 43.24C9.24 41.35 9.5 39.64 9.81 38.11L2.76 34.53Z" />
	<path id="&lt;Path&gt;" class="shp2" d="M17.82 8.81C17.82 6.94 16.5 4.64 14.88 3.71L10.09 0.94C9.28 0.48 8.55 0.43 8.01 0.74L1.06 4.76C1.59 4.45 2.33 4.5 3.14 4.96L7.92 7.73C9.54 8.66 10.87 10.96 10.87 12.82C10.87 22.72 10.87 29.31 10.87 32.59C10.87 33.94 10.26 35.85 9.79 38.19L15.63 35.29C16.74 33.13 17.82 31.28 17.82 28.57C17.82 25.29 17.82 18.71 17.82 8.81Z" />
	<path id="&lt;Path&gt;" class="shp3" d="M9.24 43.24C9.24 44.04 8.95 44.6 8.49 44.87L12.91 42.24C13.37 41.97 13.5 41.39 13.65 40.6C14.08 38.42 14.86 36.78 15.63 35.29L9.79 38.19C9.49 39.7 9.24 41.39 9.24 43.24Z" />
	<path id="&lt;Path&gt;" class="shp4" d="M5.87 25.92L5.19 25.53L5.19 28.04L5.87 28.43L5.87 25.92Z" />
	<path id="&lt;Compound Path&gt;" fill-rule="evenodd" class="shp5" d="M5.53 28.37C5.27 28.23 5.07 27.87 5.07 27.58L5.07 12.09C5.07 11.79 5.28 11.67 5.53 11.82C5.78 11.97 5.99 12.32 5.99 12.62L5.99 28.11C5.99 28.4 5.78 28.52 5.53 28.37ZM5.53 12.1C5.41 12.03 5.31 12.09 5.31 12.23L5.31 27.72C5.31 27.85 5.41 28.02 5.53 28.09C5.65 28.16 5.75 28.11 5.75 27.97L5.75 12.48C5.75 12.34 5.65 12.17 5.53 12.1Z" />
	<path id="&lt;Path&gt;" class="shp6" d="M8.96 15.9L6.47 14.46L6.47 13.93L8.96 15.37L8.96 15.9Z" />
	<path id="&lt;Path&gt;" class="shp7" d="M7.77 16.52L6.47 15.76L6.47 15.23L7.77 15.99L7.77 16.52Z" />
	<path id="&lt;Path&gt;" class="shp8" d="M7.77 17.82L6.47 17.07L6.47 16.54L7.77 17.29L7.77 17.82Z" />
	<path id="&lt;Path&gt;" class="shp9" d="M7.77 19.13L6.47 18.37L6.47 17.84L7.77 18.6L7.77 19.13Z" />
	<path id="&lt;Path&gt;" class="shp10" d="M7.77 20.43L6.47 19.68L6.47 19.15L7.77 19.9L7.77 20.43Z" />
	<path id="&lt;Path&gt;" class="shp11" d="M8.96 22.43L6.47 20.99L6.47 20.46L8.96 21.89L8.96 22.43Z" />
	<path id="&lt;Path&gt;" class="shp12" d="M7.77 23.05L6.47 22.29L6.47 21.76L7.77 22.52L7.77 23.05Z" />
	<path id="&lt;Path&gt;" class="shp13" d="M7.77 24.35L6.47 23.6L6.47 23.07L7.77 23.82L7.77 24.35Z" />
	<path id="&lt;Path&gt;" class="shp14" d="M7.77 25.66L6.47 24.9L6.47 24.37L7.77 25.13L7.77 25.66Z" />
	<path id="&lt;Path&gt;" class="shp15" d="M7.77 26.96L6.47 26.21L6.47 25.68L7.77 26.43L7.77 26.96Z" />
	<path id="&lt;Path&gt;" class="shp16" d="M8.96 28.95L6.47 27.52L6.47 26.99L8.96 28.43L8.96 28.95Z" />
	<path id="&lt;Path&gt;" class="shp17" d="M2.1 11.93L4.59 13.37L4.59 12.84L2.1 11.4L2.1 11.93Z" />
	<path id="&lt;Path&gt;" class="shp18" d="M3.29 13.92L4.59 14.68L4.59 14.15L3.29 13.39L3.29 13.92Z" />
	<path id="&lt;Path&gt;" class="shp19" d="M3.29 15.23L4.59 15.98L4.59 15.46L3.28 14.7L3.29 15.23Z" />
	<path id="&lt;Path&gt;" class="shp20" d="M3.29 16.54L4.59 17.29L4.59 16.76L3.29 16.01L3.29 16.54Z" />
	<path id="&lt;Path&gt;" class="shp21" d="M3.29 17.84L4.59 18.6L4.59 18.07L3.29 17.31L3.29 17.84Z" />
	<path id="&lt;Path&gt;" class="shp22" d="M2.1 18.46L4.59 19.9L4.59 19.37L2.1 17.93L2.1 18.46Z" />
	<path id="&lt;Path&gt;" class="shp23" d="M3.28 20.45L4.59 21.21L4.59 20.68L3.28 19.93L3.28 20.45Z" />
	<path id="&lt;Path&gt;" class="shp24" d="M3.29 21.76L4.59 22.51L4.59 21.98L3.29 21.23L3.29 21.76Z" />
	<path id="&lt;Path&gt;" class="shp25" d="M3.28 23.07L4.59 23.82L4.59 23.29L3.28 22.54L3.28 23.07Z" />
	<path id="&lt;Path&gt;" class="shp26" d="M3.29 24.37L4.59 25.13L4.59 24.6L3.29 23.84L3.29 24.37Z" />
	<path id="&lt;Path&gt;" class="shp27" d="M2.1 24.99L4.59 26.43L4.59 25.9L2.1 24.46L2.1 24.99Z" />
</svg>