<svg xmlns="http://www.w3.org/2000/svg" viewBox="0 0 22 21" width="22" height="21">
	<defs>
		<linearGradient id="grd1" gradientUnits="userSpaceOnUse"  x1="0.176" y1="-0.511" x2="21.755" y2="-0.511">
			<stop offset="0" stop-color="#ff9941"  />
			<stop offset="1" stop-color="#ff4223"  />
		</linearGradient>
	</defs>
	<style>
		tspan { white-space:pre }
		.shp0 { opacity: 0.631;fill: url(#grd1) } 
	</style>
	<path id="&lt;Path&gt;" class="shp0" d="M15.94 12.12C15.75 12.02 15.53 12.07 15.33 12.06C11.01 12.06 6.69 12.06 2.37 12.06C2.12 12.06 1.87 12.07 1.62 12.04C0.8 11.94 0.18 11.23 0.17 10.41C0.17 9.56 0.82 8.84 1.67 8.76C1.88 8.74 2.1 8.75 2.31 8.75C6.65 8.75 10.98 8.75 15.32 8.75C15.53 8.75 15.73 8.75 15.98 8.75C15.89 8.45 15.7 8.33 15.56 8.19C13.97 6.6 12.39 5.01 10.79 3.43C10.37 3 10.13 2.52 10.21 1.92C10.38 0.64 11.83 0.03 12.86 0.81C12.97 0.89 13.07 0.99 13.16 1.09C15.83 3.76 18.5 6.43 21.17 9.09C21.51 9.43 21.75 9.81 21.78 10.31C21.8 10.87 21.58 11.31 21.19 11.7C19.87 13.01 18.56 14.33 17.24 15.65C15.87 17.02 14.5 18.38 13.13 19.75C12.7 20.19 12.19 20.43 11.56 20.31C10.32 20.09 9.77 18.65 10.55 17.66C10.67 17.51 10.81 17.37 10.95 17.24C12.51 15.67 14.07 14.11 15.63 12.55C15.75 12.43 15.91 12.34 15.94 12.12Z" />
</svg>