<svg xmlns="http://www.w3.org/2000/svg" viewBox="0 0 56 55" width="56" height="55">
	<defs>
		<linearGradient id="grd1" gradientUnits="userSpaceOnUse"  x1="1.714" y1="39.298" x2="57.141" y2="-3.606">
			<stop offset="0.054" stop-color="#313639"  />
			<stop offset="1" stop-color="#ffffff"  />
		</linearGradient>
		<linearGradient id="grd2" gradientUnits="userSpaceOnUse"  x1="1.626" y1="-0.434" x2="33.794" y2="-0.434">
			<stop offset="0" stop-color="#417bc2"  />
			<stop offset="0.639" stop-color="#5ad1e4"  />
			<stop offset="1" stop-color="#417bc2"  />
		</linearGradient>
		<linearGradient id="grd3" gradientUnits="userSpaceOnUse"  x1="6.299" y1="21.611" x2="19.734" y2="21.611">
			<stop offset="0" stop-color="#1d54ac"  />
			<stop offset="0.313" stop-color="#417bc2"  />
			<stop offset="1" stop-color="#1d54ac"  />
		</linearGradient>
		<linearGradient id="grd4" gradientUnits="userSpaceOnUse"  x1="6.299" y1="25.62" x2="19.734" y2="25.62">
			<stop offset="0" stop-color="#1d54ac"  />
			<stop offset="0.313" stop-color="#417bc2"  />
			<stop offset="1" stop-color="#1d54ac"  />
		</linearGradient>
		<linearGradient id="grd5" gradientUnits="userSpaceOnUse"  x1="6.299" y1="29.63" x2="19.734" y2="29.63">
			<stop offset="0" stop-color="#1d54ac"  />
			<stop offset="0.313" stop-color="#417bc2"  />
			<stop offset="1" stop-color="#1d54ac"  />
		</linearGradient>
		<linearGradient id="grd6" gradientUnits="userSpaceOnUse"  x1="6.294" y1="33.594" x2="16.436" y2="33.594">
			<stop offset="0" stop-color="#1d54ac"  />
			<stop offset="0.313" stop-color="#417bc2"  />
			<stop offset="1" stop-color="#1d54ac"  />
		</linearGradient>
	</defs>
	<style>
		tspan { white-space:pre }
		.shp0 { opacity: 0.169;mix-blend-mode: multiply;fill: url(#grd1) } 
		.shp1 { fill: url(#grd2) } 
		.shp2 { fill: #5ad1e4 } 
		.shp3 { fill: #ffffff } 
		.shp4 { fill: #dee4e5 } 
		.shp5 { fill: url(#grd3) } 
		.shp6 { fill: url(#grd4) } 
		.shp7 { fill: url(#grd5) } 
		.shp8 { fill: url(#grd6) } 
		.shp9 { fill: #ff5529 } 
		.shp10 { fill: #e0341b } 
		.shp11 { fill: #ff682c } 
	</style>
	<g id="&lt;Group&gt;" style="mix-blend-mode: multiply">
		<path id="&lt;Path&gt;" class="shp0" d="M33.1 50.54C31.86 52.21 30.47 53.47 29.23 54.14C28 54.82 26.91 54.92 26.26 54.27L18.15 46.08C16.87 44.78 17.84 40.98 20.31 37.64L39.95 11.06C41.19 9.39 42.58 8.13 43.82 7.45C45.06 6.78 46.14 6.68 46.79 7.33L54.9 15.52C56.19 16.81 55.21 20.61 52.74 23.96L33.1 50.54Z" />
		<path id="&lt;Path&gt;" class="shp1" d="M28.45 12.02L9.86 1.29C8.39 0.44 7.05 0.36 6.08 0.92L1.63 3.49C2.6 2.93 3.93 3.01 5.4 3.86L23.99 14.59C26.93 16.29 29.34 20.46 29.34 23.85L29.34 50.81C29.34 52.51 28.74 53.71 27.77 54.27L32.22 51.69C33.19 51.13 33.79 49.94 33.79 48.24L33.79 21.28C33.79 17.88 31.39 13.72 28.45 12.02Z" />
		<path id="&lt;Path&gt;" class="shp2" d="M29.34 50.81C29.34 52.51 28.74 53.71 27.77 54.27C26.8 54.82 25.46 54.75 23.99 53.9L5.4 43.17C2.46 41.47 0.06 37.3 0.06 33.9L0.06 6.95C0.06 5.25 0.66 4.05 1.63 3.49C2.6 2.93 3.93 3.01 5.4 3.86L23.99 14.59C26.93 16.29 29.34 20.46 29.34 23.85L29.34 50.81Z" />
		<g id="&lt;Group&gt;">
			<path id="&lt;Path&gt;" class="shp3" d="M6.33 38.93C5.02 38.17 3.95 36.33 3.95 34.81L3.95 14.49C3.95 13.74 4.22 13.2 4.65 12.95C5.08 12.71 5.67 12.74 6.33 13.12L22.87 22.67C24.18 23.42 25.24 25.27 25.24 26.79L25.24 47.1C25.24 47.86 24.98 48.39 24.55 48.64C24.12 48.89 23.52 48.86 22.87 48.48L6.33 38.93Z" />
			<path id="&lt;Path&gt;" class="shp4" d="M22.87 22.67L6.33 13.12C5.67 12.74 5.08 12.7 4.65 12.95L3.06 13.87C3.5 13.62 4.09 13.66 4.75 14.03L21.28 23.58C22.59 24.34 23.66 26.19 23.66 27.7L23.66 48.02C23.66 48.78 23.39 49.31 22.96 49.56L24.55 48.64C24.98 48.39 25.24 47.86 25.24 47.1L25.24 26.79C25.24 25.27 24.18 23.42 22.87 22.67Z" />
			<path id="&lt;Path&gt;" class="shp3" d="M4.75 39.85C3.43 39.09 2.37 37.24 2.37 35.73L2.37 15.41C2.37 14.65 2.63 14.12 3.06 13.87C3.5 13.62 4.09 13.66 4.75 14.03L21.28 23.58C22.59 24.34 23.66 26.19 23.66 27.7L23.66 48.02C23.66 48.78 23.39 49.31 22.96 49.56C22.53 49.81 21.94 49.77 21.28 49.39L4.75 39.85Z" />
		</g>
		<g id="&lt;Group&gt;">
			<path id="&lt;Path&gt;" class="shp5" d="M19.73 31.91L6.3 24.15L6.3 22.61L19.73 30.37L19.73 31.91Z" />
			<path id="&lt;Path&gt;" class="shp6" d="M19.73 35.92L6.3 28.16L6.3 26.62L19.73 34.38L19.73 35.92Z" />
			<path id="&lt;Path&gt;" class="shp7" d="M19.73 39.93L6.3 32.17L6.3 30.63L19.73 38.39L19.73 39.93Z" />
			<path id="&lt;Path&gt;" class="shp8" d="M16.43 42.06L6.29 36.13L6.3 34.59L16.44 40.53L16.43 42.06Z" />
		</g>
		<g id="&lt;Group&gt;">
			<g id="&lt;Group&gt;">
				<path id="&lt;Path&gt;" class="shp9" d="M6.33 18.79L4.27 17.6L4.27 13.75L6.33 14.94L6.33 18.79Z" />
				<g id="&lt;Group&gt;">
					<path id="&lt;Path&gt;" class="shp10" d="M8.07 17.77L8.07 15.95L9.65 15.04L9.65 13.02L6.33 14.94L6.33 18.79L8.07 17.77Z" />
				</g>
				<path id="&lt;Path&gt;" class="shp11" d="M4.27 13.75L7.59 11.83L9.65 13.02L6.33 14.94L4.27 13.75Z" />
			</g>
			<g id="&lt;Group&gt;">
				<path id="&lt;Path&gt;" class="shp9" d="M18.61 25.88L16.55 24.69L16.55 20.84L18.61 22.03L18.61 25.88Z" />
				<g id="&lt;Group&gt;">
					<path id="&lt;Path&gt;" class="shp10" d="M20.35 24.87L20.35 23.04L21.93 22.13L21.93 20.11L18.61 22.03L18.61 25.88L20.35 24.87Z" />
				</g>
				<path id="&lt;Path&gt;" class="shp11" d="M16.55 20.84L19.87 18.92L21.93 20.11L18.61 22.03L16.55 20.84Z" />
			</g>
			<g id="&lt;Group&gt;">
				<path id="&lt;Path&gt;" class="shp9" d="M12.47 22.33L10.41 21.14L10.41 17.29L12.47 18.48L12.47 22.33Z" />
				<g id="&lt;Group&gt;">
					<path id="&lt;Path&gt;" class="shp10" d="M14.21 21.32L14.21 19.5L15.79 18.58L15.79 16.56L12.47 18.48L12.47 22.33L14.21 21.32Z" />
				</g>
				<path id="&lt;Path&gt;" class="shp11" d="M10.41 17.29L13.73 15.38L15.79 16.56L12.47 18.48L10.41 17.29Z" />
			</g>
		</g>
	</g>
</svg>