<svg xmlns="http://www.w3.org/2000/svg" viewBox="0 0 47 39" width="47" height="39">
	<style>
		tspan { white-space:pre }
		.shp0 { fill: #f25b3e } 
	</style>
	<g id="&lt;Group&gt;">
		<g id="&lt;Group&gt;" style="opacity: 0.149">
			<path id="&lt;Path&gt;" class="shp0" d="M20.01 -0.01C30.78 -0.01 39.51 8.72 39.51 19.49C39.51 21.57 39.18 23.57 38.58 25.45L46.36 36.74L35.21 31.69C31.64 36.14 26.16 38.99 20.01 38.99C9.24 38.99 0.51 30.26 0.51 19.49C0.51 8.72 9.24 -0.01 20.01 -0.01Z" />
		</g>
		<g id="&lt;Group&gt;">
			<path id="&lt;Compound Path&gt;" fill-rule="evenodd" class="shp0" d="M22.75 27.34C20.16 27.34 17.46 25.94 14.73 23.17C11.92 20.33 10.53 17.56 10.6 14.92C10.67 12.22 12.33 10.62 12.4 10.55L12.72 10.23C13.67 9.29 15.2 9.29 16.15 10.23L17.61 11.69C18.07 12.15 18.32 12.76 18.32 13.4C18.32 14.05 18.07 14.66 17.61 15.12L17.28 15.45C17.07 15.65 16.84 15.81 16.58 15.93C16.51 16.02 16.46 16.12 16.44 16.23C16.33 16.65 16.42 17.61 18.22 19.41C19.54 20.73 20.67 21.33 21.59 21.18C21.81 21.15 22.01 21.07 22.19 20.95C22.27 20.83 22.36 20.73 22.46 20.63L22.79 20.3C23.25 19.84 23.86 19.59 24.5 19.59C25.15 19.59 25.76 19.84 26.21 20.3L27.68 21.76C28.62 22.7 28.62 24.24 27.68 25.18L27.35 25.52C27.18 25.69 25.58 27.29 22.88 27.34L22.75 27.34ZM14.43 10.09C13.94 10.09 13.48 10.29 13.13 10.63L12.8 10.97C12.73 11.03 11.24 12.47 11.17 14.93C11.11 17.41 12.45 20.05 15.14 22.77C17.76 25.42 20.32 26.77 22.75 26.77L22.88 26.77C25.38 26.72 26.87 25.18 26.93 25.12L27.27 24.78C27.99 24.06 27.99 22.89 27.27 22.17L25.81 20.7C25.46 20.36 25 20.17 24.5 20.17C24.01 20.17 23.54 20.36 23.2 20.7L22.86 21.04C22.78 21.12 22.7 21.21 22.63 21.32L22.6 21.36L22.56 21.39C22.3 21.58 22 21.7 21.68 21.75C20.57 21.93 19.27 21.27 17.81 19.81C16.29 18.29 15.64 17.03 15.88 16.09C15.93 15.88 16.03 15.68 16.18 15.51L16.22 15.46L16.28 15.44C16.51 15.34 16.7 15.21 16.87 15.04L17.2 14.71C17.55 14.36 17.74 13.9 17.74 13.4C17.74 12.91 17.55 12.45 17.2 12.1L15.74 10.63C15.39 10.29 14.93 10.09 14.43 10.09Z" />
		</g>
	</g>
</svg>