<svg xmlns="http://www.w3.org/2000/svg" viewBox="0 0 247 217" width="247" height="217">
	<defs>
		<linearGradient id="grd1" gradientUnits="userSpaceOnUse"  x1="150.868" y1="-1.024" x2="245.769" y2="-1.024">
			<stop offset="0.857" stop-color="#57cada"  />
			<stop offset="1" stop-color="#5ad1e4"  />
		</linearGradient>
		<linearGradient id="grd2" gradientUnits="userSpaceOnUse"  x1="149.259" y1="48.582" x2="170.813" y2="48.582">
			<stop offset="0" stop-color="#ffe2c4"  />
			<stop offset="0.898" stop-color="#fdc8bb"  />
		</linearGradient>
		<linearGradient id="grd3" gradientUnits="userSpaceOnUse"  x1="131.736" y1="128.937" x2="189.394" y2="128.937">
			<stop offset="0.857" stop-color="#57cada"  />
			<stop offset="1" stop-color="#5ad1e4"  />
		</linearGradient>
		<linearGradient id="grd4" gradientUnits="userSpaceOnUse"  x1="172.214" y1="44.853" x2="246.581" y2="49.854">
			<stop offset="0.857" stop-color="#57cada"  />
			<stop offset="1" stop-color="#5ad1e4"  />
		</linearGradient>
		<linearGradient id="grd5" gradientUnits="userSpaceOnUse"  x1="46.525" y1="80.951" x2="89.382" y2="80.951">
			<stop offset="0" stop-color="#ffe2c4"  />
			<stop offset="0.898" stop-color="#fdc8bb"  />
		</linearGradient>
		<linearGradient id="grd6" gradientUnits="userSpaceOnUse"  x1="57.9" y1="89.017" x2="71.083" y2="89.017">
			<stop offset="0" stop-color="#ffe2c4"  />
			<stop offset="0.898" stop-color="#fdc8bb"  />
		</linearGradient>
		<linearGradient id="grd7" gradientUnits="userSpaceOnUse"  x1="66.459" y1="87.541" x2="78.363" y2="87.541">
			<stop offset="0" stop-color="#ffe2c4"  />
			<stop offset="0.898" stop-color="#fdc8bb"  />
		</linearGradient>
		<linearGradient id="grd8" gradientUnits="userSpaceOnUse"  x1="72.952" y1="86.656" x2="81.512" y2="86.656">
			<stop offset="0" stop-color="#ffe2c4"  />
			<stop offset="0.898" stop-color="#fdc8bb"  />
		</linearGradient>
		<linearGradient id="grd9" gradientUnits="userSpaceOnUse"  x1="142.941" y1="169.399" x2="192.68" y2="169.399">
			<stop offset="0" stop-color="#ffe2c4"  />
			<stop offset="0.898" stop-color="#fdc8bb"  />
		</linearGradient>
		<linearGradient id="grd10" gradientUnits="userSpaceOnUse"  x1="155.706" y1="158.233" x2="178.039" y2="158.233">
			<stop offset="0" stop-color="#ffe2c4"  />
			<stop offset="0.898" stop-color="#fdc8bb"  />
		</linearGradient>
	</defs>
	<style>
		tspan { white-space:pre }
		.txt0 { font-size: 31px;fill: #ffffff;font-family: "Showcard Gothic" } 
		.shp1 { fill: none;stroke: #39359a;stroke-linejoin:round } 
		.shp2 { fill: url(#grd1) } 
		.shp3 { fill: #ffffff } 
		.shp4 { fill: #ffffff;stroke: #39359a;stroke-linejoin:round } 
		.shp5 { fill: url(#grd2);stroke: #1c3689;stroke-width: 0.75 } 
		.shp6 { fill: none;stroke: #39359a;stroke-linecap:round;stroke-linejoin:round } 
		.shp7 { fill: #39359a } 
		.shp8 { fill: #ff7967 } 
		.shp9 { fill: url(#grd3) } 
		.shp10 { fill: none;stroke: #39359a;stroke-linejoin:round;stroke-width: 1.5 } 
		.shp11 { fill: url(#grd4) } 
		.shp12 { fill: #2a87c7 } 
		.shp13 { fill: url(#grd5);stroke: #1c3689;stroke-width: 0.75 } 
		.shp14 { fill: url(#grd6);stroke: #1c3689;stroke-width: 0.75 } 
		.shp15 { fill: url(#grd7);stroke: #1c3689;stroke-width: 0.75 } 
		.shp16 { fill: url(#grd8);stroke: #1c3689;stroke-width: 0.75 } 
		.shp17 { fill: none;stroke: #38339a;stroke-linecap:round } 
		.shp18 { fill: #94c3e5 } 
		.shp19 { fill: #38339a } 
		.shp20 { fill: url(#grd9);stroke: #1c3689;stroke-width: 0.75 } 
		.shp21 { fill: url(#grd10);stroke: #1c3689;stroke-width: 0.75 } 
	</style>
	<text id="STD
" style="transform: matrix(0.467,-0.178,0.178,0.467,144.493,158.021)" >
		<tspan x="0" y="0" class="txt0" dx="0 2 2" >STD</tspan>
	</text>
	<path id="&lt;Path&gt;" class="shp1" d="M41.28 83.67C43.7 85.54 45.55 85.74 46.83 84.26" />
	<path id="&lt;Path&gt;" class="shp2" d="M222.09 8.76C218.38 11.9 213.47 21.48 208.61 21.44C200.91 21.39 201.67 15.28 188.06 18.44C177.3 20.94 180.39 31.54 171.81 32.68C167.95 33.18 161.24 31.29 157 32.68C137.16 39.18 146.27 53.16 146.72 54.36L146.83 54.48C148.01 55.04 162.28 61.85 168.52 64.62C169.31 64.98 170.23 65.23 171.23 65.41C172.92 63.7 174.92 62.73 177.13 63.71C183.63 66.6 187.89 61.95 190.69 58.59C192.56 56.35 195.86 55.68 200.58 56.59C211.82 58.59 211.28 45.84 218.58 47.26C235.5 50.55 239.24 48.65 245.77 45.43L245.77 8.76L245.77 0.39C239.38 -1.1 231.31 0.95 222.09 8.76Z" />
	<path id="&lt;Path&gt;" class="shp3" d="M165.9 74.05C166.89 71.35 168.21 68.96 169.85 66.91L158.59 66.91L165.9 74.05Z" />
	<path id="&lt;Path&gt;" class="shp3" d="M171.23 65.41C170.23 65.25 169.31 65.01 168.52 64.69C162.28 62.16 148.01 55.93 146.83 55.42L158.59 66.91L169.85 66.91C170.29 66.37 170.75 65.86 171.23 65.41Z" />
	<path id="&lt;Path&gt;" class="shp4" d="M111.85 163.51C90.4 150.92 78.99 142.75 77.61 139.01C74.86 126.81 79.29 119.04 90.9 115.69L111.85 128.68C122.87 100.74 136.15 85.39 151.7 82.64C175.01 78.51 193.9 92.38 204.53 114.22C215.15 136.06 226 165.87 223.71 175.31C221.43 184.76 193.31 197.75 191.84 197.75C196.56 184.37 191.93 174.82 177.96 169.12C184.46 165.38 191.64 162.23 199.51 159.67" />
	<path id="&lt;Compound Path&gt;" fill-rule="evenodd" class="shp4" d="M153.67 73.84C153.67 77.31 150.8 80.13 147.26 80.13C143.72 80.13 140.84 77.31 140.84 73.84C140.84 70.92 142.86 68.88 145.61 68.3C143.48 68.97 141.95 70.9 141.95 73.17C141.95 76 144.32 78.29 147.26 78.29C150.19 78.29 152.57 76 152.57 73.17C152.57 70.9 151.03 68.97 148.91 68.3C151.65 68.88 153.67 70.92 153.67 73.84ZM147.26 68.13C147.83 68.13 148.38 68.19 148.91 68.3C148.39 68.14 147.83 68.05 147.26 68.05C146.68 68.05 146.13 68.14 145.61 68.3C146.13 68.19 146.69 68.13 147.26 68.13Z" />
	<path id="&lt;Path&gt;" class="shp5" d="M157.66 81.91C155.79 81.86 154.21 81.35 152.91 80.66C151.15 79.73 149.91 78.45 149.14 77.5C148.56 76.77 148.15 75.93 147.91 75.03C146.6 70 142.04 49.57 154.12 49.58C162 49.59 166.03 53.23 166.22 60.5C168.38 57.16 170.06 56.86 171.24 59.62C173.01 63.75 170.35 67.59 167.84 66.7L167.84 90.61L165.04 100.64L150.96 94.15L154.21 81.35" />
	<path id="&lt;Path&gt;" class="shp6" d="M152.35 58.16C151.11 65.04 151.11 68.88 152.35 69.66C153.23 70.21 154.02 70.11 154.71 69.36" />
	<path id="&lt;Path&gt;" class="shp7" d="M157.59 73.39C157.43 73.69 156.77 73.57 155.59 73.06C153.83 72.29 152.05 71.7 151.84 73.23C151.64 74.75 153.64 75.73 155.39 75.14C156.26 74.85 156.99 74.26 157.59 73.39Z" />
	<path id="&lt;Path&gt;" class="shp4" d="M170.73 66C170.72 66.02 170.7 66.04 170.68 66.06C172.81 66.84 174.33 68.93 174.33 71.4C174.33 74.52 171.87 77.06 168.83 77.06C165.8 77.06 163.34 74.52 163.34 71.4C163.34 68.74 165.11 66.51 167.5 65.9C167.53 65.89 167.56 65.89 167.59 65.88L167.5 65.88C164.47 66.41 162.2 68.77 162.2 72.13C162.2 75.98 165.17 79.09 168.83 79.09C172.5 79.09 175.47 75.98 175.47 72.13C175.47 68.98 173.47 66.72 170.73 66Z" />
	<path id="&lt;Path&gt;" class="shp8" d="M142.8 135.17C147.72 106.05 151.02 90.12 152.68 87.37C153.7 94.91 158.75 95.82 167.84 90.12L167.01 125.79L142.8 135.17Z" />
	<path id="&lt;Path&gt;" class="shp1" d="M143.94 180.79L129.87 141.37C150.46 132.32 166.04 126.22 176.6 123.07L192.44 158.25" />
	<path id="&lt;Path&gt;" class="shp9" d="M131.74 146.95C153.45 136.94 167.75 131.27 174.64 129.94L189.39 163.49L144.83 183.1L131.74 146.95Z" />
	<path id="&lt;Path&gt;" class="shp1" d="M130.99 124.61C126.69 123.94 127.12 119.29 132.28 110.68C138.48 100.33 138.48 99.81 141.15 100.64C144.81 101.79 143.78 124.08 139.65 124.61" />
	<path id="&lt;Path&gt;" class="shp10" d="M140.56 100.64C144.86 89.82 149.33 83.72 153.96 82.34" />
	<path id="&lt;Path&gt;" class="shp10" d="M167.84 81.91C173.94 89.9 176.16 99.15 174.48 109.67" />
	<path id="&lt;Path&gt;" class="shp4" d="M177.3 113.97C177.3 116.14 175.82 117.89 173.99 117.89C172.16 117.89 170.67 116.14 170.67 113.97C170.67 111.8 172.16 110.05 173.99 110.05C175.82 110.05 177.3 111.8 177.3 113.97Z" />
	<path id="&lt;Path&gt;" class="shp4" d="M179.07 112.98C179.07 114.81 177.59 116.3 175.76 116.3C173.93 116.3 172.44 114.81 172.44 112.98C172.44 111.15 173.93 109.67 175.76 109.67C177.59 109.67 179.07 111.15 179.07 112.98Z" />
	<text id="STD
" style="transform: matrix(0.467,-0.178,0.178,0.467,144.493,158.021)" >
		<tspan x="0" y="0" class="txt0" dx="0 2 2" >STD</tspan>
	</text>
	<path id="&lt;Path&gt;" class="shp11" d="M219.25 48.95C212.1 46.82 211.7 60.46 200.62 57.59C195.97 56.31 192.64 56.8 190.62 59.04C187.58 62.4 183 67.02 176.72 63.54C174.58 62.35 172.52 63.24 170.72 64.93C177.84 66.75 189.74 64.36 192.4 61.41C194.43 59.17 197.76 58.69 202.41 59.96C213.49 62.83 213.89 49.2 221.04 51.32C231.49 54.43 239.85 54.24 246.29 51.95L246.5 48.84C239.76 51.8 230.75 52.37 219.25 48.95Z" />
	<path id="&lt;Path&gt;" class="shp12" d="M146.83 55.42L146.72 55.31C146.73 55.34 146.74 55.36 146.75 55.38C146.77 55.39 146.79 55.4 146.83 55.42Z" />
	<path id="&lt;Path&gt;" class="shp13" d="M89.38 116.31L85.05 113.63L85.05 92.33C79.94 87.84 75.9 86.28 72.95 87.66C69.8 86.87 67.64 87.16 66.46 88.54C62.52 87.36 59.67 87.85 57.9 90.02L42.55 81.91C37.24 86.33 42.55 92.57 58.49 100.64C61.64 104.38 61.15 107.33 57.01 109.5L53.47 104.77L42.55 95.62C40.39 97.4 40.68 100.25 43.44 104.18C47.57 110.09 45.5 112.51 47.86 116.31C50.23 120.12 54.95 124.55 63.21 126.02C71.48 127.5 74.75 128.09 77.54 130.45C79.4 132.03 83.35 127.31 89.38 116.31Z" />
	<path id="&lt;Path&gt;" class="shp14" d="M71.08 103.8C71.08 103.47 71.08 100.61 71.08 95.23L57.9 90.02" />
	<path id="&lt;Path&gt;" class="shp15" d="M78.36 101.04L78.36 93.96L66.46 88.54" />
	<path id="&lt;Path&gt;" class="shp16" d="M81.51 99.56L81.51 92.67L72.95 87.66" />
	<path id="&lt;Path&gt;" class="shp17" d="M125.78 112.15C117.13 130.85 112.6 150.33 112.21 170.59" />
	<path id="&lt;Path&gt;" class="shp18" d="M0.43 63.23C38.24 86.57 57.59 99.04 58.49 100.64C59.84 103.04 58.49 107.23 53.47 104.77C50.13 103.13 32.32 89.31 0.05 63.31" />
	<path id="&lt;Path&gt;" class="shp1" d="M0.43 63.23C38.24 86.57 57.59 99.04 58.49 100.64C59.84 103.04 58.49 107.23 53.47 104.77C50.13 103.13 32.32 89.31 0.05 63.31" />
	<path id="&lt;Path&gt;" class="shp1" d="M151.42 58.16C151.42 61.01 149.48 63.31 147.09 63.31C144.71 63.31 142.77 61.01 142.77 58.16C142.77 55.32 144.71 53.01 147.09 53.01C149.48 53.01 151.42 55.32 151.42 58.16Z" />
	<path id="&lt;Path&gt;" class="shp1" d="M165.37 57.64C165.37 60.77 162.83 63.31 159.7 63.31C156.57 63.31 154.03 60.77 154.03 57.64C154.03 54.51 156.57 51.98 159.7 51.98C162.83 51.98 165.37 54.51 165.37 57.64Z" />
	<path id="&lt;Path&gt;" class="shp19" d="M149 59.64C149 60.46 148.79 61.12 148.53 61.12C148.26 61.12 148.05 60.46 148.05 59.64C148.05 58.82 148.26 58.16 148.53 58.16C148.79 58.16 149 58.82 149 59.64Z" />
	<path id="&lt;Path&gt;" class="shp19" d="M159.37 59.12C159.37 59.94 159.16 60.6 158.89 60.6C158.63 60.6 158.42 59.94 158.42 59.12C158.42 58.31 158.63 57.64 158.89 57.64C159.16 57.64 159.37 58.31 159.37 59.12Z" />
	<path id="&lt;Path&gt;" class="shp20" d="M180.67 170.36C178.9 170.77 177.58 171.2 176.7 171.64L160.46 173.41C148.85 179.11 142.75 182.36 142.16 183.15C141.28 184.33 138.92 192.3 145.12 192.89C143.15 198.99 145.01 202.23 150.72 202.63C147.97 207.74 149.74 210.3 156.04 210.3C153.65 215.02 156.15 216.6 163.54 215.02C174.63 212.66 178.03 208.38 187.62 202.92C189.57 201.81 189.39 193.96 190.57 194.46C190.94 194.61 192.04 192.66 192.97 192.33C193.86 186.53 193.39 176.94 180.67 170.36Z" />
	<path id="&lt;Path&gt;" class="shp4" d="M132.71 125.15C132.71 125.69 132.27 126.12 131.74 126.12C131.2 126.12 130.77 125.69 130.77 125.15C130.77 124.61 131.2 124.18 131.74 124.18C132.27 124.18 132.71 124.61 132.71 125.15Z" />
	<path id="&lt;Path&gt;" class="shp4" d="M139.81 125.15C139.81 125.69 139.37 126.12 138.84 126.12C138.3 126.12 137.87 125.69 137.87 125.15C137.87 124.61 138.3 124.18 138.84 124.18C139.37 124.18 139.81 124.61 139.81 125.15Z" />
	<path id="&lt;Path&gt;" class="shp21" d="M178.04 171.93C178.04 169.37 171.94 166.42 159.74 163.07C157.58 160.32 155.8 159.04 154.43 159.24C152.36 159.53 147.34 166.91 161.51 175.17" />
	<path id="&lt;Path&gt;" class="shp17" d="M154.26 159.52C155.27 162.19 157.09 163.37 159.74 163.07" />
	<path id="&lt;Path&gt;" class="shp17" d="M188.06 129.94L193.25 161.75" />
</svg>