<svg xmlns="http://www.w3.org/2000/svg" viewBox="0 0 80 231" width="80" height="231">
	<defs>
		<linearGradient id="grd1" gradientUnits="userSpaceOnUse"  x1="19.385" y1="26.537" x2="51.902" y2="26.537">
			<stop offset="0" stop-color="#4ba1d1"  />
			<stop offset="1" stop-color="#4ca5d3"  />
		</linearGradient>
		<linearGradient id="grd2" gradientUnits="userSpaceOnUse"  x1="24.805" y1="32.256" x2="55.942" y2="70.216">
			<stop offset="0" stop-color="#ffffff"  />
			<stop offset="0.992" stop-color="#cae6f6"  />
		</linearGradient>
		<linearGradient id="grd3" gradientUnits="userSpaceOnUse"  x1="78.421" y1="15.987" x2="156.989" y2="2.638">
			<stop offset="0" stop-color="#ffffff"  />
			<stop offset="0.992" stop-color="#cae6f6"  />
		</linearGradient>
		<linearGradient id="grd4" gradientUnits="userSpaceOnUse"  x1="52.983" y1="-8.45" x2="68.068" y2="-31.15">
			<stop offset="0" stop-color="#ffffff"  />
			<stop offset="0.992" stop-color="#cae6f6"  />
		</linearGradient>
	</defs>
	<style>
		tspan { white-space:pre }
		.shp0 { fill: #ffffff } 
		.shp1 { fill: #fa6148 } 
		.shp2 { fill: url(#grd1) } 
		.shp3 { fill: #95bde1 } 
		.shp4 { fill: url(#grd2) } 
		.shp5 { fill: #b3d0eb } 
		.shp6 { fill: #1d54ac } 
		.shp7 { fill: #2767b7 } 
		.shp8 { fill: #284c94 } 
		.shp9 { fill: url(#grd3) } 
		.shp10 { fill: url(#grd4) } 
		.shp11 { fill: #8bc7ea } 
	</style>
	<g id="&lt;Group&gt;">
		<path id="&lt;Path&gt;" class="shp0" d="M15.27 54.02L12.7 113.15L25.55 109.29L21.05 63.66L15.27 54.02Z" />
		<g id="&lt;Group&gt;">
			<path id="&lt;Path&gt;" class="shp1" d="M0.48 66.87L6.27 45.02L29.41 53.37L24.27 75.87L0.48 66.87Z" />
		</g>
		<path id="&lt;Path&gt;" class="shp2" d="M51.9 32.81C45.05 29.81 39.69 28.09 35.83 27.66C30.05 27.02 21.05 28.31 19.12 32.81C17.2 37.31 19.12 73.94 20.41 76.51C21.69 79.08 33.91 78.44 39.05 75.87C44.19 73.3 49.33 73.94 50.62 68.8C51.47 65.37 51.9 53.37 51.9 32.81Z" />
		<path id="&lt;Path&gt;" class="shp3" d="M37.12 221.77C36.48 222.41 33.22 225.31 31.98 225.62C29.41 226.26 29.41 226.91 30.05 227.55C30.48 227.98 32.83 227.76 37.12 226.91L37.12 221.77Z" />
		<path id="&lt;Path&gt;" class="shp4" d="M34.55 27.17C33.69 27.17 33.26 26.21 33.26 24.31C33.26 22.4 33.26 20.74 33.26 19.31L24.91 24.31C25.34 26.04 25.34 27.3 24.91 28.11C24.48 28.91 24.27 29.55 24.27 30.02L30.69 32.16L34.55 27.17Z" />
		<path id="&lt;Path&gt;" class="shp5" d="M66.68 50.8C67.97 49.09 69.04 48.23 69.9 48.23C70.76 48.23 72.25 48.66 74.4 49.52C78.25 48.66 79.97 48.45 79.54 48.87C78.9 49.52 78.25 51.45 75.04 52.09C74.1 52.28 72.39 51.85 69.9 50.8L67.33 51.45L66.68 50.8Z" />
		<path id="&lt;Path&gt;" class="shp3" d="M36.48 27.66C36.05 27.24 35.19 27.02 33.91 27.02C34.33 27.45 33.91 28.09 32.62 28.95C30.69 30.24 28.12 30.24 27.48 30.24C28.34 30.66 28.76 32.16 28.76 34.73C31.76 33.88 33.69 33.02 34.55 32.16C35.41 31.31 35.83 30.66 35.83 30.24C36.69 28.95 36.91 28.09 36.48 27.66Z" />
		<path id="&lt;Path&gt;" class="shp3" d="M24.27 34.09C24.27 33.45 21.08 30.82 21.69 29.59C22.34 28.31 24.91 27.96 24.91 28.31C24.91 29.59 27.48 30.24 26.84 30.24C24.27 30.88 24.27 32.81 24.27 34.09Z" />
		<path id="&lt;Path&gt;" class="shp6" d="M28.67 33.25L26.84 35.38L25.55 35.38C25.12 34.95 24.91 33.88 24.91 32.16C24.91 30.73 25.55 29.59 27.48 30.24C28.7 30.64 29.1 31.65 28.67 33.25Z" />
		<path id="&lt;Path&gt;" class="shp6" d="M28.76 66.87C27.48 49.73 26.84 40.31 26.84 38.59C26.84 36.88 26.92 35.71 27.09 35.09L25.55 34.09C23.41 37.95 22.34 45.88 22.34 57.87C22.34 62.59 22.34 65.59 22.34 66.87L26.19 71.37L28.76 66.87Z" />
		<g id="&lt;Group&gt;">
			<path id="&lt;Path&gt;" class="shp1" d="M40.33 81.65C37.76 82.51 34.12 83.15 29.41 83.58C24.69 84.01 21.48 83.58 19.77 82.3L20.41 76.51C23.1 78.21 26.7 78.67 31.2 77.88C36.43 76.97 39.47 76.11 40.31 75.3L40.33 81.65Z" />
		</g>
		<path id="&lt;Path&gt;" class="shp7" d="M30.69 83.58C28.12 83.58 25.76 83.58 23.62 83.58C22.27 83.58 20.98 83.15 19.77 82.3C14.62 99.43 10.98 112.72 8.84 122.14C5.63 136.28 4.98 143.35 5.63 146.57C6.05 148.71 16.55 170.78 37.12 212.77C39.69 205.05 40.98 200.77 40.98 199.91C40.98 198.63 26.84 151.71 19.77 145.28C21.05 142.07 33.26 120.22 33.91 117.65C34.33 115.93 33.26 104.58 30.69 83.58Z" />
		<path id="&lt;Path&gt;" class="shp6" d="M28.12 83.58C28.98 99.01 29.62 109.93 30.05 116.36C30.69 126 34.55 161.99 34.55 166.49C34.55 169.49 35.19 186.42 36.48 217.27L43.55 217.91C48.69 186.2 51.69 159.21 52.54 136.93C53.4 114.65 52.33 95.79 49.33 80.37C45.47 80.37 42.05 80.8 39.05 81.65C36.93 82.26 37.07 82.69 28.12 83.58Z" />
		<path id="&lt;Path&gt;" class="shp0" d="M57.04 113.15C57.04 106.08 55.4 94.27 54.97 75.3C54.58 58.27 55.42 40.89 55.12 36.02C54.86 31.96 42.6 28.18 39.69 27.66C37.75 27.32 36.25 27.11 35.19 27.02C36.91 30.88 37.76 36.02 37.76 42.45C37.76 52.09 38.22 72.66 38.4 80.37C38.86 99.6 39.05 103.51 39.05 119.57C51.05 120 57.04 117.86 57.04 113.15Z" />
		<path id="&lt;Path&gt;" class="shp0" d="M58.33 55.94C58.76 43.52 57.26 36.23 53.83 34.09C51.11 32.39 48.07 33.73 46.76 36.66C44.19 42.45 46.76 62.37 48.05 70.08C49.33 77.8 49.97 82.94 52.54 82.94C55.12 82.94 58.33 79.08 64.76 68.16C69.04 60.87 71.4 55.73 71.83 52.73L66.68 49.52L58.33 55.94Z" />
		<path id="&lt;Path&gt;" class="shp0" d="M19.77 72.66C19.77 72.01 18.48 48.23 19.12 41.8C19.55 37.52 20.62 33.24 22.34 28.95C19.77 29.81 18.05 30.66 17.2 31.52C16.34 32.38 15.27 36.02 13.98 42.45L18.48 43.09L13.98 45.66C16.12 57.23 17.41 63.66 17.84 64.94C18.27 66.23 18.91 68.8 19.77 72.66Z" />
		<path id="&lt;Path&gt;" class="shp5" d="M2.41 55.94C4.34 56.59 5.63 57.87 5.63 59.8C5.63 61.09 4.13 61.51 1.13 61.09C0.7 57.23 1.13 55.52 2.41 55.94Z" />
		<g id="&lt;Group&gt;">
			<path id="&lt;Path&gt;" class="shp8" d="M21.67 9.93C19.77 7.65 18.27 3.9 21.22 1.7C24.29 -0.58 29.1 0.32 32.02 2.24C35.12 4.29 37.99 4.93 38.54 9.21C39.02 12.86 37.3 17.04 34.03 18.87C33.76 19.02 33.52 18.61 33.79 18.46C36.14 17.15 37.59 14.57 38.04 11.95C38.7 8.07 36.98 5.3 33.57 3.69C31.57 2.75 30.01 1.32 27.71 1.02C26.29 0.84 24.62 0.79 23.27 1.34C18.75 3.17 19.67 6.8 22 9.59C22.2 9.82 21.87 10.16 21.67 9.93Z" />
			<path id="&lt;Path&gt;" class="shp9" d="M22.07 12.21C20.82 17.29 20.41 23.81 23.62 24.45C27.55 25.24 34.63 20.99 36.48 16.1C38.73 10.11 37.12 4.53 31.34 3.88C24.92 3.17 23.31 7.13 22.07 12.21Z" />
			<path id="&lt;Path&gt;" class="shp8" d="M33.26 20.6C33.26 19.95 33.26 19.95 32.62 19.95C31.34 19.95 30.12 21.25 28.48 20.6C26.84 19.95 26.84 18.02 24.27 17.38C21.69 16.74 21.05 17.38 21.05 18.02C21.05 18.67 20.36 24.08 22.98 24.45C27.48 25.09 30.52 22.93 31.34 22.52C32.62 21.88 33.26 21.24 33.26 20.6Z" />
			<path id="&lt;Path&gt;" class="shp8" d="M35.19 18.67C35.19 18.02 35.19 15.45 33.91 14.17C32.62 12.88 31.34 13.53 27.48 12.88C23.62 12.24 17.94 9.47 20.41 4.53C22.34 0.67 27.48 0.67 30.05 2.6C32.62 4.53 31.98 3.24 34.55 4.53C36.99 5.75 37.76 9.03 37.76 11.6C37.76 14.17 36.91 16.52 35.19 18.67Z" />
			<path id="&lt;Path&gt;" class="shp10" d="M33.37 15.59C32.81 16.9 32.89 18.19 33.54 18.46C34.2 18.74 35.18 17.91 35.73 16.6C36.29 15.29 36.21 14.01 35.55 13.73C34.9 13.45 33.92 14.29 33.37 15.59Z" />
		</g>
		<path id="&lt;Path&gt;" class="shp3" d="M42.26 217.91C42.26 220.91 42.48 222.84 42.9 223.69C43.55 224.98 45.47 228.19 44.83 229.48C44.19 230.76 34.92 230.49 33.91 229.48C33.26 228.84 35.1 225.89 35.83 223.69C36.69 221.12 37.33 218.98 37.76 217.27L42.26 217.91Z" />
		<g id="&lt;Group&gt;">
			<path id="&lt;Path&gt;" class="shp11" d="M39.49 27.42C41.03 32.03 42.38 36.69 43.55 41.4C43.58 41.55 43.47 41.71 43.31 41.71C42.53 41.69 40.53 41.34 40.29 41.91C40.22 42.1 43.44 44.6 43.75 44.86C43.85 44.95 43.82 45.1 43.75 45.2C41.88 47.61 41.65 51.2 41.21 54.13C40.71 57.38 40.33 60.64 40.01 63.92C39.46 69.49 39.1 75.09 38.97 80.69C38.96 81 38.48 81 38.49 80.69C38.66 73.4 39.2 66.1 40.08 58.86C40.45 55.78 40.88 52.7 41.49 49.66C41.71 48.56 42.8 46.68 42.8 45.64C42.8 43.95 40.27 42.53 39.09 41.52C38.93 41.38 39.06 41.1 39.26 41.11C40.57 41.15 42.18 41.74 42.79 40.35C43.09 39.67 41.91 37.02 41.7 36.25C40.89 33.33 39.98 30.43 39.02 27.55C38.93 27.26 39.39 27.13 39.49 27.42Z" />
		</g>
		<g id="&lt;Group&gt;">
			<path id="&lt;Path&gt;" class="shp11" d="M66.53 50.01C61.36 54.14 54.29 58.77 52.78 65.65C52.71 65.95 52.25 65.82 52.31 65.52C53.86 58.51 60.95 53.86 66.19 49.67C66.43 49.48 66.78 49.82 66.53 50.01Z" />
		</g>
		<g id="&lt;Group&gt;">
			<path id="&lt;Path&gt;" class="shp11" d="M46.2 45.03C46.46 54.22 47.68 63.34 49.99 72.24C50.51 74.24 50.91 76.51 51.81 78.38C52.29 79.38 52.9 80.72 54.1 81.02C56.3 81.58 57.25 79.52 58.26 78.1C60.59 74.82 62.49 71.24 64.67 67.86C64.83 67.6 65.25 67.85 65.08 68.11C63.49 70.57 62.04 73.12 60.48 75.61C59.38 77.36 58.23 79.61 56.65 81C55.65 81.88 55.89 82.13 54.51 81.72C53.09 81.3 52.13 80.33 51.52 79.03C49.25 74.15 48.37 68.06 47.46 62.79C46.44 56.92 45.89 50.99 45.72 45.03C45.71 44.72 46.19 44.72 46.2 45.03Z" />
		</g>
		<g id="&lt;Group&gt;">
			<path id="&lt;Path&gt;" class="shp11" d="M39.75 27.43C45.29 28.23 51.55 30.45 54.9 35.22C56.93 38.13 57.54 41.88 58 45.32C58.21 46.87 58.34 48.44 58.43 50C58.49 51.17 58.53 52.34 58.54 53.5C58.55 53.93 58.39 55.59 58.54 55.82C58.71 56.08 58.29 56.33 58.12 56.07C57.42 54.97 58.02 51.44 57.95 50C57.73 46.04 57.34 41.85 55.86 38.13C53.29 31.68 46.05 28.82 39.63 27.9C39.32 27.85 39.45 27.39 39.75 27.43Z" />
		</g>
		<g id="&lt;Group&gt;">
			<path id="&lt;Path&gt;" class="shp11" d="M54.56 91.44C52.45 92.46 50.25 93.28 47.96 93.79C46.51 94.12 44.82 94.62 43.44 93.9C43.16 93.76 43.41 93.34 43.68 93.48C45.24 94.3 47.73 93.4 49.33 92.95C51.06 92.47 52.71 91.8 54.32 91.02C54.6 90.89 54.84 91.3 54.56 91.44Z" />
		</g>
		<g id="&lt;Group&gt;">
			<path id="&lt;Path&gt;" class="shp11" d="M55.36 81.65C56.02 89.9 57.29 98.12 57.34 106.41C57.37 110.73 58.82 117.59 52.54 117.89C52.23 117.9 52.24 117.42 52.54 117.4C56.11 117.24 57.09 114.22 56.94 111.32C56.88 110.19 56.86 109.06 56.86 107.93C56.84 105.69 56.83 103.44 56.69 101.2C56.29 94.67 55.4 88.17 54.87 81.65C54.85 81.34 55.33 81.35 55.36 81.65Z" />
		</g>
		<g id="&lt;Group&gt;">
			<path id="&lt;Path&gt;" class="shp11" d="M14.58 72.49C14.01 83.85 13.43 95.2 12.86 106.56C12.84 106.87 12.36 106.87 12.38 106.56C12.95 95.2 13.53 83.85 14.1 72.49C14.12 72.18 14.6 72.18 14.58 72.49Z" />
		</g>
		<g id="&lt;Group&gt;">
			<path id="&lt;Path&gt;" class="shp0" d="M28.04 83.9C28.07 94.57 28.95 105.27 29.81 115.89C29.97 117.96 30.14 120.03 30.35 122.09C30.57 124.25 30.62 124.42 29.48 126.48C25.35 133.93 21.44 141.5 18.01 149.3C17.89 149.58 17.47 149.34 17.6 149.06C20.95 141.43 24.76 134.02 28.79 126.74C30 124.54 30.05 123.95 29.82 121.64C29.61 119.5 29.44 117.36 29.27 115.21C28.45 104.81 27.59 94.34 27.56 83.9C27.56 83.59 28.04 83.59 28.04 83.9Z" />
		</g>
		<g id="&lt;Group&gt;">
			<path id="&lt;Path&gt;" class="shp0" d="M19.89 144.96C23.38 150.46 26.1 155.96 28.72 161.94C31.4 168.04 34.02 174.27 35.1 180.89C35.15 181.19 34.69 181.32 34.64 181.02C33.51 174.09 30.69 167.58 27.88 161.21C25.39 155.56 22.78 150.41 19.48 145.2C19.31 144.94 19.73 144.7 19.89 144.96Z" />
		</g>
		<g id="&lt;Group&gt;">
			<path id="&lt;Path&gt;" class="shp0" d="M34.93 183.44C35.03 194.63 35.47 205.81 36.25 216.97C36.27 217.28 35.79 217.28 35.77 216.97C34.99 205.81 34.55 194.63 34.45 183.44C34.45 183.13 34.93 183.13 34.93 183.44Z" />
		</g>
		<g id="&lt;Group&gt;">
			<path id="&lt;Path&gt;" class="shp11" d="M18.44 30.69C16.7 32.55 16.26 35.17 15.76 37.57C15.58 38.46 15.23 39.56 15.17 40.46C15.04 42.72 16.21 42.44 18.23 42.63C18.49 42.65 18.56 43.02 18.29 43.1C16.72 43.59 15.3 43.93 14.57 45.37C13.85 46.82 14.68 48.84 14.95 50.38C15.41 53.03 15.98 55.65 16.66 58.25C17.88 62.86 19.75 67.3 19.98 72.1C20 72.41 19.52 72.41 19.5 72.1C19.26 67.15 17.26 62.53 16.04 57.78C14.96 53.55 14.2 49.26 13.68 44.92C13.67 44.83 13.73 44.75 13.8 44.71C14.56 44.2 15.66 43.83 16.35 43.27C17.35 42.93 17.55 42.84 16.97 42.99C16.12 42.91 15.28 42.83 14.44 42.75C14.29 42.74 14.17 42.61 14.21 42.45C15.17 38.56 15.22 33.44 18.1 30.35C18.31 30.12 18.65 30.46 18.44 30.69Z" />
		</g>
	</g>
</svg>