<svg xmlns="http://www.w3.org/2000/svg" viewBox="0 0 36 36" width="36" height="36">
	<defs>
		<linearGradient id="grd1" gradientUnits="userSpaceOnUse"  x1="0.277" y1="-0.557" x2="35.166" y2="-0.557">
			<stop offset="0" stop-color="#f3f5f5"  />
			<stop offset="0.768" stop-color="#d0d7d8"  />
			<stop offset="1" stop-color="#aebabd"  />
		</linearGradient>
		<linearGradient id="grd2" gradientUnits="userSpaceOnUse"  x1="1.345" y1="15.171" x2="11.955" y2="15.171">
			<stop offset="0" stop-color="#1d54ac"  />
			<stop offset="0.313" stop-color="#417bc2"  />
			<stop offset="1" stop-color="#1d54ac"  />
		</linearGradient>
	</defs>
	<style>
		tspan { white-space:pre }
		.shp0 { fill: url(#grd1) } 
		.shp1 { fill: #2f6cba } 
		.shp2 { fill: url(#grd2) } 
		.shp3 { fill: #293139 } 
	</style>
	<g id="&lt;Group&gt;">
		<path id="&lt;Path&gt;" class="shp0" d="M35.17 17.81C35.17 17.8 35.17 17.8 35.17 17.8C35.17 13.33 33.46 8.87 30.06 5.46C23.24 -1.35 12.2 -1.35 5.39 5.46C1.98 8.87 0.28 13.33 0.28 17.8C0.28 17.8 0.28 17.8 0.28 17.81C0.28 17.98 0.29 18.16 0.3 18.34C0.44 22.62 2.12 26.86 5.39 30.13C12.2 36.94 23.24 36.94 30.06 30.13C33.32 26.86 35.01 22.62 35.14 18.34C35.16 18.16 35.16 17.98 35.17 17.81Z" />
		<path id="&lt;Path&gt;" class="shp1" d="M6.92 16.1C10.13 17.95 12.74 22.47 12.74 26.18C12.74 29.89 10.13 31.39 6.92 29.54C3.7 27.68 1.1 23.17 1.1 19.46C1.1 15.75 3.7 14.24 6.92 16.1Z" />
		<path id="&lt;Path&gt;" class="shp2" d="M6.65 16.77C9.58 18.46 11.95 22.58 11.95 25.96C11.95 29.34 9.58 30.71 6.65 29.02C3.72 27.33 1.34 23.22 1.34 19.83C1.34 16.45 3.72 15.08 6.65 16.77Z" />
		<g id="&lt;Group&gt;">
			<path id="&lt;Path&gt;" class="shp3" d="M5.65 20.36C7.06 21.17 8.19 23.14 8.19 24.76C8.19 26.38 7.06 27.03 5.65 26.22C4.25 25.41 3.11 23.44 3.11 21.82C3.11 20.2 4.25 19.55 5.65 20.36Z" />
		</g>
	</g>
</svg>