<svg xmlns="http://www.w3.org/2000/svg" viewBox="0 0 24 24" width="24" height="24">
	<defs>
		<linearGradient id="grd1" gradientUnits="userSpaceOnUse"  x1="0.533" y1="-1.125" x2="23.221" y2="-1.125">
			<stop offset="0.857" stop-color="#57cada"  />
			<stop offset="1" stop-color="#5ad1e4"  />
		</linearGradient>
	</defs>
	<style>
		tspan { white-space:pre }
		.shp0 { fill: url(#grd1) } 
		.shp1 { fill: #46a8dc } 
		.shp2 { fill: #fefefe } 
		.shp3 { fill: #f7776a } 
	</style>
	<g id="&lt;Group&gt;">
		<path id="&lt;Path&gt;" class="shp0" d="M23.22 11.68C23.22 12.01 23.19 12.34 23.15 12.67C23.03 13.59 22.81 14.47 22.48 15.33C21.98 16.63 21.26 17.81 20.32 18.84C18.93 20.38 17.24 21.47 15.26 22.1C14.45 22.35 13.62 22.51 12.77 22.58C10.89 22.72 9.09 22.43 7.36 21.69C7.3 21.66 7.25 21.66 7.18 21.68C5.44 22.15 3.7 22.62 1.96 23.09C1.55 23.2 1.18 23.11 0.88 22.81C0.57 22.51 0.48 22.14 0.59 21.72C1.02 20.1 1.45 18.49 1.89 16.87C1.91 16.79 1.9 16.73 1.86 16.65C1.24 15.5 0.83 14.28 0.63 12.99C0.48 12.05 0.45 11.1 0.55 10.15C0.77 7.88 1.6 5.85 3.04 4.08C4.75 1.99 6.93 0.67 9.57 0.1C10.38 -0.07 11.19 -0.14 12.01 -0.13C14.61 -0.08 16.94 0.74 18.97 2.37C20.99 3.99 22.31 6.08 22.93 8.6C23.08 9.22 23.17 9.85 23.21 10.49C23.22 10.59 23.23 10.7 23.22 10.8C23.2 10.9 23.22 11 23.22 11.09C23.23 11.26 23.22 11.42 23.22 11.59C23.21 11.62 23.21 11.65 23.22 11.68Z" />
		<path id="&lt;Path&gt;" class="shp1" d="M23.22 11.68C23.2 11.66 23.21 11.64 23.21 11.62C23.21 11.37 23.21 11.11 23.21 10.86C23.21 10.84 23.2 10.82 23.22 10.8C23.24 11.09 23.24 11.38 23.22 11.68Z" />
		<path id="&lt;Path&gt;" class="shp2" d="M2.84 20.84C2.87 20.69 2.91 20.56 2.94 20.42C3.27 19.21 3.59 17.99 3.92 16.77C3.98 16.56 3.94 16.37 3.83 16.18C3.29 15.31 2.9 14.36 2.67 13.36C2.49 12.57 2.4 11.76 2.44 10.95C2.55 8.31 3.57 6.08 5.51 4.28C6.85 3.05 8.43 2.28 10.22 1.96C10.92 1.83 11.62 1.79 12.33 1.82C14.48 1.94 16.39 2.69 18.02 4.1C19.58 5.45 20.6 7.14 21.07 9.16C21.26 10 21.33 10.86 21.28 11.72C21.15 14.06 20.28 16.09 18.65 17.78C17.31 19.18 15.68 20.08 13.78 20.48C13.05 20.63 12.31 20.7 11.57 20.67C10.22 20.63 8.94 20.32 7.73 19.72C7.55 19.63 7.37 19.62 7.18 19.67C5.76 20.05 4.35 20.43 2.93 20.82C2.91 20.82 2.88 20.83 2.84 20.84Z" />
		<g id="&lt;Group&gt;">
			<path id="&lt;Path&gt;" class="shp3" d="M11.8 14.06C11.49 14.06 11.19 14.06 10.89 14.06C10.85 14.06 10.81 14.07 10.81 14C10.8 13.55 10.79 13.1 10.88 12.65C10.99 12.11 11.25 11.66 11.62 11.27C11.95 10.92 12.32 10.62 12.69 10.31C12.92 10.12 13.15 9.92 13.37 9.71C13.99 9.11 13.96 8.18 13.31 7.62C13.01 7.35 12.65 7.22 12.25 7.18C11.83 7.14 11.43 7.17 11.04 7.34C10.53 7.55 10.2 7.94 9.99 8.44C9.91 8.62 9.85 8.81 9.8 9.01C9.79 9.06 9.78 9.08 9.72 9.07C9.1 8.99 8.48 8.91 7.85 8.84C7.79 8.83 7.79 8.81 7.79 8.75C7.89 7.24 9.1 5.96 10.64 5.63C11.66 5.41 12.67 5.44 13.66 5.79C14.48 6.08 15.12 6.6 15.56 7.35C16.13 8.33 16.11 9.56 15.23 10.54C14.77 11.05 14.25 11.5 13.72 11.95C13.55 12.09 13.38 12.25 13.22 12.42C12.95 12.68 12.83 13.01 12.81 13.38C12.79 13.58 12.79 13.78 12.79 13.98C12.79 14.04 12.77 14.06 12.71 14.06C12.41 14.05 12.1 14.06 11.8 14.06Z" />
		</g>
		<g id="&lt;Group&gt;">
			<path id="&lt;Path&gt;" class="shp3" d="M11.91 16.99C11.57 16.99 11.23 16.99 10.89 16.99C10.82 16.99 10.81 16.97 10.81 16.91C10.81 16.24 10.81 15.56 10.81 14.89C10.81 14.83 10.82 14.81 10.89 14.81C11.56 14.81 12.24 14.81 12.92 14.81C12.97 14.81 12.99 14.82 12.99 14.88C12.99 15.56 12.99 16.24 12.99 16.91C12.99 16.98 12.97 16.99 12.91 16.99C12.57 16.99 12.24 16.99 11.91 16.99Z" />
		</g>
	</g>
</svg>