<svg xmlns="http://www.w3.org/2000/svg" viewBox="0 0 35 38" width="35" height="38">
	<defs>
		<linearGradient id="grd1" gradientUnits="userSpaceOnUse"  x1="27.224" y1="6.159" x2="38.294" y2="25.332">
			<stop offset="0" stop-color="#ff6d3f"  />
			<stop offset="0.495" stop-color="#ff4f1d"  />
			<stop offset="1" stop-color="#dd3c1c"  />
		</linearGradient>
		<linearGradient id="grd2" gradientUnits="userSpaceOnUse"  x1="14.535" y1="-1.5" x2="20.59" y2="8.987">
			<stop offset="0" stop-color="#ff693b"  />
			<stop offset="0.301" stop-color="#ff6d3f"  />
			<stop offset="1" stop-color="#ff4f1d"  />
		</linearGradient>
		<radialGradient id="grd3" gradientUnits="userSpaceOnUse"  cx="15.688" cy="-0.334" r="44.867">
			<stop offset="0" stop-color="#ff9941"  />
			<stop offset="0.301" stop-color="#ff7f40"  />
			<stop offset="0.744" stop-color="#ff4f1d"  />
			<stop offset="1" stop-color="#dd3c1c"  />
		</radialGradient>
	</defs>
	<style>
		tspan { white-space:pre }
		.shp0 { fill: url(#grd1) } 
		.shp1 { fill: url(#grd2) } 
		.shp2 { fill: url(#grd3) } 
	</style>
	<g id="&lt;Group&gt;">
		<path id="&lt;Path&gt;" class="shp0" d="M32.6 15.36C29.39 9.79 24.14 6.76 20.93 8.62L15.37 11.82C18.58 9.97 23.84 13 27.05 18.56C30.26 24.13 30.26 30.19 27.05 32.04L32.6 28.84C35.81 26.98 35.81 20.92 32.6 15.36Z" />
		<path id="&lt;Path&gt;" class="shp1" d="M19.18 7.6C15.97 2.04 10.71 -0.99 7.5 0.86L1.94 4.07C5.15 2.22 10.41 5.25 13.62 10.81L14.49 12.33L20.05 9.12L19.18 7.6Z" />
		<path id="&lt;Path&gt;" class="shp2" d="M27.05 18.56C23.84 13 18.58 9.97 15.37 11.82L14.49 12.33L13.62 10.81C10.41 5.25 5.15 2.22 1.94 4.07C-1.27 5.93 -1.27 11.99 1.94 17.55L2.82 19.07L12.12 35.17C12.75 36.27 13.6 37.17 14.49 37.68C15.39 38.2 16.24 38.28 16.87 37.92L26.17 32.55L27.05 32.04C30.26 30.19 30.26 24.13 27.05 18.56Z" />
	</g>
</svg>