<svg xmlns="http://www.w3.org/2000/svg" viewBox="0 0 168 186" width="168" height="186">
	<defs>
		<linearGradient id="grd1" gradientUnits="userSpaceOnUse"  x1="55.187" y1="90.629" x2="90.162" y2="90.629">
			<stop offset="0" stop-color="#5ad1e4"  />
			<stop offset="1" stop-color="#6acfb8"  />
		</linearGradient>
		<linearGradient id="grd2" gradientUnits="userSpaceOnUse"  x1="54.058" y1="-0.433" x2="146.663" y2="-0.433">
			<stop offset="0.433" stop-color="#6ccfb3"  />
			<stop offset="1" stop-color="#5ad1e4"  />
		</linearGradient>
		<linearGradient id="grd3" gradientUnits="userSpaceOnUse"  x1="64.917" y1="76.015" x2="167.993" y2="76.015">
			<stop offset="0" stop-color="#ff798c"  />
			<stop offset="0.639" stop-color="#ffd5a8"  />
			<stop offset="1" stop-color="#ff798c"  />
		</linearGradient>
		<linearGradient id="grd4" gradientUnits="userSpaceOnUse"  x1="11.618" y1="4.289" x2="57.178" y2="4.289">
			<stop offset="0" stop-color="#5ad1e4"  />
			<stop offset="1" stop-color="#417bc2"  />
		</linearGradient>
		<linearGradient id="grd5" gradientUnits="userSpaceOnUse"  x1="58.235" y1="71.367" x2="165.847" y2="71.367">
			<stop offset="0" stop-color="#ff798c"  />
			<stop offset="0.361" stop-color="#ffd5a8"  />
			<stop offset="1" stop-color="#ff798c"  />
		</linearGradient>
		<linearGradient id="grd6" gradientUnits="userSpaceOnUse"  x1="13.55" y1="106.811" x2="57.583" y2="106.811">
			<stop offset="0" stop-color="#5ad1e4"  />
			<stop offset="1" stop-color="#417bc2"  />
		</linearGradient>
		<linearGradient id="grd7" gradientUnits="userSpaceOnUse"  x1="82.232" y1="176.907" x2="92.742" y2="176.907">
			<stop offset="0" stop-color="#5ad1e4"  />
			<stop offset="1" stop-color="#417bc2"  />
		</linearGradient>
		<linearGradient id="grd8" gradientUnits="userSpaceOnUse"  x1="54.756" y1="179.339" x2="64.896" y2="179.339">
			<stop offset="0" stop-color="#5ad1e4"  />
			<stop offset="1" stop-color="#417bc2"  />
		</linearGradient>
		<linearGradient id="grd9" gradientUnits="userSpaceOnUse"  x1="66.318" y1="154.986" x2="72.45" y2="154.986">
			<stop offset="0" stop-color="#5ad1e4"  />
			<stop offset="1" stop-color="#417bc2"  />
		</linearGradient>
		<linearGradient id="grd10" gradientUnits="userSpaceOnUse"  x1="71.909" y1="69.183" x2="106.14" y2="69.183">
			<stop offset="0" stop-color="#5ad1e4"  />
			<stop offset="1" stop-color="#417bc2"  />
		</linearGradient>
		<linearGradient id="grd11" gradientUnits="userSpaceOnUse"  x1="26.362" y1="54.529" x2="33.221" y2="54.529">
			<stop offset="0" stop-color="#5ad1e4"  />
			<stop offset="1" stop-color="#417bc2"  />
		</linearGradient>
		<linearGradient id="grd12" gradientUnits="userSpaceOnUse"  x1="86.897" y1="57.104" x2="92.86" y2="57.104">
			<stop offset="0" stop-color="#5ad1e4"  />
			<stop offset="1" stop-color="#417bc2"  />
		</linearGradient>
	</defs>
	<style>
		tspan { white-space:pre }
		.shp0 { fill: #ffffff } 
		.shp1 { fill: #dce5f3 } 
		.shp2 { fill: url(#grd1) } 
		.shp3 { opacity: 0.188;fill: url(#grd2) } 
		.shp4 { fill: url(#grd3) } 
		.shp5 { fill: url(#grd4) } 
		.shp6 { fill: url(#grd5) } 
		.shp7 { fill: url(#grd6) } 
		.shp8 { fill: #1d54ac } 
		.shp9 { fill: #f7776a } 
		.shp10 { fill: url(#grd7) } 
		.shp11 { fill: url(#grd8) } 
		.shp12 { fill: url(#grd9) } 
		.shp13 { fill: url(#grd10) } 
		.shp14 { fill: url(#grd11) } 
		.shp15 { fill: url(#grd12) } 
	</style>
	<path id="Shape 1" class="shp0" d="M32 71L58 72L86 92L57 106L39 104L29 94L24 84L24 77L28 71L32 71Z" />
	<path id="&lt;Path&gt;" class="shp1" d="M61.12 72.35C60.87 72.04 60.52 72.01 60.15 72.01C59.2 72.02 58.26 72.02 57.31 72.02C53.52 72 49.72 71.88 45.93 71.79C43.52 71.74 41.1 71.85 38.7 71.64C37.13 71.5 35.55 71.66 33.98 71.38C33.33 71.27 32.65 71.36 31.99 71.34C31.63 71.33 31.51 71.49 31.45 71.82C31.25 72.96 31.02 74.09 30.82 75.23C30.33 77.98 29.81 80.72 29.38 83.47C29.19 84.73 29.26 86.02 29.33 87.3C29.46 89.8 29.92 92.24 31.06 94.5C32.47 97.28 34.61 99.36 37.33 100.84C39.97 102.26 42.84 102.97 45.76 103.51C47.12 103.77 48.49 103.91 49.86 104.13C50.56 104.25 51.29 104.21 52.01 104.27C53.69 104.42 55.38 104.43 57.07 104.48C57.48 104.5 57.79 104.23 58.13 104.06C58.89 103.66 59.56 103.1 60.39 102.84C62.38 102.84 64.37 103.04 66.36 102.99C66.52 102.99 66.75 102.87 66.87 103.17C66.01 103.7 65.28 104.36 64.6 105.1C64.02 105.73 63.62 106.5 63.1 107.17C62.76 107.18 62.42 107.14 62.1 107.2C60.8 107.47 59.46 107.4 58.15 107.46C55.94 107.56 53.74 107.76 51.53 107.69C51.45 107.69 51.36 107.71 51.28 107.72C49.45 107.65 47.62 107.89 45.79 107.84C43.92 107.81 42.06 107.79 40.2 107.85C39.78 107.85 39.37 107.83 38.95 107.84C35.92 107.89 32.89 107.56 29.85 107.68C29.65 107.04 29.65 107.03 29.02 107.01C27.11 106.92 25.2 106.83 23.3 106.71C21.09 106.58 18.88 106.41 16.68 106.2C13.87 105.94 11.08 105.58 8.31 105C7.15 104.75 5.99 104.48 4.93 103.91C4.3 103.57 4.18 103.3 4.35 102.62C4.52 101.93 4.9 101.36 5.38 100.85C6.07 100.12 6.87 99.54 7.73 99.02C8.26 98.71 8.27 98.63 8.12 98.03C9.32 97.53 10.52 97.01 11.73 96.54C13.82 95.73 15.99 95.16 18.18 94.67C19.72 94.34 21.26 94.02 22.82 93.76C24.23 93.52 25.66 93.35 27.08 93.17C27.6 93.1 28.11 92.97 28.64 92.98C29.11 92.99 29.24 92.81 29.09 92.34C28.87 91.63 28.72 90.9 28.59 90.16C28.48 89.51 28.31 88.87 28.3 88.2C28.3 87.87 28.21 87.7 27.84 87.66C27.18 87.59 26.52 87.52 25.86 87.52C24.5 87.51 23.17 87.23 21.83 87.02C21.86 86.36 21.38 86.29 20.91 86.17C17.27 85.27 13.97 83.68 11.13 81.22C7.96 78.47 5.75 75.05 4.27 71.13C2.63 66.78 1.96 62.25 1.82 57.62C1.74 54.76 1.85 51.91 2.11 49.06C2.37 46.3 2.77 43.56 3.4 40.86C4.61 35.64 6.51 30.69 9.17 26.03C9.39 25.63 9.5 25.29 9.31 24.87C9.31 24.48 9.54 24.19 9.73 23.89C11.18 21.67 12.74 19.52 14.51 17.53C16.17 15.65 17.98 13.96 19.97 12.45C22.87 10.26 26.03 8.59 29.61 7.79C32.15 7.21 34.7 7.15 37.26 7.65C37.5 7.7 37.75 7.7 38 7.73C35.8 9.3 33.87 11.16 32.16 13.26C30.43 15.4 28.95 17.72 27.46 20.03C24 25.39 20.76 30.89 16.83 35.95C14.78 38.58 13.25 41.55 12.26 44.77C11.52 47.17 11.23 49.6 11.56 52.09C12 55.43 13.54 58.23 15.79 60.68C15.91 60.81 16.01 61.03 16.31 60.94C16.23 59.72 16.55 58.54 16.81 57.36C18.1 57.64 19.39 57.91 20.68 58.2C22.48 58.6 24.29 59 26.08 59.43C26.35 59.49 26.73 59.42 26.85 59.81C26.8 60.09 26.6 60.3 26.47 60.54C26.18 61.08 26.17 61.15 26.65 61.46C27 61.68 27.38 61.87 27.76 62.03C28.6 62.39 29.48 62.64 30.36 62.88C31.2 63.11 32.03 63.42 32.92 63.16C33.78 63.2 34.61 63.45 35.45 63.59C37.11 63.87 38.76 64.2 40.42 64.49C42.54 64.87 44.67 65.22 46.79 65.58C48.59 65.88 50.38 66.21 52.18 66.48C53.19 66.64 53.29 66.55 53.63 65.59C54.22 63.89 54.69 62.16 55.09 60.4C55.76 57.45 55.99 54.45 56.11 51.44C56.12 51.14 56.07 50.84 56.01 50.54C55.95 50.19 56.24 49.87 56.58 49.86C56.96 49.85 57.12 50.07 57.13 50.43C57.14 50.6 57.15 50.76 57.14 50.93C57.1 52.4 57.16 53.86 57 55.33C56.85 56.81 56.63 58.29 56.36 59.75C55.95 61.93 55.33 64.05 54.62 66.15C54.42 66.76 54.5 66.91 55.1 66.98C56.83 67.19 58.53 67.56 60.25 67.8C61.18 67.93 62.12 67.94 63.04 67.56C63.81 67.24 64.63 67.11 65.48 67.15C65.7 67.16 65.95 67.22 66.26 67.04C65.52 66.68 64.87 66.39 64.24 66.06C63.85 65.85 63.62 65.86 63.39 66.3C63.09 66.87 62.86 66.93 62.41 66.65C60.49 65.48 58.59 64.3 56.68 63.11C56.5 63 56.34 62.83 56.21 62.66C56.07 62.46 56.08 62.23 56.23 62.03C56.38 61.83 56.62 61.8 56.83 61.89C57.06 61.99 57.26 62.15 57.47 62.28C58.92 63.2 60.37 64.12 61.83 65.02C62.55 65.46 62.58 65.44 62.94 64.71C63.64 63.26 64.36 61.82 65.01 60.36C65.45 59.37 65.96 58.41 66.41 57.43C66.58 57.07 66.85 56.92 67.21 57.04C67.59 57.16 67.47 57.46 67.37 57.73C67.25 58.06 69.05 58.81 69.6 59.24C72.47 61.55 75.61 63.4 79.07 64.68C80.29 65.13 81.51 65.59 82.75 65.97C84.32 66.46 85.92 66.76 87.55 66.19C88.05 66.01 88.58 65.97 89.11 65.97C89.55 66.64 89.82 67.39 90.15 68.11C90.61 69.12 91.63 69.7 92.86 69.58C92.58 68.7 92.3 67.84 92.02 66.97C93.62 67.26 94.76 68.58 94.8 70.18C94.67 70.19 94.53 70.2 94.39 70.2C88.1 70.2 81.82 70.2 75.53 70.2C75.28 70.2 75.03 70.18 74.78 70.16C73.7 69.65 72.51 69.47 71.41 69.03C71.38 69.07 71.35 69.12 71.32 69.17C71.54 69.51 71.76 69.85 71.97 70.19C72.08 70.95 72.19 71.71 71.91 72.46C71.76 72.52 71.61 72.64 71.46 72.64C70.54 72.64 69.63 72.75 68.72 72.6C68.06 72.5 67.39 72.49 66.73 72.57C64.85 72.78 62.98 72.79 61.12 72.35Z" />
	<path id="&lt;Path&gt;" class="shp2" d="M63.1 107.17C63.62 106.5 64.02 105.73 64.6 105.1C65.28 104.36 66.01 103.7 66.87 103.17C66.75 102.87 66.52 102.99 66.36 102.99C64.37 103.04 62.38 102.84 60.39 102.84C60.84 102.42 61.42 102.2 61.95 101.9C67.01 99.12 72.11 96.42 77.41 94.11C79.57 93.16 81.76 92.28 84.07 91.79C84.21 91.76 84.34 91.73 84.48 91.7C85.48 91.49 86.26 91.74 86.98 92.55C89.17 95.03 90.36 97.85 90.26 101.19C90.08 106.6 89.91 112.01 89.74 117.42C89.63 120.91 89.52 124.41 89.41 127.9C89.25 133.09 89.08 138.28 88.91 143.46C88.8 146.88 88.69 150.29 88.58 153.7C88.46 157.17 88.36 160.63 88.25 164.1C88.14 167.59 88.03 171.09 87.91 174.58C87.88 175.72 87.81 176.86 87.76 177.99C86.81 178.03 85.88 177.71 84.9 177.96C83.67 178.26 82.85 178.91 82.43 180.11C82.31 180.45 82.37 180.83 82.17 181.14C81.94 179.01 81.71 176.89 81.47 174.77C81.09 171.3 80.6 167.83 80.06 164.38C79.33 159.64 78.54 154.91 77.77 150.17C77.21 146.69 76.64 143.22 76.07 139.74C75.52 136.32 75.04 132.88 74.63 129.44C74.62 129.35 74.66 129.23 74.54 129.16C74.29 129.41 74.29 129.77 74.2 130.07C71.98 138.46 69.76 146.86 67.54 155.25C67.48 155.49 67.47 155.74 67.43 155.98C67.35 156.09 67.24 156.2 67.2 156.32C66.9 157.42 66.61 158.53 66.3 159.63C66.24 159.87 66.31 160.06 66.43 160.25C66.02 160.34 66.1 160.73 66.03 160.99C65.36 163.45 64.72 165.91 64.07 168.37C63.06 172.2 62.04 176.02 61.03 179.85C60.96 180.12 60.91 180.39 60.85 180.66C60.05 180.43 59.24 180.33 58.41 180.32C57.1 180.31 55.97 180.67 55.19 181.81C55.36 180.27 55.54 178.73 55.7 177.19C55.91 175.26 56.12 173.33 56.29 171.4C56.57 168.14 56.84 164.88 57.06 161.61C57.19 159.73 57.36 157.85 57.35 155.96C57.38 155.86 57.45 155.76 57.44 155.65C57.42 154.17 57.7 152.7 57.63 151.21C57.73 149.22 57.84 147.22 57.93 145.23C58.1 141.71 58.26 138.2 58.42 134.68C58.65 129.75 58.98 124.83 59.63 119.93C59.99 117.16 60.5 114.41 61.29 111.71C61.75 110.14 62.42 108.65 63.1 107.17Z" />
	<path id="&lt;Compound Path&gt;" fill-rule="evenodd" class="shp3" d="M94.8 70.18C94.76 68.58 93.62 67.26 92.02 66.97C91.77 66.23 91.52 65.48 91.28 64.74C91.29 62.57 91.29 60.41 91.33 58.24C91.34 57.69 91.23 57.29 90.78 56.89C90.44 56.6 90.12 56.65 89.78 56.65C82.23 56.65 74.68 56.64 67.13 56.66C66.56 56.66 66.14 56.5 65.72 56.11C61.65 52.37 58.39 48.02 55.98 43.04C55.17 41.37 54.37 39.69 54.18 37.8C54.17 37.64 54.15 37.46 53.97 37.37C53.83 36.35 54.26 35.42 54.42 34.44C54.69 32.77 55.35 31.21 55.81 29.59C56.43 27.4 56.88 25.18 57.09 22.93C57.23 21.46 57.31 19.98 57.17 18.47C56.92 15.69 56.13 13.17 54.15 11.12C54.15 9.43 54.15 7.74 54.16 6.04C54.17 2.84 56.42 0.57 59.61 0.57C86.81 0.57 114.02 0.57 141.23 0.57C143.79 0.57 145.81 2.05 146.49 4.38C146.62 4.84 146.65 5.31 146.65 5.78C146.65 20.99 146.64 36.21 146.67 51.42C146.67 53.73 144.87 56.52 141.48 56.64C141.23 56.65 140.98 56.65 140.73 56.65C130.68 56.65 120.63 56.65 110.58 56.65C109.45 56.65 109.55 56.54 109.55 57.68C109.54 60.23 109.55 62.78 109.55 65.34C109.55 66.43 109.98 66.88 111.05 66.88C114.27 66.88 117.49 66.87 120.72 66.88C123.28 66.9 125.41 68.47 126.16 70.88C126.31 71.36 126.38 71.85 126.43 72.35C126.12 72.37 125.82 72.4 125.52 72.4C119.31 72.41 113.1 72.41 106.89 72.41C106.64 72.41 106.39 72.39 106.14 72.38C106.13 71.82 106.11 71.27 106.12 70.72C106.13 70.33 105.97 70.16 105.58 70.19C105.39 70.2 105.19 70.19 105 70.19C101.6 70.19 98.2 70.18 94.8 70.18ZM100.4 4.86C86.91 4.86 73.42 4.86 59.93 4.86C58.8 4.86 58.9 4.69 58.9 5.87C58.9 18.83 58.89 31.8 58.9 44.76C58.9 46.06 58.76 45.88 59.99 45.88C86.92 45.88 113.84 45.88 140.77 45.88C140.94 45.88 141.11 45.89 141.27 45.88C141.91 45.87 141.91 45.87 141.93 45.24C141.93 45.11 141.93 44.97 141.93 44.83C141.93 31.86 141.93 18.9 141.93 5.94C141.93 4.72 142.09 4.86 140.88 4.86C127.39 4.86 113.9 4.86 100.4 4.86Z" />
	<path id="&lt;Path&gt;" class="shp4" d="M162.65 77.04C162.64 79.07 162.63 81.09 162.62 83.11C162.62 83.33 162.62 83.55 162.61 83.77C162.61 84.01 162.47 84.12 162.25 84.13C162.05 84.13 161.86 84.13 161.67 84.13C159.4 84.13 157.13 84.13 154.86 84.14C154.55 84.14 154.24 84.1 153.95 84.2C153.97 83.72 153.76 83.49 153.25 83.5C152.51 83.52 151.76 83.51 151.01 83.51C149.87 83.51 148.73 83.51 147.59 83.51C147.26 83.51 146.97 83.58 146.94 83.99C146.92 84.32 147.17 84.59 147.55 84.66C147.65 84.68 147.77 84.68 147.88 84.68C149.77 84.67 151.65 84.67 153.54 84.66C153.71 86.46 154.07 88.23 154.36 90C154.87 93.17 155.41 96.34 155.93 99.51C156.45 102.65 156.97 105.8 157.49 108.94C157.97 111.81 158.45 114.68 158.92 117.55C159.88 123.34 160.83 129.13 161.79 134.93C162.48 139.08 163.2 143.23 163.89 147.38C164.8 152.93 165.7 158.48 166.62 164.03C167.07 166.79 167.54 169.55 167.99 172.31C168.01 172.39 168 172.47 168 172.66C167.23 172.66 166.46 172.67 165.7 172.66C165.32 172.65 165.31 172.32 165.25 172.06C164.81 170.25 164.37 168.45 163.93 166.65C162.41 160.45 160.9 154.26 159.39 148.07C157.65 140.96 155.91 133.86 154.17 126.75C152.57 120.18 150.98 113.61 149.38 107.04C147.56 99.61 145.75 92.18 143.94 84.75C143.79 84.16 143.79 84.15 143.16 84.14C142.91 84.13 142.66 84.13 142.41 84.13C120.34 84.13 98.27 84.13 76.19 84.15C75.43 84.15 74.81 83.95 74.19 83.51C71.2 81.41 68.17 79.34 65.16 77.26C65.07 77.2 65 77.11 64.92 77.04C65.28 77.03 65.64 77.02 66 77.02C97.83 77.01 129.65 77.01 161.48 77.02C161.87 77.02 162.26 77.03 162.65 77.04Z" />
	<path id="&lt;Path&gt;" class="shp5" d="M54.15 11.12C56.13 13.17 56.92 15.69 57.17 18.47C57.31 19.98 57.23 21.46 57.09 22.93C56.88 25.18 56.43 27.4 55.81 29.59C55.35 31.21 54.69 32.77 54.42 34.44C54.26 35.42 53.83 36.35 53.97 37.37C53.98 37.53 54 37.7 53.83 37.93C52.34 35.53 50.28 33.96 47.48 33.48C47.43 32.18 47.62 30.88 47.64 29.58C47.66 28.76 47.67 28.76 46.91 28.49C46.04 28.17 45.27 27.69 44.66 26.98C44.36 26.63 44.32 26.3 44.56 26.1C44.87 25.82 45.11 26.03 45.34 26.25C45.93 26.81 46.58 27.27 47.35 27.55C48.87 28.1 50.15 27.69 51.07 26.38C51.49 25.78 51.75 25.11 51.97 24.42C52.4 23.06 52.53 21.65 52.55 20.24C52.57 18.35 52.22 16.54 51.21 14.91C50.83 14.29 50.38 13.74 49.77 13.34C49.49 13.53 49.42 13.81 49.28 14.04C48.52 15.37 47.69 16.65 46.69 17.81C46.11 18.48 45.48 19.1 44.72 19.58C44.03 20 43.37 20.39 42.5 19.89C42.03 19.62 41.46 19.7 41.03 20.12C40.61 20.53 40.59 21.05 40.72 21.59C40.99 22.67 41.82 23.4 42.94 23.56C43.09 23.58 43.27 23.53 43.45 23.71C43.18 24.81 42.89 25.93 42.64 27.06C42.13 29.33 41.64 31.6 41.14 33.87C38.38 34.57 35.93 35.88 33.62 37.5C28.91 40.82 24.88 44.84 21.25 49.29C19.56 51.36 18 53.51 16.71 55.86C16.49 56.26 16.26 56.66 16.13 57.16C16.39 57.23 16.6 57.3 16.81 57.36C16.55 58.54 16.23 59.72 16.31 60.94C16.01 61.03 15.91 60.81 15.79 60.68C13.54 58.23 12 55.43 11.56 52.09C11.23 49.6 11.52 47.17 12.26 44.77C13.25 41.55 14.78 38.58 16.83 35.95C20.76 30.89 24 25.39 27.46 20.03C28.95 17.72 30.43 15.4 32.16 13.26C33.87 11.16 35.8 9.3 38 7.73C39.15 7.06 40.29 6.37 41.55 5.93C43.25 5.33 44.99 5.05 46.77 5.52C48.5 5.97 49.71 7.03 50.35 8.7C50.5 9.09 50.68 9.34 51.11 9.45C52.26 9.76 53.21 10.44 54.15 11.12Z" />
	<path id="&lt;Path&gt;" class="shp6" d="M162.65 77.04C162.26 77.03 161.87 77.02 161.48 77.02C129.65 77.01 97.83 77.01 66 77.02C65.64 77.02 65.28 77.03 64.92 77.04C63.32 76.1 61.87 74.96 60.33 73.94C59.67 73.5 59.02 73.04 58.24 72.49C59.3 72.27 60.22 72.46 61.12 72.35C62.98 72.79 64.85 72.78 66.73 72.57C67.39 72.49 68.06 72.5 68.72 72.6C69.63 72.75 70.54 72.64 71.46 72.64C71.61 72.64 71.76 72.52 71.91 72.46C72.02 72.46 72.13 72.47 72.24 72.47C83.33 72.47 94.41 72.47 105.5 72.47C105.71 72.47 105.94 72.52 106.14 72.38C106.39 72.39 106.64 72.41 106.89 72.41C113.1 72.41 119.31 72.41 125.52 72.4C125.82 72.4 126.12 72.37 126.43 72.35C126.76 72.36 127.09 72.38 127.42 72.38C139.28 72.38 151.13 72.38 162.99 72.38C163.38 72.38 163.76 72.37 164.15 72.47C165.26 72.77 166 73.76 165.92 74.88C165.83 76.01 164.89 76.93 163.73 77.01C163.37 77.03 163.01 77.03 162.65 77.04Z" />
	<path id="&lt;Path&gt;" class="shp7" d="M57.63 151.21C57.7 152.7 57.42 154.17 57.44 155.65C57.45 155.76 57.38 155.86 57.35 155.96C53.83 154.93 50.24 154.37 46.59 154.14C44.49 154.01 42.39 153.95 40.29 154.1C40.18 154.11 40.07 154.14 39.97 154.16C38.56 154.11 37.17 154.3 35.79 154.52C33.94 154.67 32.13 155.05 30.33 155.5C27.02 156.33 23.82 157.47 20.92 159.31C19.53 160.19 18.27 161.22 17.22 162.49C17.09 162.46 16.93 162.46 16.82 162.4C15.8 161.83 14.71 161.59 13.55 161.63C14.63 159.39 16.32 157.69 18.25 156.21C21.54 153.69 25.28 152.11 29.24 151C31.51 150.36 33.81 149.88 36.16 149.62C36.33 149.6 36.49 149.54 36.65 149.5C37.69 149.43 38.74 149.36 39.79 149.3C40.11 149.29 40.25 149.15 40.23 148.84C40.22 148.68 40.23 148.51 40.23 148.35C40.23 141.89 40.23 135.43 40.23 128.97C40.23 128.73 40.28 128.48 40.18 128.24C40.19 128.07 40.2 127.9 40.2 127.74C40.2 121.11 40.2 114.48 40.2 107.85C42.06 107.79 43.92 107.81 45.79 107.84C45.78 115.09 45.78 122.34 45.78 129.58C45.78 129.72 45.8 129.86 45.82 129.99C45.81 130.08 45.79 130.16 45.79 130.24C45.79 136.4 45.78 142.56 45.78 148.72C45.78 149.26 45.8 149.27 46.42 149.3C48.72 149.42 51.01 149.7 53.27 150.17C54.73 150.48 56.18 150.86 57.63 151.21Z" />
	<path id="&lt;Path&gt;" class="shp8" d="M72.45 161.64C75.31 161.84 77.54 163.97 77.73 166.8C77.91 169.52 76.09 171.96 73.24 172.58C70.76 173.12 68.15 171.87 67 169.62C65.95 167.57 66.28 164.78 68.29 163.03C68.47 162.87 68.72 162.75 68.77 162.48C68.94 162.49 69.08 162.44 69.23 162.36C70.23 161.8 71.31 161.58 72.45 161.64Z" />
	<path id="&lt;Path&gt;" class="shp8" d="M13.55 161.63C14.71 161.59 15.8 161.83 16.82 162.4C16.93 162.46 17.09 162.46 17.22 162.49C17.27 162.76 17.52 162.87 17.7 163.03C19.39 164.53 20.01 166.85 19.28 168.95C18.54 171.08 16.49 172.55 14.23 172.68C11.58 172.82 9.27 171.16 8.51 168.84C7.45 165.57 9.66 162.14 13.14 161.66C13.27 161.64 13.41 161.64 13.55 161.63Z" />
	<path id="&lt;Path&gt;" class="shp8" d="M9.31 24.87C9.5 25.29 9.39 25.63 9.17 26.03C6.51 30.69 4.61 35.64 3.4 40.86C2.77 43.56 2.37 46.3 2.11 49.06C1.85 51.91 1.74 54.76 1.82 57.62C1.96 62.25 2.63 66.78 4.27 71.13C5.75 75.05 7.96 78.47 11.13 81.22C13.97 83.68 17.27 85.27 20.91 86.17C21.38 86.29 21.86 86.36 21.83 87.02C21.54 87.47 21.13 87.38 20.72 87.28C19.05 86.85 17.42 86.31 15.86 85.57C10.26 82.95 6.33 78.71 3.84 73.09C2.22 69.44 1.35 65.58 0.97 61.61C0.3 54.79 0.73 48.04 2.15 41.34C3.34 35.78 5.35 30.51 8.14 25.54C8.42 25.05 8.72 24.74 9.31 24.87Z" />
	<path id="&lt;Path&gt;" class="shp9" d="M35.79 154.52C37.17 154.3 38.56 154.11 39.97 154.16C39.11 157.68 38.26 161.2 37.41 164.72C36.82 167.12 36.23 169.51 35.65 171.9C35.46 172.67 35.46 172.67 34.65 172.67C34.21 172.67 33.77 172.68 33.32 172.67C32.84 172.65 32.79 172.58 32.86 172.12C33.15 170.4 33.45 168.68 33.73 166.97C34.27 163.72 34.8 160.47 35.33 157.22C35.48 156.32 35.64 155.42 35.79 154.52Z" />
	<path id="&lt;Path&gt;" class="shp10" d="M82.17 181.14C82.37 180.83 82.31 180.45 82.43 180.11C82.85 178.91 83.67 178.26 84.9 177.96C85.88 177.71 86.81 178.03 87.76 177.99C88.38 178.22 89.01 178.42 89.62 178.66C90.52 179.03 91.36 179.51 92.05 180.21C92.37 180.54 92.62 180.89 92.77 181.32C93.04 182.1 92.86 182.5 92.11 182.85C91.58 183.1 91.01 183.22 90.43 183.28C88.41 183.5 86.4 183.44 84.41 182.99C83.93 182.88 83.46 182.72 83 182.51C82.42 182.23 82.08 181.82 82.17 181.14Z" />
	<path id="&lt;Path&gt;" class="shp11" d="M55.19 181.81C55.97 180.67 57.1 180.31 58.41 180.32C59.24 180.33 60.05 180.43 60.85 180.66C61.8 180.98 62.73 181.32 63.55 181.91C64.1 182.29 64.6 182.73 64.89 183.35C65.31 184.23 65.11 184.76 64.21 185.12C63.45 185.42 62.66 185.54 61.86 185.6C60.17 185.73 58.49 185.66 56.82 185.3C56.31 185.19 55.81 185.04 55.34 184.79C54.85 184.52 54.63 184.15 54.71 183.56C54.79 182.95 54.96 182.38 55.19 181.81Z" />
	<path id="&lt;Path&gt;" class="shp9" d="M40.18 128.24C40.28 128.48 40.23 128.73 40.23 128.97C40.23 135.43 40.23 141.89 40.23 148.35C40.23 148.51 40.22 148.68 40.23 148.84C40.25 149.15 40.11 149.29 39.79 149.3C38.74 149.36 37.69 149.43 36.65 149.5C36.95 147.61 37.25 145.73 37.56 143.85C38.09 140.69 38.61 137.53 39.14 134.36C39.48 132.32 39.83 130.28 40.18 128.24Z" />
	<path id="&lt;Path&gt;" class="shp8" d="M8.12 98.03C8.27 98.63 8.26 98.71 7.73 99.02C6.87 99.54 6.07 100.12 5.38 100.85C4.9 101.36 4.52 101.93 4.35 102.62C4.18 103.3 4.3 103.57 4.93 103.91C5.99 104.48 7.15 104.75 8.31 105C11.08 105.58 13.87 105.94 16.68 106.2C18.88 106.41 21.09 106.58 23.3 106.71C25.2 106.83 27.11 106.92 29.02 107.01C29.65 107.03 29.65 107.04 29.85 107.68C29.68 108.09 29.34 108.14 28.95 108.12C26.68 107.99 24.41 107.9 22.14 107.76C19.34 107.57 16.55 107.35 13.77 107C11.15 106.67 8.54 106.31 6.01 105.53C5.32 105.31 4.66 105.04 4.04 104.66C3.32 104.22 3.03 103.59 3.16 102.76C3.31 101.82 3.74 101.02 4.34 100.32C5.17 99.36 6.19 98.65 7.27 98C7.57 97.82 7.84 97.84 8.12 98.03Z" />
	<path id="&lt;Path&gt;" class="shp1" d="M50.54 76.68C50.86 76.79 51.32 76.91 51.76 77.09C54.11 78.01 56.34 79.18 58.53 80.43C61.5 82.12 64.34 83.99 67.15 85.93C69.06 87.25 70.92 88.65 72.8 90.01C73.44 90.47 73.61 90.79 73.39 91.13C73.18 91.46 72.8 91.41 72.17 90.94C69.22 88.72 66.22 86.59 63.13 84.58C60.13 82.63 57.08 80.78 53.86 79.21C52.84 78.71 51.78 78.3 50.72 77.9C50.51 77.82 50.29 77.76 50.1 77.66C49.84 77.53 49.75 77.31 49.82 77.03C49.9 76.74 50.14 76.67 50.54 76.68Z" />
	<path id="&lt;Path&gt;" class="shp12" d="M72.45 161.64C71.31 161.58 70.23 161.8 69.23 162.36C69.08 162.44 68.94 162.49 68.77 162.48C68.07 161.65 67.28 160.92 66.43 160.25C66.31 160.06 66.24 159.87 66.3 159.63C66.61 158.53 66.9 157.42 67.2 156.32C67.24 156.2 67.35 156.09 67.43 155.98C69.49 157.52 71.29 159.3 72.45 161.64Z" />
	<path id="&lt;Compound Path&gt;" fill-rule="evenodd" class="shp0" d="M47.48 33.48C50.28 33.96 52.34 35.53 53.83 37.93C54 37.7 53.98 37.53 53.97 37.37C54.15 37.46 54.17 37.64 54.18 37.8C54.37 39.69 55.17 41.37 55.98 43.04C58.39 48.02 61.65 52.37 65.72 56.11C66.14 56.5 66.56 56.66 67.13 56.66C74.68 56.64 82.23 56.65 89.78 56.65C90.12 56.65 90.44 56.6 90.78 56.89C91.23 57.29 91.34 57.69 91.33 58.24C91.29 60.41 91.29 62.57 91.28 64.74C91.03 64.36 90.93 63.93 90.77 63.52C90.2 62.01 89.61 60.52 88.77 59.14C88.6 58.85 88.42 58.57 88.2 58.32C87.98 58.08 87.68 58.03 87.36 58.16C87.03 58.28 86.87 58.54 86.88 58.86C86.9 59.22 86.97 59.58 87.05 59.93C87.37 61.43 87.93 62.84 88.5 64.26C88.72 64.82 89.04 65.35 89.11 65.97C88.58 65.97 88.05 66.01 87.55 66.19C85.92 66.76 84.32 66.46 82.75 65.97C81.51 65.59 80.29 65.13 79.07 64.68C75.61 63.4 72.47 61.55 69.6 59.24C69.05 58.81 68.56 58.25 67.72 58.33C67.4 58.36 67.25 58.06 67.37 57.73C67.47 57.46 67.59 57.16 67.21 57.04C66.85 56.92 66.58 57.07 66.41 57.43C65.96 58.41 65.45 59.37 65.01 60.36C64.36 61.82 63.64 63.26 62.94 64.71C62.58 65.44 62.55 65.46 61.83 65.02C60.37 64.12 58.92 63.2 57.47 62.28C57.26 62.15 57.06 61.99 56.83 61.89C56.62 61.8 56.38 61.83 56.23 62.03C56.08 62.23 56.07 62.46 56.21 62.66C56.34 62.83 56.5 63 56.68 63.11C58.59 64.3 60.49 65.48 62.41 66.65C62.86 66.93 63.09 66.87 63.39 66.3C63.62 65.86 63.85 65.85 64.24 66.06C64.87 66.39 65.52 66.68 66.26 67.04C65.95 67.22 65.7 67.16 65.48 67.15C64.63 67.11 63.81 67.24 63.04 67.56C62.12 67.94 61.18 67.93 60.25 67.8C58.53 67.56 56.83 67.19 55.1 66.98C54.5 66.91 54.42 66.76 54.62 66.15C55.33 64.05 55.95 61.93 56.36 59.75C56.63 58.29 56.85 56.81 57 55.33C57.16 53.86 57.1 52.4 57.14 50.93C57.15 50.76 57.14 50.6 57.13 50.43C57.12 50.07 56.96 49.85 56.58 49.86C56.24 49.87 55.95 50.19 56.01 50.54C56.07 50.84 56.12 51.14 56.11 51.44C55.99 54.45 55.76 57.45 55.09 60.4C54.69 62.16 54.22 63.89 53.63 65.59C53.29 66.55 53.19 66.64 52.18 66.48C50.38 66.21 48.59 65.88 46.79 65.58C44.67 65.22 42.54 64.87 40.42 64.49C38.76 64.2 37.11 63.87 35.45 63.59C34.61 63.45 33.78 63.2 32.92 63.17C33.02 62.24 33.17 61.31 33.22 60.39C33.31 59 33.6 57.6 33.2 56.22C33.38 56.13 33.57 56.08 33.72 55.96C35.8 54.41 37.99 53.02 40.15 51.58C40.25 51.52 40.33 51.45 40.42 51.38C40.73 51.15 40.71 50.85 40.55 50.57C40.39 50.31 40.14 50.34 39.89 50.47C39.67 50.59 39.45 50.7 39.24 50.84C37.25 52.18 35.26 53.52 33.27 54.87C33.02 55.04 32.77 55.21 32.64 55.51C31.13 56.5 29.81 57.73 28.6 59.06C28.19 59.51 27.83 59.91 27.15 59.69C27.07 59.66 26.95 59.76 26.85 59.81C26.73 59.42 26.35 59.49 26.08 59.43C24.29 59 22.48 58.6 20.68 58.2C19.39 57.91 18.1 57.64 16.81 57.36C16.6 57.3 16.39 57.23 16.13 57.16C16.26 56.66 16.49 56.26 16.71 55.86C18 53.51 19.56 51.36 21.25 49.29C24.88 44.84 28.91 40.82 33.62 37.5C35.93 35.88 38.38 34.57 41.14 33.87C41.1 35.45 42.8 37.17 44.3 37.49C45.6 37.77 46.72 37.1 47.16 35.85C47.43 35.08 47.49 34.29 47.48 33.48ZM49.8 52C49.84 50.44 49.67 48.8 49.5 47.14C49.28 45.09 48.8 43.11 48.11 41.18C47.81 40.38 47.48 39.58 47.02 38.85C46.84 38.57 46.56 38.41 46.23 38.57C45.88 38.75 45.92 39.05 46.05 39.36C46.09 39.47 46.14 39.56 46.19 39.66C47.88 42.9 48.45 46.41 48.6 50C48.71 52.54 48.64 55.09 48.33 57.63C48.13 59.22 47.94 60.81 47.65 62.38C47.51 63.14 47.38 63.91 47.21 64.66C47.15 64.95 47.22 65.17 47.45 65.31C47.65 65.42 47.89 65.4 48.09 65.27C48.27 65.15 48.28 64.95 48.32 64.76C48.82 62.8 49.09 60.81 49.33 58.8C49.61 56.58 49.83 54.35 49.8 52Z" />
	<path id="&lt;Path&gt;" class="shp0" d="M57.63 151.21C56.18 150.86 54.73 150.48 53.27 150.17C51.01 149.7 48.72 149.42 46.42 149.3C45.8 149.27 45.78 149.26 45.78 148.72C45.78 142.56 45.79 136.4 45.79 130.24C45.79 130.16 45.81 130.08 45.82 129.99C45.92 129.89 45.93 129.75 45.97 129.62C47.19 124.61 48.42 119.6 49.63 114.59C50.19 112.3 50.73 110.01 51.28 107.72C51.36 107.71 51.45 107.69 51.53 107.69C53.74 107.76 55.94 107.56 58.15 107.46C59.46 107.4 60.8 107.47 62.1 107.2C62.42 107.14 62.76 107.18 63.1 107.17C62.42 108.65 61.75 110.14 61.29 111.71C60.5 114.41 59.99 117.16 59.63 119.93C58.98 124.83 58.65 129.75 58.42 134.68C58.26 138.2 58.1 141.71 57.93 145.23C57.84 147.22 57.73 149.22 57.63 151.21Z" />
	<path id="&lt;Path&gt;" class="shp13" d="M106.14 72.38C105.94 72.52 105.71 72.47 105.5 72.47C94.41 72.47 83.33 72.47 72.24 72.47C72.13 72.47 72.02 72.46 71.91 72.46C72.19 71.71 72.08 70.95 71.97 70.19C72.91 70.18 73.85 70.17 74.78 70.16C75.03 70.18 75.28 70.2 75.53 70.2C81.82 70.2 88.1 70.2 94.39 70.2C94.53 70.2 94.67 70.19 94.8 70.18C98.2 70.18 101.6 70.19 105 70.19C105.19 70.19 105.39 70.2 105.58 70.19C105.97 70.16 106.13 70.33 106.12 70.72C106.11 71.27 106.13 71.82 106.14 72.38Z" />
	<path id="&lt;Path&gt;" class="shp9" d="M51.28 107.72C50.73 110.01 50.19 112.3 49.63 114.59C48.42 119.6 47.19 124.61 45.97 129.62C45.93 129.75 45.92 129.89 45.82 129.99C45.8 129.86 45.78 129.72 45.78 129.58C45.78 122.34 45.78 115.09 45.79 107.84C47.62 107.89 49.45 107.65 51.28 107.72Z" />
	<path id="&lt;Path&gt;" class="shp14" d="M33.2 56.22C33.6 57.6 33.31 59 33.22 60.39C33.17 61.31 33.02 62.24 32.92 63.17C32.03 63.42 31.2 63.11 30.36 62.88C29.48 62.64 28.6 62.39 27.76 62.03C27.38 61.87 27 61.68 26.65 61.46C26.17 61.15 26.18 61.08 26.47 60.54C26.6 60.3 26.8 60.09 26.85 59.81C26.95 59.76 27.07 59.66 27.15 59.69C27.83 59.91 28.19 59.51 28.6 59.06C29.81 57.73 31.13 56.5 32.64 55.51C32.61 55.92 32.85 56.11 33.2 56.22Z" />
	<path id="&lt;Path&gt;" class="shp15" d="M89.11 65.97C89.04 65.35 88.72 64.82 88.5 64.26C87.93 62.84 87.37 61.43 87.05 59.93C86.97 59.58 86.9 59.22 86.88 58.86C86.87 58.54 87.03 58.28 87.36 58.16C87.68 58.03 87.98 58.08 88.2 58.32C88.42 58.57 88.6 58.85 88.77 59.14C89.61 60.52 90.2 62.01 90.77 63.52C90.93 63.93 91.03 64.36 91.28 64.74C91.52 65.48 91.77 66.23 92.02 66.97C92.3 67.84 92.58 68.7 92.86 69.58C91.63 69.7 90.61 69.12 90.15 68.11C89.82 67.39 89.55 66.64 89.11 65.97Z" />
	<path id="&lt;Path&gt;" class="shp0" d="M74.78 70.16C73.85 70.17 72.91 70.18 71.97 70.19C71.76 69.85 71.54 69.51 71.32 69.17C71.35 69.12 71.38 69.07 71.41 69.03C72.51 69.47 73.7 69.65 74.78 70.16Z" />
	<path id="&lt;Compound Path&gt;" fill-rule="evenodd" class="shp0" d="M100.4 4.86C113.9 4.86 127.39 4.86 140.88 4.86C142.09 4.86 141.93 4.72 141.93 5.94C141.93 18.9 141.93 31.86 141.93 44.83C141.93 44.97 141.93 45.11 141.93 45.24C141.91 45.87 141.91 45.87 141.27 45.88C141.11 45.89 140.94 45.88 140.77 45.88C113.84 45.88 86.92 45.88 59.99 45.88C58.76 45.88 58.9 46.06 58.9 44.76C58.89 31.8 58.9 18.83 58.9 5.87C58.9 4.69 58.8 4.86 59.93 4.86C73.42 4.86 86.91 4.86 100.4 4.86ZM121.45 16.68C116.34 16.68 111.24 16.68 106.13 16.68C105.03 16.68 105.11 16.63 105.11 17.74C105.11 25.54 105.11 33.33 105.11 41.13C105.11 42.28 105.02 42.19 106.2 42.19C116.3 42.2 126.4 42.2 136.5 42.2C136.7 42.2 136.89 42.18 137.09 42.2C137.49 42.22 137.64 42.02 137.61 41.64C137.6 41.51 137.61 41.37 137.61 41.23C137.61 33.38 137.61 25.52 137.61 17.67C137.61 16.63 137.66 16.68 136.6 16.68C131.55 16.68 126.5 16.68 121.45 16.68ZM92.54 34.69C90.06 34.69 87.59 34.69 85.12 34.69C84.9 34.69 84.68 34.69 84.46 34.7C84.31 34.71 84.17 34.77 84.16 34.93C84.12 35.31 84.01 35.73 84.23 36.06C84.39 36.32 84.74 36.17 85.01 36.2C85.04 36.2 85.06 36.2 85.09 36.2C90.06 36.2 95.03 36.2 100 36.2C100.17 36.2 100.33 36.19 100.5 36.2C100.81 36.21 100.96 36.06 100.96 35.75C100.95 35.53 100.95 35.31 100.95 35.08C100.95 34.8 100.8 34.69 100.53 34.69C100.34 34.69 100.14 34.69 99.95 34.69C97.48 34.69 95.01 34.69 92.54 34.69ZM92.46 27.2C94.95 27.2 97.45 27.2 99.95 27.2C100.17 27.2 100.4 27.2 100.62 27.19C100.76 27.18 100.9 27.13 100.92 26.96C100.97 26.58 101.07 26.17 100.86 25.83C100.7 25.57 100.35 25.72 100.08 25.69C100.05 25.68 100.03 25.69 100 25.69C95.03 25.69 90.06 25.69 85.09 25.69C84.92 25.69 84.75 25.69 84.59 25.69C84.28 25.68 84.12 25.81 84.13 26.13C84.13 26.38 84.13 26.63 84.14 26.88C84.15 27.07 84.27 27.18 84.46 27.19C84.68 27.2 84.9 27.2 85.12 27.2C87.57 27.2 90.01 27.2 92.46 27.2ZM92.62 16.69C90.12 16.69 87.62 16.69 85.12 16.69C84.9 16.69 84.68 16.69 84.46 16.7C84.31 16.71 84.17 16.77 84.16 16.94C84.12 17.32 84.01 17.73 84.23 18.07C84.39 18.33 84.74 18.17 85.01 18.2C85.03 18.21 85.06 18.21 85.09 18.21C90.06 18.21 95.03 18.21 100 18.21C100.17 18.21 100.33 18.2 100.5 18.2C100.81 18.21 100.96 18.07 100.96 17.76C100.95 17.53 100.95 17.31 100.95 17.09C100.95 16.81 100.8 16.69 100.53 16.7C100.34 16.7 100.14 16.69 99.95 16.69C97.51 16.69 95.06 16.69 92.62 16.69ZM71.46 21.2C73.96 21.2 76.46 21.2 78.96 21.2C79.18 21.2 79.4 21.2 79.62 21.19C79.76 21.18 79.91 21.13 79.93 20.97C79.98 20.59 80.07 20.17 79.87 19.83C79.72 19.57 79.36 19.72 79.09 19.69C79.07 19.68 79.04 19.69 79.01 19.69C74.04 19.69 69.07 19.69 64.1 19.69C63.94 19.69 63.77 19.69 63.6 19.69C63.3 19.68 63.13 19.81 63.14 20.13C63.14 20.38 63.14 20.63 63.15 20.88C63.16 21.07 63.27 21.18 63.46 21.19C63.68 21.2 63.91 21.2 64.13 21.2C66.57 21.2 69.02 21.2 71.46 21.2ZM92.62 37.68C91.7 37.68 90.79 37.68 89.88 37.68C88.19 37.68 86.5 37.68 84.81 37.68C84.13 37.69 84.12 37.71 84.12 38.4C84.12 38.48 84.12 38.57 84.12 38.65C84.09 39.03 84.24 39.22 84.64 39.2C84.81 39.19 84.97 39.2 85.14 39.2C90.07 39.2 95 39.2 99.93 39.2C100.1 39.2 100.27 39.19 100.43 39.2C100.83 39.22 100.98 39.03 100.96 38.65C100.94 38.45 100.95 38.26 100.95 38.07C100.94 37.84 100.83 37.7 100.6 37.69C100.38 37.68 100.15 37.68 99.93 37.68C97.49 37.68 95.06 37.68 92.62 37.68ZM92.54 21.2C95.01 21.2 97.48 21.2 99.95 21.2C100.17 21.2 100.39 21.2 100.61 21.19C100.76 21.18 100.9 21.13 100.92 20.97C100.97 20.59 101.07 20.17 100.86 19.83C100.7 19.57 100.35 19.72 100.08 19.69C100.06 19.69 100.03 19.69 100 19.69C95.03 19.69 90.06 19.69 85.09 19.69C84.92 19.69 84.76 19.7 84.59 19.69C84.29 19.68 84.12 19.81 84.13 20.13C84.13 20.38 84.13 20.63 84.14 20.88C84.15 21.07 84.27 21.18 84.46 21.19C84.68 21.2 84.9 21.2 85.12 21.2C87.59 21.2 90.07 21.2 92.54 21.2ZM71.63 22.68C69.13 22.68 66.63 22.68 64.13 22.69C63.91 22.69 63.69 22.68 63.46 22.7C63.32 22.71 63.18 22.77 63.17 22.93C63.13 23.32 63.02 23.73 63.24 24.07C63.4 24.33 63.75 24.17 64.02 24.2C64.07 24.21 64.13 24.2 64.18 24.2C69.1 24.2 74.01 24.2 78.93 24.2C79.09 24.2 79.26 24.19 79.43 24.2C79.81 24.23 79.99 24.06 79.97 23.67C79.95 23.47 79.96 23.28 79.96 23.08C79.96 22.8 79.8 22.69 79.54 22.69C79.34 22.69 79.15 22.68 78.96 22.68C76.51 22.68 74.07 22.68 71.63 22.68ZM92.54 42.2C95.01 42.2 97.48 42.2 99.95 42.2C100.17 42.2 100.39 42.2 100.62 42.19C100.76 42.18 100.9 42.13 100.92 41.96C100.97 41.58 101.07 41.17 100.86 40.83C100.71 40.56 100.35 40.72 100.08 40.68C100.06 40.68 100.03 40.68 100 40.68C95.03 40.68 90.06 40.68 85.09 40.68C84.92 40.68 84.76 40.69 84.59 40.69C84.29 40.68 84.12 40.81 84.13 41.12C84.13 41.37 84.13 41.62 84.14 41.87C84.15 42.07 84.26 42.18 84.46 42.19C84.68 42.2 84.9 42.2 85.12 42.2C87.59 42.2 90.06 42.2 92.54 42.2ZM92.54 24.21C95.01 24.21 97.48 24.21 99.95 24.21C100.17 24.21 100.39 24.21 100.62 24.19C100.76 24.18 100.9 24.13 100.92 23.97C100.97 23.59 101.07 23.17 100.86 22.83C100.7 22.57 100.35 22.72 100.08 22.69C100.06 22.69 100.03 22.69 100 22.69C95.03 22.69 90.06 22.69 85.09 22.69C84.92 22.69 84.76 22.69 84.59 22.69C84.29 22.68 84.12 22.81 84.13 23.13C84.13 23.38 84.13 23.63 84.14 23.88C84.15 24.07 84.26 24.18 84.46 24.19C84.68 24.21 84.9 24.21 85.12 24.21C87.59 24.21 90.06 24.21 92.54 24.21ZM92.52 30.2C95 30.2 97.47 30.2 99.94 30.2C100.16 30.2 100.38 30.2 100.6 30.19C100.75 30.18 100.89 30.14 100.92 29.98C100.98 29.59 101.06 29.18 100.87 28.84C100.72 28.57 100.36 28.72 100.09 28.69C100.04 28.68 99.98 28.69 99.93 28.69C94.99 28.69 90.04 28.69 85.1 28.69C84.91 28.69 84.71 28.69 84.52 28.7C84.38 28.7 84.21 28.73 84.18 28.87C84.09 29.25 84.04 29.67 84.19 30.02C84.32 30.32 84.68 30.2 84.95 30.2C87.47 30.21 90 30.2 92.52 30.2ZM92.61 31.69C90.11 31.69 87.61 31.69 85.12 31.69C84.89 31.69 84.67 31.69 84.45 31.7C84.3 31.71 84.17 31.78 84.16 31.94C84.13 32.32 84.01 32.74 84.23 33.07C84.4 33.33 84.75 33.17 85.02 33.2C85.07 33.21 85.13 33.2 85.18 33.2C90.1 33.2 95.01 33.2 99.92 33.2C100.09 33.2 100.26 33.19 100.42 33.2C100.82 33.23 100.99 33.05 100.96 32.66C100.95 32.52 100.95 32.38 100.96 32.24C100.99 31.87 100.85 31.66 100.44 31.69C100.25 31.7 100.05 31.69 99.86 31.69C97.44 31.69 95.03 31.69 92.61 31.69ZM71.61 39.2C72.08 39.2 72.55 39.2 73.02 39.2C75.1 39.2 77.18 39.2 79.26 39.2C79.95 39.19 79.96 39.17 79.97 38.5C79.97 38.39 79.96 38.27 79.97 38.16C79.99 37.8 79.8 37.67 79.46 37.68C79.29 37.69 79.12 37.68 78.96 37.68C74.08 37.68 69.2 37.68 64.32 37.68C64.15 37.68 63.98 37.69 63.82 37.68C63.43 37.66 63.25 37.83 63.28 38.22C63.29 38.41 63.28 38.61 63.28 38.8C63.29 39.08 63.44 39.19 63.71 39.19C63.9 39.19 64.1 39.2 64.29 39.2C66.73 39.2 69.17 39.2 71.61 39.2ZM71.54 42.2C72.34 42.2 73.15 42.2 73.95 42.2C75.73 42.2 77.5 42.2 79.28 42.2C79.95 42.19 79.96 42.17 79.97 41.48C79.97 41.4 79.96 41.32 79.97 41.23C80 40.85 79.84 40.66 79.44 40.68C79.28 40.69 79.11 40.68 78.94 40.68C74.06 40.68 69.18 40.68 64.3 40.68C64.14 40.68 63.97 40.69 63.81 40.68C63.41 40.66 63.25 40.85 63.28 41.23C63.29 41.43 63.28 41.62 63.29 41.81C63.29 42.05 63.41 42.18 63.64 42.19C63.86 42.2 64.08 42.2 64.3 42.2C66.72 42.2 69.13 42.2 71.54 42.2ZM71.54 27.2C74.01 27.2 76.48 27.2 78.94 27.2C79.17 27.2 79.39 27.2 79.61 27.19C79.75 27.18 79.9 27.14 79.93 26.98C79.99 26.6 80.07 26.18 79.88 25.84C79.73 25.57 79.37 25.72 79.11 25.69C79.05 25.68 79 25.69 78.94 25.69C74.06 25.69 69.18 25.69 64.3 25.69C64.14 25.69 63.97 25.7 63.8 25.69C63.41 25.66 63.25 25.86 63.28 26.24C63.29 26.43 63.28 26.63 63.29 26.82C63.29 27.05 63.41 27.18 63.64 27.19C63.86 27.2 64.08 27.2 64.31 27.2C66.72 27.2 69.13 27.2 71.54 27.2ZM71.62 28.69C69.18 28.69 66.74 28.69 64.31 28.69C64.08 28.69 63.86 28.69 63.64 28.7C63.5 28.7 63.35 28.75 63.32 28.91C63.26 29.29 63.18 29.7 63.36 30.05C63.51 30.32 63.87 30.17 64.14 30.2C64.19 30.2 64.25 30.2 64.3 30.2C69.18 30.2 74.06 30.2 78.94 30.2C79.11 30.2 79.28 30.19 79.44 30.2C79.84 30.23 79.99 30.03 79.97 29.65C79.95 29.46 79.96 29.26 79.96 29.07C79.96 28.84 79.84 28.71 79.61 28.7C79.39 28.69 79.17 28.69 78.94 28.69C76.5 28.69 74.06 28.69 71.62 28.69ZM71.63 33.2C74.07 33.2 76.51 33.2 78.95 33.2C79.17 33.2 79.39 33.2 79.61 33.19C79.76 33.18 79.9 33.14 79.93 32.97C79.98 32.59 80.07 32.18 79.88 31.83C79.73 31.56 79.37 31.71 79.1 31.69C79.05 31.68 78.99 31.68 78.94 31.68C74.06 31.68 69.18 31.68 64.3 31.68C64.13 31.68 63.97 31.69 63.8 31.68C63.4 31.66 63.25 31.86 63.28 32.24C63.29 32.43 63.28 32.63 63.29 32.82C63.29 33.06 63.41 33.18 63.65 33.19C63.87 33.2 64.09 33.2 64.31 33.2C66.75 33.2 69.19 33.2 71.63 33.2ZM71.63 18.2C74.16 18.2 76.68 18.2 79.2 18.2C79.96 18.2 79.98 18.18 79.97 17.4C79.97 17.28 79.96 17.17 79.96 17.06C79.95 16.83 79.83 16.71 79.6 16.7C79.38 16.69 79.16 16.69 78.93 16.69C75.33 16.69 71.73 16.69 68.12 16.69C66.76 16.69 65.4 16.68 64.05 16.69C63.28 16.69 63.27 16.72 63.28 17.5C63.28 17.61 63.28 17.72 63.29 17.83C63.29 18.06 63.42 18.18 63.65 18.19C63.87 18.2 64.09 18.2 64.31 18.2C66.75 18.2 69.19 18.2 71.63 18.2ZM71.62 36.2C72.31 36.2 73.01 36.2 73.7 36.2C75.56 36.2 77.41 36.21 79.27 36.2C79.95 36.2 79.96 36.17 79.97 35.49C79.97 35.4 79.96 35.32 79.97 35.24C80 34.86 79.85 34.66 79.45 34.68C79.28 34.69 79.11 34.68 78.95 34.68C74.07 34.68 69.19 34.68 64.31 34.68C64.14 34.68 63.97 34.69 63.81 34.68C63.41 34.66 63.25 34.85 63.28 35.23C63.29 35.4 63.28 35.56 63.28 35.73C63.27 36.03 63.4 36.2 63.72 36.2C63.91 36.19 64.11 36.2 64.3 36.2C66.74 36.2 69.18 36.2 71.62 36.2Z" />
	<path id="&lt;Path&gt;" class="shp1" d="M47.48 33.48C47.49 34.29 47.43 35.08 47.16 35.85C46.72 37.1 45.6 37.77 44.3 37.49C42.8 37.17 41.1 35.45 41.14 33.87C41.64 31.6 42.13 29.33 42.64 27.06C42.89 25.93 43.18 24.81 43.45 23.71C43.27 23.53 43.09 23.58 42.94 23.56C41.82 23.4 40.99 22.67 40.72 21.59C40.59 21.05 40.61 20.53 41.03 20.12C41.46 19.7 42.03 19.62 42.5 19.89C43.37 20.39 44.03 20 44.72 19.58C45.48 19.1 46.11 18.48 46.69 17.81C47.69 16.65 48.52 15.37 49.28 14.04C49.42 13.81 49.49 13.53 49.77 13.34C50.38 13.74 50.83 14.29 51.21 14.91C52.22 16.54 52.57 18.35 52.55 20.24C52.53 21.65 52.4 23.06 51.97 24.42C51.75 25.11 51.49 25.78 51.07 26.38C50.15 27.69 48.87 28.1 47.35 27.55C46.58 27.27 45.93 26.81 45.34 26.25C45.11 26.03 44.87 25.82 44.56 26.1C44.32 26.3 44.36 26.63 44.66 26.98C45.27 27.69 46.04 28.17 46.91 28.49C47.67 28.76 47.66 28.76 47.64 29.58C47.62 30.88 47.43 32.18 47.48 33.48Z" />
	<path id="&lt;Path&gt;" class="shp1" d="M49.8 52C49.83 54.35 49.61 56.58 49.33 58.8C49.09 60.81 48.82 62.8 48.32 64.76C48.28 64.95 48.27 65.15 48.09 65.27C47.89 65.4 47.65 65.42 47.45 65.31C47.22 65.17 47.15 64.95 47.21 64.66C47.38 63.91 47.51 63.14 47.65 62.38C47.94 60.81 48.13 59.22 48.33 57.63C48.64 55.09 48.71 52.54 48.6 50C48.45 46.41 47.88 42.9 46.19 39.66C46.14 39.56 46.09 39.47 46.05 39.36C45.92 39.05 45.88 38.75 46.23 38.57C46.56 38.41 46.84 38.57 47.02 38.85C47.48 39.58 47.81 40.38 48.11 41.18C48.8 43.11 49.28 45.09 49.5 47.14C49.67 48.8 49.84 50.44 49.8 52Z" />
	<path id="&lt;Path&gt;" class="shp1" d="M33.2 56.22C32.85 56.11 32.61 55.92 32.64 55.51C32.77 55.21 33.02 55.04 33.27 54.87C35.26 53.52 37.25 52.18 39.24 50.84C39.45 50.7 39.67 50.59 39.89 50.47C40.14 50.34 40.39 50.31 40.55 50.57C40.71 50.85 40.73 51.15 40.42 51.38C40.33 51.45 40.25 51.52 40.15 51.58C37.99 53.02 35.8 54.41 33.72 55.96C33.57 56.08 33.38 56.13 33.2 56.22Z" />
	<path id="&lt;Path&gt;" class="shp1" d="M121.45 16.68C126.5 16.68 131.55 16.68 136.6 16.68C137.66 16.68 137.61 16.63 137.61 17.67C137.61 25.52 137.61 33.38 137.61 41.23C137.61 41.37 137.6 41.51 137.61 41.64C137.64 42.02 137.49 42.22 137.09 42.2C136.89 42.18 136.7 42.2 136.5 42.2C126.4 42.2 116.3 42.2 106.2 42.19C105.02 42.19 105.11 42.28 105.11 41.13C105.11 33.33 105.11 25.54 105.11 17.74C105.11 16.63 105.03 16.68 106.13 16.68C111.24 16.68 116.34 16.68 121.45 16.68Z" />
	<path id="&lt;Path&gt;" class="shp1" d="M92.54 34.69C95.01 34.69 97.48 34.69 99.95 34.69C100.14 34.69 100.34 34.69 100.53 34.69C100.8 34.69 100.95 34.8 100.95 35.08C100.95 35.31 100.95 35.53 100.96 35.75C100.96 36.06 100.81 36.21 100.5 36.2C100.33 36.19 100.17 36.2 100 36.2C95.03 36.2 90.06 36.2 85.09 36.2C85.06 36.2 85.04 36.2 85.01 36.2C84.74 36.17 84.39 36.32 84.23 36.06C84.01 35.73 84.12 35.31 84.16 34.93C84.17 34.77 84.31 34.71 84.46 34.7C84.68 34.69 84.9 34.69 85.12 34.69C87.59 34.69 90.06 34.69 92.54 34.69Z" />
	<path id="&lt;Path&gt;" class="shp1" d="M92.46 27.2C90.01 27.2 87.57 27.2 85.12 27.2C84.9 27.2 84.68 27.2 84.46 27.19C84.27 27.18 84.15 27.07 84.14 26.88C84.13 26.63 84.13 26.38 84.13 26.13C84.12 25.81 84.28 25.68 84.59 25.69C84.75 25.69 84.92 25.69 85.09 25.69C90.06 25.69 95.03 25.69 100 25.69C100.03 25.69 100.05 25.68 100.08 25.69C100.35 25.72 100.7 25.57 100.86 25.83C101.07 26.17 100.97 26.58 100.92 26.96C100.9 27.13 100.76 27.18 100.62 27.19C100.4 27.2 100.17 27.2 99.95 27.2C97.45 27.2 94.95 27.2 92.46 27.2Z" />
	<path id="&lt;Path&gt;" class="shp1" d="M92.62 16.69C95.06 16.69 97.51 16.69 99.95 16.69C100.14 16.69 100.34 16.7 100.53 16.7C100.8 16.69 100.95 16.81 100.95 17.09C100.95 17.31 100.95 17.53 100.96 17.76C100.96 18.07 100.81 18.21 100.5 18.2C100.33 18.2 100.17 18.21 100 18.21C95.03 18.21 90.06 18.21 85.09 18.21C85.06 18.21 85.03 18.21 85.01 18.2C84.74 18.17 84.39 18.33 84.23 18.07C84.01 17.73 84.12 17.32 84.16 16.94C84.17 16.77 84.31 16.71 84.46 16.7C84.68 16.69 84.9 16.69 85.12 16.69C87.62 16.69 90.12 16.69 92.62 16.69Z" />
	<path id="&lt;Path&gt;" class="shp1" d="M71.46 21.2C69.02 21.2 66.57 21.2 64.13 21.2C63.91 21.2 63.68 21.2 63.46 21.19C63.27 21.18 63.16 21.07 63.15 20.88C63.14 20.63 63.14 20.38 63.14 20.13C63.13 19.81 63.3 19.68 63.6 19.69C63.77 19.69 63.94 19.69 64.1 19.69C69.07 19.69 74.04 19.69 79.01 19.69C79.04 19.69 79.07 19.68 79.09 19.69C79.36 19.72 79.72 19.57 79.87 19.83C80.07 20.17 79.98 20.59 79.93 20.97C79.91 21.13 79.76 21.18 79.62 21.19C79.4 21.2 79.18 21.2 78.96 21.2C76.46 21.2 73.96 21.2 71.46 21.2Z" />
	<path id="&lt;Path&gt;" class="shp1" d="M92.62 37.68C95.06 37.68 97.49 37.68 99.93 37.68C100.15 37.68 100.38 37.68 100.6 37.69C100.83 37.7 100.94 37.84 100.95 38.07C100.95 38.26 100.94 38.45 100.96 38.65C100.98 39.03 100.83 39.22 100.43 39.2C100.27 39.19 100.1 39.2 99.93 39.2C95 39.2 90.07 39.2 85.14 39.2C84.97 39.2 84.81 39.19 84.64 39.2C84.24 39.22 84.09 39.03 84.12 38.65C84.12 38.57 84.12 38.48 84.12 38.4C84.12 37.71 84.13 37.69 84.81 37.68C86.5 37.68 88.19 37.68 89.88 37.68C90.79 37.68 91.7 37.68 92.62 37.68Z" />
	<path id="&lt;Path&gt;" class="shp1" d="M92.54 21.2C90.07 21.2 87.59 21.2 85.12 21.2C84.9 21.2 84.68 21.2 84.46 21.19C84.27 21.18 84.15 21.07 84.14 20.88C84.13 20.63 84.13 20.38 84.13 20.13C84.12 19.81 84.29 19.68 84.59 19.69C84.76 19.7 84.92 19.69 85.09 19.69C90.06 19.69 95.03 19.69 100 19.69C100.03 19.69 100.06 19.69 100.08 19.69C100.35 19.72 100.7 19.57 100.86 19.83C101.07 20.17 100.97 20.59 100.92 20.97C100.9 21.13 100.76 21.18 100.61 21.19C100.39 21.2 100.17 21.2 99.95 21.2C97.48 21.2 95.01 21.2 92.54 21.2Z" />
	<path id="&lt;Path&gt;" class="shp1" d="M71.63 22.68C74.07 22.68 76.51 22.68 78.96 22.68C79.15 22.68 79.34 22.69 79.54 22.69C79.8 22.69 79.96 22.8 79.96 23.08C79.96 23.28 79.95 23.47 79.97 23.67C79.99 24.06 79.81 24.23 79.43 24.2C79.26 24.19 79.09 24.2 78.93 24.2C74.01 24.2 69.1 24.2 64.18 24.2C64.13 24.2 64.07 24.21 64.02 24.2C63.75 24.17 63.4 24.33 63.24 24.07C63.02 23.73 63.13 23.32 63.17 22.93C63.18 22.77 63.32 22.71 63.46 22.7C63.69 22.68 63.91 22.69 64.13 22.69C66.63 22.68 69.13 22.68 71.63 22.68Z" />
	<path id="&lt;Path&gt;" class="shp1" d="M92.54 42.2C90.06 42.2 87.59 42.2 85.12 42.2C84.9 42.2 84.68 42.2 84.46 42.19C84.26 42.18 84.15 42.07 84.14 41.87C84.13 41.62 84.13 41.37 84.13 41.12C84.12 40.81 84.29 40.68 84.59 40.69C84.76 40.69 84.92 40.68 85.09 40.68C90.06 40.68 95.03 40.68 100 40.68C100.03 40.68 100.06 40.68 100.08 40.68C100.35 40.72 100.71 40.56 100.86 40.83C101.07 41.17 100.97 41.58 100.92 41.96C100.9 42.13 100.76 42.18 100.62 42.19C100.39 42.2 100.17 42.2 99.95 42.2C97.48 42.2 95.01 42.2 92.54 42.2Z" />
	<path id="&lt;Path&gt;" class="shp1" d="M92.54 24.21C90.06 24.21 87.59 24.21 85.12 24.21C84.9 24.21 84.68 24.21 84.46 24.19C84.26 24.18 84.15 24.07 84.14 23.88C84.13 23.63 84.13 23.38 84.13 23.13C84.12 22.81 84.29 22.68 84.59 22.69C84.76 22.69 84.92 22.69 85.09 22.69C90.06 22.69 95.03 22.69 100 22.69C100.03 22.69 100.06 22.69 100.08 22.69C100.35 22.72 100.7 22.57 100.86 22.83C101.07 23.17 100.97 23.59 100.92 23.97C100.9 24.13 100.76 24.18 100.62 24.19C100.39 24.21 100.17 24.21 99.95 24.21C97.48 24.21 95.01 24.21 92.54 24.21Z" />
	<path id="&lt;Path&gt;" class="shp1" d="M92.52 30.2C90 30.2 87.47 30.21 84.95 30.2C84.68 30.2 84.32 30.32 84.19 30.02C84.04 29.67 84.09 29.25 84.18 28.87C84.21 28.73 84.38 28.7 84.52 28.7C84.71 28.69 84.91 28.69 85.1 28.69C90.04 28.69 94.99 28.69 99.93 28.69C99.98 28.69 100.04 28.68 100.09 28.69C100.36 28.72 100.72 28.57 100.87 28.84C101.06 29.18 100.98 29.59 100.92 29.98C100.89 30.14 100.75 30.18 100.6 30.19C100.38 30.2 100.16 30.2 99.94 30.2C97.47 30.2 95 30.2 92.52 30.2Z" />
	<path id="&lt;Path&gt;" class="shp1" d="M92.61 31.69C95.03 31.69 97.44 31.69 99.86 31.69C100.05 31.69 100.25 31.7 100.44 31.69C100.85 31.66 100.99 31.87 100.96 32.24C100.95 32.38 100.95 32.52 100.96 32.66C100.99 33.05 100.82 33.23 100.42 33.2C100.26 33.19 100.09 33.2 99.92 33.2C95.01 33.2 90.1 33.2 85.18 33.2C85.13 33.2 85.07 33.21 85.02 33.2C84.75 33.17 84.4 33.33 84.23 33.07C84.01 32.74 84.13 32.32 84.16 31.94C84.17 31.78 84.3 31.71 84.45 31.7C84.67 31.69 84.89 31.69 85.12 31.69C87.61 31.69 90.11 31.69 92.61 31.69Z" />
	<path id="&lt;Path&gt;" class="shp1" d="M71.61 39.2C69.17 39.2 66.73 39.2 64.29 39.2C64.1 39.2 63.9 39.19 63.71 39.19C63.44 39.19 63.29 39.08 63.28 38.8C63.28 38.61 63.29 38.41 63.28 38.22C63.25 37.83 63.43 37.66 63.82 37.68C63.98 37.69 64.15 37.68 64.32 37.68C69.2 37.68 74.08 37.68 78.96 37.68C79.12 37.68 79.29 37.69 79.46 37.68C79.8 37.67 79.99 37.8 79.97 38.16C79.96 38.27 79.97 38.39 79.97 38.5C79.96 39.17 79.95 39.19 79.26 39.2C77.18 39.2 75.1 39.2 73.02 39.2C72.55 39.2 72.08 39.2 71.61 39.2Z" />
	<path id="&lt;Path&gt;" class="shp1" d="M71.54 42.2C69.13 42.2 66.72 42.2 64.3 42.2C64.08 42.2 63.86 42.2 63.64 42.19C63.41 42.18 63.29 42.05 63.29 41.81C63.28 41.62 63.29 41.43 63.28 41.23C63.25 40.85 63.41 40.66 63.81 40.68C63.97 40.69 64.14 40.68 64.3 40.68C69.18 40.68 74.06 40.68 78.94 40.68C79.11 40.68 79.28 40.69 79.44 40.68C79.84 40.66 80 40.85 79.97 41.23C79.96 41.32 79.97 41.4 79.97 41.48C79.96 42.17 79.95 42.19 79.28 42.2C77.5 42.2 75.73 42.2 73.95 42.2C73.15 42.2 72.34 42.2 71.54 42.2Z" />
	<path id="&lt;Path&gt;" class="shp1" d="M71.54 27.2C69.13 27.2 66.72 27.2 64.31 27.2C64.08 27.2 63.86 27.2 63.64 27.19C63.41 27.18 63.29 27.05 63.29 26.82C63.28 26.63 63.29 26.43 63.28 26.24C63.25 25.86 63.41 25.66 63.8 25.69C63.97 25.7 64.14 25.69 64.3 25.69C69.18 25.69 74.06 25.69 78.94 25.69C79 25.69 79.05 25.68 79.11 25.69C79.37 25.72 79.73 25.57 79.88 25.84C80.07 26.18 79.99 26.6 79.93 26.98C79.9 27.14 79.75 27.18 79.61 27.19C79.39 27.2 79.17 27.2 78.94 27.2C76.48 27.2 74.01 27.2 71.54 27.2Z" />
	<path id="&lt;Path&gt;" class="shp1" d="M71.62 28.69C74.06 28.69 76.5 28.69 78.94 28.69C79.17 28.69 79.39 28.69 79.61 28.7C79.84 28.71 79.96 28.84 79.96 29.07C79.96 29.26 79.95 29.46 79.97 29.65C79.99 30.03 79.84 30.23 79.44 30.2C79.28 30.19 79.11 30.2 78.94 30.2C74.06 30.2 69.18 30.2 64.3 30.2C64.25 30.2 64.19 30.2 64.14 30.2C63.87 30.17 63.51 30.32 63.36 30.05C63.18 29.7 63.26 29.29 63.32 28.91C63.35 28.75 63.5 28.7 63.64 28.7C63.86 28.69 64.08 28.69 64.31 28.69C66.74 28.69 69.18 28.69 71.62 28.69Z" />
	<path id="&lt;Path&gt;" class="shp1" d="M71.63 33.2C69.19 33.2 66.75 33.2 64.31 33.2C64.09 33.2 63.87 33.2 63.65 33.19C63.41 33.18 63.29 33.06 63.29 32.82C63.28 32.63 63.29 32.43 63.28 32.24C63.25 31.86 63.4 31.66 63.8 31.68C63.97 31.69 64.13 31.68 64.3 31.68C69.18 31.68 74.06 31.68 78.94 31.68C78.99 31.68 79.05 31.68 79.1 31.69C79.37 31.71 79.73 31.56 79.88 31.83C80.07 32.18 79.98 32.59 79.93 32.97C79.9 33.14 79.76 33.18 79.61 33.19C79.39 33.2 79.17 33.2 78.95 33.2C76.51 33.2 74.07 33.2 71.63 33.2Z" />
	<path id="&lt;Path&gt;" class="shp1" d="M71.63 18.2C69.19 18.2 66.75 18.2 64.31 18.2C64.09 18.2 63.87 18.2 63.65 18.19C63.42 18.18 63.29 18.06 63.29 17.83C63.28 17.72 63.28 17.61 63.28 17.5C63.27 16.72 63.28 16.69 64.05 16.69C65.4 16.68 66.76 16.69 68.12 16.69C71.73 16.69 75.33 16.69 78.93 16.69C79.16 16.69 79.38 16.69 79.6 16.7C79.83 16.71 79.95 16.83 79.96 17.06C79.96 17.17 79.97 17.28 79.97 17.4C79.98 18.18 79.96 18.2 79.2 18.2C76.68 18.2 74.16 18.2 71.63 18.2Z" />
	<path id="&lt;Path&gt;" class="shp1" d="M71.62 36.2C69.18 36.2 66.74 36.2 64.3 36.2C64.11 36.2 63.91 36.19 63.72 36.2C63.4 36.2 63.27 36.03 63.28 35.73C63.28 35.56 63.29 35.4 63.28 35.23C63.25 34.85 63.41 34.66 63.81 34.68C63.97 34.69 64.14 34.68 64.31 34.68C69.19 34.68 74.07 34.68 78.95 34.68C79.11 34.68 79.28 34.69 79.45 34.68C79.85 34.66 80 34.86 79.97 35.24C79.96 35.32 79.97 35.4 79.97 35.49C79.96 36.17 79.95 36.2 79.27 36.2C77.41 36.21 75.56 36.2 73.7 36.2C73.01 36.2 72.31 36.2 71.62 36.2Z" />
</svg>