<svg xmlns="http://www.w3.org/2000/svg" viewBox="0 0 9 12" width="9" height="12">
	<style>
		tspan { white-space:pre }
		.shp0 { fill: #f25b3e } 
	</style>
	<g id="&lt;Group&gt;">
		<g id="&lt;Group&gt;">
			<path id="&lt;Compound Path&gt;" fill-rule="evenodd" class="shp0" d="M8.42 4.71C8.42 7.61 4.73 11.06 4.58 11.21C4.53 11.25 4.48 11.27 4.42 11.27C4.37 11.27 4.31 11.25 4.27 11.21C4.11 11.06 0.43 7.61 0.43 4.71C0.43 2.54 2.22 0.77 4.42 0.77C6.63 0.77 8.42 2.54 8.42 4.71ZM7.98 4.71C7.98 2.78 6.38 1.21 4.42 1.21C2.46 1.21 0.87 2.78 0.87 4.71C0.87 7.1 3.73 10.06 4.42 10.75C5.12 10.06 7.98 7.1 7.98 4.71Z" />
			<path id="&lt;Compound Path&gt;" fill-rule="evenodd" class="shp0" d="M6.64 4.71C6.64 5.91 5.65 6.9 4.42 6.9C3.2 6.9 2.2 5.91 2.2 4.71C2.2 3.5 3.2 2.52 4.42 2.52C5.65 2.52 6.64 3.5 6.64 4.71ZM6.2 4.71C6.2 3.74 5.4 2.96 4.42 2.96C3.44 2.96 2.65 3.74 2.65 4.71C2.65 5.67 3.44 6.46 4.42 6.46C5.4 6.46 6.2 5.67 6.2 4.71Z" />
		</g>
	</g>
</svg>