<svg xmlns="http://www.w3.org/2000/svg" viewBox="0 0 77 24" width="77" height="24">
	<style>
		tspan { white-space:pre }
		.shp0 { fill: #f25b3e } 
		.shp1 { fill: #274c95 } 
	</style>
	<path id="&lt;Compound Path&gt;" class="shp0" d="M32.49 8.88C31.91 8.69 31.47 8.44 31.14 8.14L31.57 7.23C31.88 7.51 32.28 7.74 32.77 7.91C33.25 8.09 33.75 8.17 34.27 8.17C34.94 8.17 35.45 8.06 35.78 7.83C36.12 7.6 36.29 7.29 36.29 6.91C36.29 6.63 36.19 6.4 36.01 6.23C35.83 6.05 35.6 5.92 35.33 5.83C35.07 5.73 34.69 5.63 34.2 5.51C33.58 5.36 33.09 5.22 32.71 5.07C32.33 4.92 32.01 4.69 31.74 4.39C31.47 4.08 31.34 3.66 31.34 3.14C31.34 2.71 31.45 2.31 31.68 1.96C31.91 1.61 32.26 1.33 32.73 1.12C33.19 0.91 33.77 0.81 34.46 0.81C34.95 0.81 35.42 0.87 35.89 1C36.36 1.12 36.76 1.3 37.09 1.53L36.71 2.47C36.36 2.25 36 2.08 35.61 1.97C35.22 1.86 34.84 1.8 34.46 1.8C33.8 1.8 33.31 1.92 32.98 2.16C32.65 2.4 32.48 2.72 32.48 3.1C32.48 3.38 32.57 3.6 32.76 3.78C32.95 3.95 33.18 4.09 33.46 4.19C33.73 4.28 34.11 4.39 34.58 4.5C35.2 4.64 35.69 4.79 36.06 4.94C36.44 5.09 36.76 5.31 37.03 5.62C37.29 5.92 37.43 6.33 37.43 6.84C37.43 7.27 37.31 7.66 37.08 8.02C36.85 8.37 36.49 8.65 36.02 8.86C35.54 9.06 34.96 9.16 34.27 9.16C33.65 9.16 33.06 9.07 32.49 8.88Z" />
	<path id="&lt;Compound Path&gt;" class="shp1" d="M40.68 1.92L37.88 1.92L37.88 0.9L44.64 0.9L44.64 1.92L41.84 1.92L41.84 9.07L40.68 9.07L40.68 1.92Z" />
	<path id="&lt;Compound Path&gt;" fill-rule="evenodd" class="shp1" d="M45.96 0.9L49.4 0.9C50.27 0.9 51.03 1.07 51.7 1.42C52.37 1.76 52.89 2.24 53.26 2.86C53.63 3.48 53.81 4.19 53.81 4.99C53.81 5.79 53.63 6.5 53.26 7.12C52.89 7.74 52.37 8.22 51.7 8.56C51.03 8.9 50.27 9.07 49.4 9.07L45.96 9.07L45.96 0.9ZM49.33 8.06C49.99 8.06 50.58 7.93 51.08 7.67C51.58 7.41 51.97 7.05 52.24 6.59C52.51 6.13 52.65 5.59 52.65 4.99C52.65 4.38 52.51 3.85 52.24 3.38C51.97 2.92 51.58 2.56 51.08 2.3C50.58 2.05 49.99 1.92 49.33 1.92L47.13 1.92L47.13 8.06L49.33 8.06Z" />
	<path id="&lt;Compound Path&gt;" class="shp1" d="M33.33 22.63C32.67 22.26 32.15 21.77 31.78 21.13C31.41 20.5 31.22 19.78 31.22 18.99C31.22 18.2 31.41 17.48 31.78 16.85C32.15 16.22 32.67 15.72 33.33 15.36C33.99 14.99 34.73 14.81 35.55 14.81C36.19 14.81 36.77 14.92 37.3 15.13C37.83 15.35 38.28 15.66 38.65 16.09L37.9 16.82C37.28 16.17 36.51 15.85 35.6 15.85C34.99 15.85 34.44 15.99 33.95 16.26C33.46 16.53 33.08 16.91 32.8 17.39C32.53 17.86 32.39 18.4 32.39 18.99C32.39 19.58 32.53 20.12 32.8 20.6C33.08 21.07 33.46 21.45 33.95 21.72C34.44 21.99 34.99 22.13 35.6 22.13C36.51 22.13 37.27 21.8 37.9 21.15L38.65 21.89C38.28 22.31 37.83 22.62 37.29 22.84C36.76 23.06 36.18 23.17 35.54 23.17C34.72 23.17 33.98 22.99 33.33 22.63Z" />
	<path id="&lt;Compound Path&gt;" class="shp1" d="M45.75 22.06L45.75 23.08L39.82 23.08L39.82 14.91L45.59 14.91L45.59 15.92L40.99 15.92L40.99 18.43L45.08 18.43L45.08 19.42L40.99 19.42L40.99 22.06L45.75 22.06Z" />
	<path id="&lt;Compound Path&gt;" class="shp1" d="M54.16 14.91L54.16 23.08L53.21 23.08L48.31 16.98L48.31 23.08L47.14 23.08L47.14 14.91L48.1 14.91L53 21L53 14.91L54.16 14.91Z" />
	<path id="&lt;Compound Path&gt;" class="shp1" d="M57.73 15.92L54.93 15.92L54.93 14.91L61.69 14.91L61.69 15.92L58.89 15.92L58.89 23.08L57.73 23.08L57.73 15.92Z" />
	<path id="&lt;Compound Path&gt;" class="shp1" d="M68.39 22.06L68.39 23.08L62.46 23.08L62.46 14.91L68.23 14.91L68.23 15.92L63.63 15.92L63.63 18.43L67.72 18.43L67.72 19.42L63.63 19.42L63.63 22.06L68.39 22.06Z" />
	<path id="&lt;Compound Path&gt;" fill-rule="evenodd" class="shp1" d="M75.24 23.08L73.48 20.57C73.26 20.58 73.09 20.59 72.96 20.59L70.94 20.59L70.94 23.08L69.78 23.08L69.78 14.91L72.96 14.91C74.02 14.91 74.85 15.16 75.46 15.66C76.07 16.17 76.37 16.87 76.37 17.75C76.37 18.38 76.22 18.92 75.9 19.36C75.59 19.81 75.15 20.13 74.57 20.33L76.51 23.08L75.24 23.08ZM74.62 19.12C75.01 18.8 75.2 18.35 75.2 17.75C75.2 17.16 75.01 16.71 74.62 16.39C74.23 16.08 73.67 15.92 72.93 15.92L70.94 15.92L70.94 19.6L72.93 19.6C73.67 19.6 74.23 19.44 74.62 19.12Z" />
	<path id="&lt;Path&gt;" class="shp0" d="M17.71 9.65C17.58 9.65 17.44 9.65 17.3 9.66C16.81 9.7 16.24 9.8 15.81 10.08C16.92 11.18 19.32 13.87 19.47 14.04C20.11 14.68 20.36 15.56 19.78 16.27C19.33 16.81 18.49 17.07 17.82 16.81C17.46 16.67 17.16 16.38 16.88 16.1C16.1 15.31 15.32 14.51 14.52 13.74C15.31 14.58 15.29 15.94 14.48 16.75L14.46 16.76C13.62 17.61 12.24 17.61 11.4 16.76L10.83 16.19L10.74 16.28C11.94 17.41 13.14 18.55 14.34 19.69C14.88 20.21 15.42 20.72 15.96 21.23C16.43 21.68 16.93 22.28 17.5 22.58C18.56 23.12 19.58 21.66 20.19 21C20.69 20.47 21.15 19.92 21.58 19.33C21.99 18.75 22.44 18.22 22.65 17.53C23.16 15.85 23.05 14.27 22.22 12.72C21.53 11.43 20.42 10.33 19.02 9.87C18.6 9.73 18.16 9.66 17.71 9.65Z" />
	<path id="&lt;Path&gt;" class="shp1" d="M10.43 4.09C10.43 5.9 8.96 7.37 7.15 7.37C5.34 7.37 3.87 5.9 3.87 4.09C3.87 2.28 5.34 0.81 7.15 0.81C8.96 0.81 10.43 2.28 10.43 4.09Z" />
	<path id="&lt;Path&gt;" class="shp0" d="M20.3 4.09C20.3 5.57 19.1 6.77 17.62 6.77C16.14 6.77 14.94 5.57 14.94 4.09C14.94 2.61 16.14 1.41 17.62 1.41C19.1 1.41 20.3 2.61 20.3 4.09Z" />
	<path id="&lt;Path&gt;" class="shp1" d="M14.56 13.75C13.6 12.79 12.64 11.83 11.68 10.87C11.12 10.3 10.62 9.67 9.97 9.19C9.31 8.7 8.54 8.57 7.73 8.54C6.09 8.47 4.42 8.98 3.15 10.02C3.08 10.07 3.02 10.12 2.96 10.18C1.77 11.23 1 12.74 0.84 14.32C0.68 15.9 1.29 17.21 2.19 18.48C3.34 20.1 4.79 21.5 6.3 22.78C6.91 23.3 7.8 23.3 8.4 22.78C8.74 22.49 9.14 22.14 9.57 21.74C10.05 21.29 10.06 20.53 9.6 20.06L5.89 16.35C5.24 15.71 5.16 14.67 5.73 13.97C6.4 13.16 7.61 13.11 8.33 13.84L8.84 14.33L11.26 16.82C12.11 17.67 13.71 17.67 14.55 16.82L14.56 16.82C15.41 15.97 15.41 14.59 14.56 13.75Z" />
</svg>