<svg xmlns="http://www.w3.org/2000/svg" viewBox="0 0 50 43" width="50" height="43">
	<style>
		tspan { white-space:pre }
		.shp0 { fill: #cad5ec } 
		.shp1 { fill: #274c95 } 
		.shp2 { fill: #f25b3e } 
	</style>
	<g id="&lt;Group&gt;">
		<g id="&lt;Group&gt;" style="opacity: 0.341">
			<path id="&lt;Path&gt;" class="shp0" d="M21.48 0.23C33.23 0.23 42.74 9.75 42.74 21.49C42.74 23.76 42.39 25.94 41.73 27.99L50.22 40.3L38.06 34.79C34.17 39.65 28.19 42.75 21.48 42.75C9.74 42.75 0.22 33.24 0.22 21.49C0.22 9.75 9.74 0.23 21.48 0.23Z" />
		</g>
		<g id="&lt;Group&gt;">
			<g id="&lt;Group&gt;">
				<g id="&lt;Group&gt;">
					<path id="&lt;Path&gt;" class="shp1" d="M32.5 24.79L33.34 24.79L33.34 12C33.34 10.82 32.38 9.85 31.19 9.85L26 9.85L26 10.69L31.19 10.69C31.91 10.69 32.5 11.28 32.5 12L32.5 24.79Z" />
				</g>
				<g id="&lt;Group&gt;">
					<path id="&lt;Path&gt;" class="shp1" d="M8.96 24.79L9.81 24.79L9.81 12C9.81 11.28 10.39 10.69 11.12 10.69L16.31 10.69L16.31 9.85L11.12 9.85C9.93 9.85 8.96 10.82 8.96 12L8.96 24.79Z" />
				</g>
				<g id="&lt;Group&gt;">
					<path id="&lt;Compound Path&gt;" fill-rule="evenodd" class="shp1" d="M6.04 26.78L5.93 26.27L36.2 26.27L36.09 26.78C36.07 26.89 35.49 29.5 33.5 29.5L8.63 29.5C6.63 29.5 6.06 26.89 6.04 26.78ZM7.01 27.11C7.24 27.72 7.73 28.66 8.63 28.66L33.5 28.66C34.39 28.66 34.89 27.72 35.11 27.11L7.01 27.11Z" />
				</g>
			</g>
			<g id="&lt;Group&gt;" style="opacity: 0.722">
				<g id="&lt;Group&gt;" style="opacity: 0.82">
					<g id="&lt;Group&gt;">
						<path id="&lt;Compound Path&gt;" fill-rule="evenodd" class="shp2" d="M17.61 13.35C17.48 11.99 17.47 10.61 18.28 9.72C18.85 9.09 19.76 8.78 21.05 8.78C22.33 8.78 23.24 9.09 23.81 9.72C24.62 10.61 24.61 11.99 24.49 13.35C24.25 15.78 22.68 17.83 21.05 17.83C19.41 17.83 17.84 15.78 17.61 13.35ZM18.9 10.29C18.31 10.93 18.33 12.1 18.44 13.27C18.65 15.46 19.98 16.99 21.05 16.99C22.11 16.99 23.44 15.46 23.65 13.27C23.76 12.1 23.78 10.93 23.19 10.29C22.78 9.84 22.08 9.62 21.05 9.62C20.01 9.62 19.31 9.84 18.9 10.29Z" />
					</g>
					<g id="&lt;Group&gt;">
						<path id="&lt;Path&gt;" class="shp2" d="M18.16 13.11C19.05 12.88 19.73 12.44 20.11 12.14C20.43 12.43 21.02 12.78 22.07 12.95L22.21 12.12C20.85 11.9 20.54 11.36 20.53 11.36L20.26 10.86L19.86 11.25C19.85 11.26 19.11 11.99 17.95 12.3L18.16 13.11Z" />
					</g>
				</g>
				<g id="&lt;Group&gt;" style="opacity: 0.82">
					<path id="&lt;Path&gt;" class="shp2" d="M14.63 24.79L15.47 24.79L15.47 21.42C15.47 19.93 17.36 19.44 17.38 19.43L18.26 19.17L21.06 22.67L23.87 19.17L24.73 19.43C24.82 19.45 26.66 19.94 26.66 21.42L26.66 24.79L27.5 24.79L27.5 21.42C27.5 19.28 25.05 18.64 24.95 18.62L23.57 18.2L21.06 21.33L18.56 18.2L17.16 18.62C17.07 18.64 14.63 19.28 14.63 21.42L14.63 24.79Z" />
				</g>
			</g>
		</g>
	</g>
</svg>