<svg xmlns="http://www.w3.org/2000/svg" viewBox="0 0 30 31" width="30" height="31">
	<style>
		tspan { white-space:pre }
		.shp0 { fill: #ffffff } 
		.shp1 { fill: none;stroke: #ffffff;stroke-width: 0.75 } 
	</style>
	<g id="&lt;Group&gt;">
		<path id="&lt;Path&gt;" class="shp0" d="M20.65 9.59C20.02 8.83 19.09 8.37 18.11 8.37C16.14 8.31 14.58 9.99 14.58 12.02C14.58 12.3 14.64 12.59 14.69 12.88C11.8 12.71 9.2 11.15 7.46 8.89C7.17 9.41 7 10.11 7 10.74C7 12.07 7.64 13.17 8.56 13.87C7.98 13.87 7.46 13.69 6.94 13.4L6.94 13.46C6.94 15.26 8.16 16.82 9.78 17.16C9.49 17.22 9.2 17.28 8.85 17.28C8.62 17.28 8.39 17.28 8.22 17.22C8.68 18.73 9.95 19.83 11.51 19.83C10.3 20.81 8.79 21.45 7.17 21.39C6.88 21.39 6.6 21.39 6.36 21.33C7.93 22.37 9.78 23.01 11.74 23.01C18.22 23.01 21.75 17.4 21.75 12.48C21.75 12.3 21.75 12.13 21.75 12.02C22.45 11.49 23.03 10.86 23.49 10.11C22.85 10.4 22.16 10.57 21.46 10.68C22.22 10.22 22.74 9.53 23.03 8.66C22.22 9.12 21.46 9.41 20.65 9.59Z" />
		<path id="&lt;Path&gt;" class="shp1" d="M28.24 29.99L1.62 29.99C1.07 29.99 0.63 29.54 0.63 29L0.63 2.38C0.63 1.83 1.07 1.39 1.62 1.39L28.24 1.39C28.78 1.39 29.23 1.83 29.23 2.38L29.23 29C29.23 29.54 28.78 29.99 28.24 29.99Z" />
	</g>
</svg>